Tiwizi Sans.glyphspackage
{
glyphname = exclam;
layers = (
{
layerId = m005;
shapes = (
{
closed = 0;
nodes = (
(44,700,l),
(44,227,l)
);
},
{
closed = 0;
nodes = (
(44,95,l),
(44,0,l)
);
}
);
width = 88;
},
{
layerId = m004;
width = 600;
},
{
layerId = m003;
width = 600;
}
);
metricLeft = "=period";
metricRight = "=|";
unicode = 33;
}
{
glyphname = numbersign;
kernLeft = numbersign;
kernRight = numbersign;
layers = (
{
layerId = m005;
shapes = (
{
closed = 1;
nodes = (
(347,0,ls),
(350,0,o),
(353,0,o),
(354,4,cs),
(497,692,ls),
(498,697,o),
(496,700,o),
(492,700,cs),
(484,700,ls),
(480,700,o),
(477,700,o),
(476,695,cs),
(333,7,ls),
(332,3,o),
(334,0,o),
(338,0,cs)
);
},
{
closed = 1;
nodes = (
(514,190,ls),
(518,190,o),
(520,192,o),
(520,196,cs),
(520,204,ls),
(520,208,o),
(518,210,o),
(514,210,cs),
(82,210,ls),
(78,210,o),
(76,208,o),
(76,204,cs),
(76,196,ls),
(76,192,o),
(78,190,o),
(82,190,cs)
);
},
{
closed = 1;
nodes = (
(147,0,ls),
(150,0,o),
(153,0,o),
(154,4,cs),
(297,692,ls),
(298,697,o),
(296,700,o),
(292,700,cs),
(284,700,ls),
(280,700,o),
(277,700,o),
(276,695,cs),
(133,7,ls),
(132,3,o),
(134,0,o),
(138,0,cs)
);
},
{
closed = 1;
nodes = (
(564,490,ls),
(568,490,o),
(570,492,o),
(570,496,cs),
(570,504,ls),
(570,508,o),
(568,510,o),
(564,510,cs),
(132,510,ls),
(128,510,o),
(126,508,o),
(126,504,cs),
(126,496,ls),
(126,492,o),
(128,490,o),
(132,490,cs)
);
}
);
width = 646;
},
{
layerId = m004;
shapes = (
{
closed = 1;
nodes = (
(372,0,ls),
(387,0,o),
(397,8,o),
(400,22,cs),
(532,673,ls),
(535,690,o),
(527,700,o),
(510,700,cs),
(480,700,ls),
(465,700,o),
(455,692,o),
(452,678,cs),
(320,27,ls),
(317,10,o),
(325,0,o),
(342,0,cs)
);
},
{
closed = 1;
nodes = (
(510,170,ls),
(526,170,o),
(535,179,o),
(535,195,cs),
(535,209,ls),
(535,225,o),
(526,234,o),
(510,234,cs),
(88,234,ls),
(72,234,o),
(63,225,o),
(63,209,cs),
(63,195,ls),
(63,179,o),
(72,170,o),
(88,170,cs)
);
},
{
closed = 1;
nodes = (
(172,0,ls),
(187,0,o),
(197,8,o),
(200,22,cs),
(332,673,ls),
(335,690,o),
(327,700,o),
(310,700,cs),
(280,700,ls),
(265,700,o),
(255,692,o),
(252,678,cs),
(120,27,ls),
(117,10,o),
(125,0,o),
(142,0,cs)
);
},
{
closed = 1;
nodes = (
(560,466,ls),
(576,466,o),
(585,475,o),
(585,491,cs),
(585,505,ls),
(585,521,o),
(576,530,o),
(560,530,cs),
(138,530,ls),
(122,530,o),
(113,521,o),
(113,505,cs),
(113,491,ls),
(113,475,o),
(122,466,o),
(138,466,cs)
);
}
);
width = 648;
},
{
layerId = m003;
shapes = (
{
closed = 1;
nodes = (
(433,0,ls),
(457,0,o),
(472,10,o),
(478,34,cs),
(640,676,ls),
(647,703,o),
(633,720,o),
(605,720,cs),
(547,720,ls),
(523,720,o),
(508,710,o),
(502,686,cs),
(340,44,ls),
(333,17,o),
(347,0,o),
(375,0,cs)
);
},
{
closed = 1;
nodes = (
(589,150,ls),
(615,150,o),
(629,164,o),
(629,190,cs),
(629,214,ls),
(629,240,o),
(615,254,o),
(589,254,cs),
(97,254,ls),
(71,254,o),
(57,240,o),
(57,214,cs),
(57,190,ls),
(57,164,o),
(71,150,o),
(97,150,cs)
);
},
{
closed = 1;
nodes = (
(193,0,ls),
(217,0,o),
(232,10,o),
(238,34,cs),
(400,676,ls),
(407,703,o),
(393,720,o),
(365,720,cs),
(307,720,ls),
(283,720,o),
(268,710,o),
(262,686,cs),
(100,44,ls),
(93,17,o),
(107,0,o),
(135,0,cs)
);
},
{
closed = 1;
nodes = (
(639,446,ls),
(665,446,o),
(679,460,o),
(679,486,cs),
(679,510,ls),
(679,536,o),
(665,550,o),
(639,550,cs),
(147,550,ls),
(121,550,o),
(107,536,o),
(107,510,cs),
(107,486,ls),
(107,460,o),
(121,446,o),
(147,446,cs)
);
}
);
width = 736;
}
);
metricRight = "=|";
unicode = 35;
userData = {
KernOnName = numbersign;
};
}
{
glyphname = percent;
layers = (
{
background = {
shapes = (
{
closed = 0;
nodes = (
(204,376,l),
(276,376,o),
(321,438,o),
(321,538,cs),
(321,638,o),
(276,700,o),
(204,700,cs),
(132,700,o),
(87,638,o),
(87,538,cs),
(87,438,o),
(132,376,o),
(204,376,c)
);
},
{
closed = 0;
nodes = (
(155,0,l),
(584,700,l)
);
},
{
closed = 0;
nodes = (
(534,0,l),
(606,0,o),
(651,62,o),
(651,162,cs),
(651,262,o),
(606,324,o),
(534,324,cs),
(462,324,o),
(417,262,o),
(417,162,cs),
(417,62,o),
(462,0,o),
(534,0,c)
);
}
);
};
layerId = m005;
shapes = (
{
closed = 1;
nodes = (
(157,0,ls),
(160,0,o),
(164,2,o),
(165,4,c),
(597,695,l),
(600,699,o),
(598,702,o),
(593,702,cs),
(581,702,ls),
(578,702,o),
(574,700,o),
(573,698,c),
(141,7,l),
(138,3,o),
(140,0,o),
(145,0,cs)
);
},
{
closed = 1;
nodes = (
(593,-10,o),
(639,52,o),
(639,160,cs),
(639,269,o),
(593,331,o),
(529,331,cs),
(465,331,o),
(419,269,o),
(419,160,cs),
(419,52,o),
(465,-10,o),
(529,-10,cs)
);
},
{
closed = 1;
nodes = (
(476,10,o),
(440,64,o),
(440,160,cs),
(440,256,o),
(477,311,o),
(529,311,cs),
(581,311,o),
(618,256,o),
(618,160,cs),
(618,64,o),
(581,10,o),
(529,10,cs)
);
},
{
closed = 1;
nodes = (
(273,369,o),
(319,431,o),
(319,539,cs),
(319,648,o),
(273,710,o),
(209,710,cs),
(145,710,o),
(99,648,o),
(99,539,cs),
(99,431,o),
(145,369,o),
(209,369,cs)
);
},
{
closed = 1;
nodes = (
(156,389,o),
(120,443,o),
(120,539,cs),
(120,635,o),
(157,690,o),
(209,690,cs),
(261,690,o),
(298,635,o),
(298,539,cs),
(298,443,o),
(261,389,o),
(209,389,cs)
);
}
);
width = 738;
},
{
layerId = m004;
shapes = (
{
closed = 1;
nodes = (
(206,0,ls),
(219,0,o),
(229,6,o),
(236,17,cs),
(644,670,ls),
(655,688,o),
(647,700,o),
(627,700,cs),
(597,700,ls),
(584,700,o),
(574,694,o),
(567,683,cs),
(161,30,ls),
(151,13,o),
(157,0,o),
(177,0,cs)
);
},
{
closed = 1;
nodes = (
(662,-10,o),
(720,52,o),
(720,160,cs),
(720,269,o),
(662,331,o),
(582,331,cs),
(502,331,o),
(444,269,o),
(444,160,cs),
(444,52,o),
(502,-10,o),
(582,-10,cs)
);
},
{
closed = 1;
nodes = (
(547,40,o),
(523,83,o),
(523,160,cs),
(523,237,o),
(548,281,o),
(582,281,cs),
(616,281,o),
(641,237,o),
(641,160,cs),
(641,83,o),
(616,40,o),
(582,40,cs)
);
},
{
closed = 1;
nodes = (
(292,369,o),
(350,431,o),
(350,539,cs),
(350,648,o),
(292,710,o),
(212,710,cs),
(132,710,o),
(74,648,o),
(74,539,cs),
(74,431,o),
(132,369,o),
(212,369,cs)
);
},
{
closed = 1;
nodes = (
(177,419,o),
(153,462,o),
(153,539,cs),
(153,616,o),
(178,660,o),
(212,660,cs),
(246,660,o),
(271,616,o),
(271,539,cs),
(271,462,o),
(246,419,o),
(212,419,cs)
);
}
);
width = 794;
},
{
layerId = m003;
shapes = (
{
closed = 1;
nodes = (
(254,0,ls),
(275,0,o),
(291,9,o),
(302,27,cs),
(705,672,ls),
(722,700,o),
(710,720,o),
(678,720,cs),
(621,720,ls),
(600,720,o),
(584,711,o),
(573,693,cs),
(172,48,ls),
(155,20,o),
(167,0,o),
(199,0,cs)
);
},
{
closed = 1;
nodes = (
(314,375,o),
(380,441,o),
(380,555,cs),
(380,670,o),
(314,736,o),
(222,736,cs),
(130,736,o),
(64,670,o),
(64,555,cs),
(64,441,o),
(130,375,o),
(222,375,cs)
);
},
{
closed = 1;
nodes = (
(195,455,o),
(177,491,o),
(177,555,cs),
(177,619,o),
(196,656,o),
(222,656,cs),
(248,656,o),
(267,619,o),
(267,555,cs),
(267,491,o),
(248,455,o),
(222,455,cs)
);
},
{
closed = 1;
nodes = (
(745,-16,o),
(811,50,o),
(811,164,cs),
(811,279,o),
(745,345,o),
(653,345,cs),
(561,345,o),
(495,279,o),
(495,164,cs),
(495,50,o),
(561,-16,o),
(653,-16,cs)
);
},
{
closed = 1;
nodes = (
(626,64,o),
(608,100,o),
(608,164,cs),
(608,228,o),
(627,265,o),
(653,265,cs),
(679,265,o),
(698,228,o),
(698,164,cs),
(698,100,o),
(679,64,o),
(653,64,cs)
);
}
);
width = 875;
}
);
metricRight = "=|";
unicode = 37;
userData = {
KernOnSpecialSpacing = {
L = "spaced-off";
};
};
}
{
glyphname = quotesingle;
layers = (
{
anchors = (
{
name = "#entry";
},
{
name = "#exit";
pos = (87,0);
}
);
layerId = m005;
shapes = (
{
closed = 0;
nodes = (
(70,700,l),
(70,545,l)
);
}
);
width = 140;
},
{
layerId = m004;
width = 600;
},
{
layerId = m003;
width = 600;
}
);
metricLeft = "=quotesinglbase";
metricRight = "=|";
unicode = 39;
}
{
glyphname = parenleft;
kernLeft = parenleft;
kernRight = parenleft;
layers = (
{
layerId = m005;
shapes = (
{
closed = 1;
nodes = (
(242,-100,ls),
(246,-100,o),
(246,-98,o),
(244,-95,cs),
(131,42,o),
(103,225,o),
(103,341,cs),
(103,457,o),
(131,620,o),
(244,777,cs),
(246,780,o),
(246,782,o),
(242,782,cs),
(231,782,ls),
(227,782,o),
(224,780,o),
(222,777,cs),
(105,613,o),
(83,458,o),
(83,341,cs),
(83,224,o),
(105,49,o),
(222,-95,cs),
(224,-98,o),
(227,-100,o),
(231,-100,cs)
);
}
);
width = 302;
},
{
layerId = m004;
shapes = (
{
closed = 1;
nodes = (
(243,-85,ls),
(264,-85,o),
(270,-72,o),
(258,-55,cs),
(167,74,o),
(150,243,o),
(150,351,cs),
(150,459,o),
(167,613,o),
(260,756,cs),
(271,774,o),
(265,787,o),
(245,787,cs),
(222,787,ls),
(209,787,o),
(200,782,o),
(192,770,cs),
(89,609,o),
(64,464,o),
(64,351,cs),
(64,238,o),
(85,71,o),
(191,-70,cs),
(199,-81,o),
(209,-85,o),
(222,-85,cs)
);
}
);
width = 309;
},
{
layerId = m003;
shapes = (
{
closed = 1;
nodes = (
(248,-102,ls),
(279,-102,o),
(290,-83,o),
(275,-54,cs),
(206,84,o),
(192,236,o),
(192,337,cs),
(192,438,o),
(206,590,o),
(275,728,cs),
(290,757,o),
(279,776,o),
(248,776,cs),
(216,776,ls),
(194,776,o),
(179,768,o),
(168,748,cs),
(78,590,o),
(56,449,o),
(56,337,cs),
(56,229,o),
(77,93,o),
(159,-59,cs),
(176,-90,o),
(194,-102,o),
(216,-102,cs)
);
}
);
width = 321;
}
);
unicode = 40;
userData = {
KernOnSpecialSpacing = {
R = parenthesis;
};
};
}
{
glyphname = asterisk;
layers = (
{
anchors = (
{
name = "#rotate";
pos = (10,510);
}
);
layerId = m005;
shapes = (
{
closed = 0;
nodes = (
(10,700,l),
(10,530,l)
);
},
{
closed = 0;
nodes = (
(10,583,l),
(10,531,l)
);
},
{
closed = 0;
nodes = (
(10,393,l),
(10,530,l)
);
},
{
closed = 0;
nodes = (
(10,393,l),
(10,530,l)
);
},
{
closed = 0;
nodes = (
(10,583,l),
(10,531,l)
);
}
);
width = 20;
},
{
layerId = m004;
width = 600;
},
{
layerId = m003;
width = 600;
}
);
metricRight = "=|";
unicode = 42;
}
{
glyphname = plus;
kernLeft = plus;
kernRight = plus;
layers = (
{
layerId = m005;
shapes = (
{
closed = 1;
nodes = (
(260,178,ls),
(264,178,o),
(266,180,o),
(266,184,cs),
(266,537,ls),
(266,541,o),
(264,543,o),
(260,543,cs),
(250,543,ls),
(246,543,o),
(244,541,o),
(244,537,cs),
(244,184,ls),
(244,180,o),
(246,178,o),
(250,178,cs)
);
},
{
closed = 1;
nodes = (
(420,356,ls),
(424,356,o),
(426,358,o),
(426,362,cs),
(426,370,ls),
(426,374,o),
(424,376,o),
(420,376,cs),
(91,376,ls),
(87,376,o),
(85,374,o),
(85,370,cs),
(85,362,ls),
(85,358,o),
(88,356,o),
(91,356,cs)
);
}
);
width = 511;
},
{
layerId = m004;
shapes = (
{
closed = 1;
nodes = (
(242,205,ls),
(258,205,o),
(267,214,o),
(267,230,cs),
(267,509,ls),
(267,525,o),
(258,534,o),
(242,534,cs),
(226,534,ls),
(210,534,o),
(201,525,o),
(201,509,cs),
(201,230,ls),
(201,214,o),
(210,205,o),
(226,205,cs)
);
},
{
closed = 1;
nodes = (
(373,336,ls),
(389,336,o),
(398,345,o),
(398,361,cs),
(398,377,ls),
(398,393,o),
(389,402,o),
(373,402,cs),
(94,402,ls),
(78,402,o),
(69,393,o),
(69,377,cs),
(69,361,ls),
(69,345,o),
(78,336,o),
(94,336,cs)
);
}
);
width = 467;
},
{
layerId = m003;
shapes = (
{
closed = 1;
nodes = (
(371,296,ls),
(397,296,o),
(411,310,o),
(411,336,cs),
(411,362,ls),
(411,388,o),
(397,402,o),
(371,402,cs),
(102,402,ls),
(76,402,o),
(62,388,o),
(62,362,cs),
(62,336,ls),
(62,310,o),
(76,296,o),
(102,296,cs)
);
},
{
closed = 1;
nodes = (
(184,215,ls),
(184,189,o),
(198,175,o),
(224,175,cs),
(250,175,ls),
(276,175,o),
(290,189,o),
(290,215,cs),
(290,484,ls),
(290,510,o),
(276,524,o),
(250,524,cs),
(224,524,ls),
(198,524,o),
(184,510,o),
(184,484,cs)
);
}
);
width = 473;
}
);
metricRight = "=|";
unicode = 43;
userData = {
KernOnSpecialSpacing = {
L = math;
R = math;
};
};
}
{
glyphname = comma;
layers = (
{
layerId = m003;
shapes = (
{
closed = 1;
nodes = (
(292,113,ls),
(303,139,o),
(292,160,o),
(262,160,cs),
(154,160,ls),
(131,160,o),
(116,149,o),
(110,126,cs),
(52,-99,ls),
(46,-124,o),
(58,-144,o),
(86,-144,cs),
(147,-144,ls),
(169,-144,o),
(186,-133,o),
(194,-114,cs)
);
}
);
width = 327;
},
{
layerId = m004;
shapes = (
{
closed = 1;
nodes = (
(200,40,ls),
(209,57,o),
(198,70,o),
(179,70,cs),
(138,70,ls),
(119,70,o),
(104,59,o),
(99,40,cs),
(60,-104,ls),
(56,-117,o),
(59,-130,o),
(78,-130,cs),
(91,-130,ls),
(110,-130,o),
(118,-117,o),
(127,-100,cs)
);
}
);
width = 251;
},
{
layerId = m005;
shapes = (
{
closed = 1;
nodes = (
(122,33,ls),
(123,37,o),
(121,40,o),
(117,40,cs),
(108,40,ls),
(105,40,o),
(102,39,o),
(101,35,cs),
(62,-95,ls),
(61,-100,o),
(63,-102,o),
(67,-102,cs),
(70,-102,ls),
(73,-102,o),
(76,-101,o),
(77,-97,cs)
);
}
);
width = 164;
}
);
unicode = 44;
}
{
glyphname = hyphen;
kernLeft = hyphen;
kernRight = hyphen;
layers = (
{
layerId = m003;
shapes = (
{
closed = 1;
nodes = (
(447,294,ls),
(473,294,o),
(487,308,o),
(487,334,cs),
(487,380,ls),
(487,406,o),
(473,420,o),
(447,420,cs),
(119,420,ls),
(93,420,o),
(79,406,o),
(79,380,cs),
(79,334,ls),
(79,308,o),
(93,294,o),
(119,294,cs)
);
}
);
width = 566;
},
{
layerId = m004;
shapes = (
{
closed = 1;
nodes = (
(435,316,ls),
(454,316,o),
(465,327,o),
(465,346,cs),
(465,354,ls),
(465,373,o),
(454,384,o),
(435,384,cs),
(115,384,ls),
(96,384,o),
(85,373,o),
(85,354,cs),
(85,346,ls),
(85,327,o),
(96,316,o),
(115,316,cs)
);
}
);
width = 550;
},
{
layerId = m005;
shapes = (
{
closed = 1;
nodes = (
(363,340,ls),
(367,340,o),
(369,342,o),
(369,346,cs),
(369,354,ls),
(369,358,o),
(367,360,o),
(363,360,cs),
(105,360,ls),
(101,360,o),
(99,358,o),
(99,354,cs),
(99,346,ls),
(99,342,o),
(101,340,o),
(105,340,cs)
);
}
);
width = 468;
}
);
metricRight = "=|";
unicode = 45;
userData = {
KernOnName = hyphen;
KernOnSpecialSpacing = {
L = hyphen;
R = hyphen;
};
};
}
{
glyphname = period;
kernLeft = period;
kernRight = period;
layers = (
{
anchors = (
{
name = "#entry";
pos = (48,0);
},
{
name = "#exit";
pos = (302,0);
}
);
layerId = m003;
shapes = (
{
closed = 1;
nodes = (
(246,-16,o),
(284,20,o),
(284,77,cs),
(284,147,o),
(246,176,o),
(185,176,cs),
(128,176,o),
(92,147,o),
(92,77,cs),
(92,20,o),
(128,-16,o),
(185,-16,cs)
);
}
);
width = 376;
},
{
anchors = (
{
name = "#entry";
pos = (60,0);
},
{
name = "#exit";
pos = (231,0);
}
);
layerId = m004;
shapes = (
{
closed = 1;
nodes = (
(191,-10,o),
(213,11,o),
(213,43,cs),
(213,82,o),
(191,99,o),
(157,99,cs),
(125,99,o),
(104,82,o),
(104,43,cs),
(104,11,o),
(125,-10,o),
(157,-10,cs)
);
}
);
width = 317;
},
{
anchors = (
{
name = "#entry";
pos = (89,0);
},
{
name = "#exit";
pos = (196,0);
}
);
layerId = m005;
shapes = (
{
closed = 1;
nodes = (
(169,-10,o),
(178,-1,o),
(178,12,cs),
(178,28,o),
(169,35,o),
(155,35,cs),
(142,35,o),
(133,28,o),
(133,12,cs),
(133,-1,o),
(142,-10,o),
(155,-10,cs)
);
}
);
width = 311;
}
);
metricRight = "=|";
unicode = 46;
userData = {
KernOnName = period;
KernOnSpecialSpacing = {
L = period;
R = period;
};
};
}
{
glyphname = slash;
layers = (
{
layerId = m005;
shapes = (
{
closed = 0;
nodes = (
(10,729,l),
(10,-66,l)
);
}
);
width = 20;
},
{
layerId = m004;
width = 600;
},
{
layerId = m003;
width = 600;
}
);
metricRight = "=|";
unicode = 47;
}
{
export = 0;
glyphname = zero;
layers = (
{
layerId = m003;
width = 600;
},
{
layerId = m004;
width = 600;
},
{
layerId = m005;
shapes = (
{
closed = 1;
nodes = (
(479,-11,o),
(584,134,o),
(584,330,cs),
(584,527,o),
(479,671,o),
(329,671,cs),
(179,671,o),
(74,527,o),
(74,330,cs),
(74,134,o),
(179,-11,o),
(329,-11,cs)
);
},
{
closed = 1;
nodes = (
(193,11,o),
(98,147,o),
(98,330,cs),
(98,514,o),
(193,649,o),
(329,649,cs),
(465,649,o),
(560,514,o),
(560,330,cs),
(560,147,o),
(465,11,o),
(329,11,cs)
);
}
);
width = 669;
}
);
unicode = 48;
}
{
glyphname = one;
kernLeft = one;
kernRight = one;
layers = (
{
layerId = m003;
shapes = (
{
closed = 1;
nodes = (
(229,0,ls),
(255,0,o),
(269,14,o),
(269,40,cs),
(269,640,ls),
(269,666,o),
(255,680,o),
(229,680,cs),
(60,680,ls),
(34,680,o),
(20,666,o),
(20,640,cs),
(20,572,ls),
(20,546,o),
(34,532,o),
(60,532,cs),
(89,532,l),
(89,40,ls),
(89,14,o),
(103,0,o),
(129,0,cs)
);
}
);
width = 336;
},
{
layerId = m004;
shapes = (
{
closed = 1;
nodes = (
(181,0,ls),
(200,0,o),
(211,11,o),
(211,30,c),
(211,640,ls),
(211,659,o),
(200,670,o),
(181,670,cs),
(60,670,ls),
(41,670,o),
(30,659,o),
(30,640,cs),
(30,632,ls),
(30,613,o),
(41,602,o),
(60,602,cs),
(129,602,l),
(129,30,ls),
(129,11,o),
(140,0,o),
(159,0,cs)
);
}
);
width = 284;
},
{
layerId = m005;
shapes = (
{
closed = 1;
nodes = (
(154,0,ls),
(158,0,o),
(160,2,o),
(160,6,cs),
(160,650,ls),
(160,654,o),
(158,656,o),
(154,656,cs),
(46,656,ls),
(42,656,o),
(40,654,o),
(40,650,cs),
(40,642,ls),
(40,638,o),
(42,636,o),
(46,636,cs),
(137,636,l),
(139,6,ls),
(139,3,o),
(142,0,o),
(145,0,cs)
);
}
);
width = 247;
}
);
unicode = 49;
userData = {
KernOnName = one;
};
}
{
export = 0;
glyphname = two;
layers = (
{
layerId = m003;
width = 600;
},
{
layerId = m004;
shapes = (
{
closed = 1;
nodes = (
(274,329,cs),
(186,274,ls),
(110,227,o),
(60,161,o),
(60,68,cs),
(60,27,ls),
(60,8,o),
(74,0,o),
(87,0,cs),
(428,0,ls),
(447,0,o),
(458,11,o),
(458,30,cs),
(458,38,ls),
(458,57,o),
(447,68,o),
(428,68,cs),
(137,68,l),
(137,120,o),
(156,164,o),
(206,195,cs),
(308,258,ls),
(389,308,o),
(462,375,o),
(462,480,cs),
(462,596,o),
(377,680,o),
(253,680,cs),
(137,680,o),
(55,615,o),
(44,521,cs),
(41,501,o),
(54,490,o),
(73,490,cs),
(101,490,ls),
(120,490,o),
(129,500,o),
(132,519,cs),
(140,579,o),
(188,612,o),
(254,612,cs),
(327,612,o),
(382,564,o),
(382,480,cs),
(382,417,o),
(337,368,o)
);
}
);
width = 506;
},
{
layerId = m005;
width = 600;
}
);
unicode = 50;
}
{
glyphname = three;
kernLeft = three;
kernRight = three;
layers = (
{
layerId = m003;
shapes = (
{
closed = 1;
nodes = (
(439,-16,o),
(552,78,o),
(552,212,cs),
(552,277,o),
(519,334,o),
(423,366,c),
(423,368,l),
(499,396,o),
(524,447,o),
(524,504,cs),
(524,611,o),
(429,690,o),
(287,690,cs),
(168,690,o),
(82,624,o),
(55,524,cs),
(48,497,o),
(64,481,o),
(91,481,cs),
(181,481,ls),
(204,481,o),
(215,493,o),
(226,514,cs),
(239,538,o),
(259,550,o),
(286,550,cs),
(323,550,o),
(348,524,o),
(348,485,cs),
(348,447,o),
(318,423,o),
(290,423,cs),
(270,423,ls),
(244,423,o),
(230,409,o),
(230,383,cs),
(230,335,ls),
(230,309,o),
(244,295,o),
(270,295,cs),
(291,295,ls),
(324,295,o),
(362,263,o),
(362,221,cs),
(362,172,o),
(329,142,o),
(288,142,cs),
(255,142,o),
(228,157,o),
(214,184,cs),
(202,207,o),
(191,219,o),
(168,219,cs),
(73,219,ls),
(46,219,o),
(30,203,o),
(37,176,cs),
(66,61,o),
(160,-16,o),
(288,-16,cs)
);
}
);
width = 609;
},
{
layerId = m004;
shapes = (
{
closed = 1;
nodes = (
(411,-10,o),
(507,72,o),
(507,188,cs),
(507,261,o),
(461,336,o),
(369,361,c),
(369,363,l),
(437,383,o),
(479,445,o),
(479,504,cs),
(479,605,o),
(400,680,o),
(282,680,cs),
(166,680,o),
(87,610,o),
(76,510,cs),
(73,490,o),
(86,479,o),
(105,479,cs),
(128,479,ls),
(147,479,o),
(156,489,o),
(159,508,cs),
(168,575,o),
(213,612,o),
(282,612,cs),
(350,612,o),
(401,574,o),
(401,505,cs),
(401,434,o),
(353,394,o),
(285,394,cs),
(245,394,ls),
(229,394,o),
(220,385,o),
(220,369,cs),
(220,351,ls),
(220,335,o),
(229,326,o),
(245,326,cs),
(285,326,ls),
(360,326,o),
(427,278,o),
(427,191,cs),
(427,108,o),
(362,58,o),
(283,58,cs),
(199,58,o),
(140,106,o),
(128,191,cs),
(125,210,o),
(116,220,o),
(97,220,cs),
(73,220,ls),
(54,220,o),
(41,209,o),
(44,189,cs),
(58,72,o),
(150,-10,o),
(283,-10,cs)
);
}
);
width = 572;
},
{
layerId = m005;
shapes = (
{
closed = 1;
nodes = (
(406,-10,o),
(502,68,o),
(502,178,cs),
(502,280,o),
(444,332,o),
(348,349,c),
(348,351,l),
(416,373,o),
(458,441,o),
(458,505,cs),
(458,600,o),
(385,671,o),
(277,671,cs),
(175,671,o),
(104,611,o),
(92,526,cs),
(91,522,o),
(93,520,o),
(97,520,cs),
(108,520,ls),
(111,520,o),
(114,522,o),
(115,526,cs),
(128,606,o),
(196,651,o),
(278,651,cs),
(368,651,o),
(436,599,o),
(436,507,cs),
(436,412,o),
(353,358,o),
(275,358,cs),
(239,358,ls),
(235,358,o),
(233,356,o),
(233,352,cs),
(233,343,ls),
(233,339,o),
(235,337,o),
(239,337,cs),
(275,337,ls),
(381,337,o),
(480,306,o),
(480,178,cs),
(480,75,o),
(389,12,o),
(278,12,cs),
(176,12,o),
(99,66,o),
(82,165,cs),
(81,168,o),
(78,170,o),
(75,170,cs),
(65,170,ls),
(61,170,o),
(59,168,o),
(60,164,cs),
(75,62,o),
(158,-10,o),
(278,-10,cs)
);
}
);
width = 583;
}
);
unicode = 51;
userData = {
KernOnName = three;
};
}
{
export = 0;
glyphname = four;
layers = (
{
layerId = m003;
width = 600;
},
{
layerId = m004;
shapes = (
{
closed = 1;
nodes = (
(486,146,l),
(545,146,ls),
(561,146,o),
(570,155,o),
(570,171,cs),
(570,189,ls),
(570,205,o),
(561,214,o),
(545,214,cs),
(486,214,l),
(486,640,ls),
(486,659,o),
(474,670,o),
(456,670,cs),
(443,670,ls),
(424,670,o),
(413,663,o),
(401,648,cs),
(77,237,ls),
(69,226,o),
(62,213,o),
(62,197,cs),
(62,174,ls),
(62,157,o),
(72,146,o),
(90,146,cs),
(404,146,l),
(404,30,ls),
(404,11,o),
(415,0,o),
(434,0,cs),
(456,0,ls),
(475,0,o),
(486,11,o),
(486,30,cs)
);
},
{
closed = 1;
nodes = (
(146,216,l),
(164,230,o),
(177,244,o),
(189,259,cs),
(361,472,ls),
(374,489,o),
(388,504,o),
(402,529,c),
(404,529,l),
(404,214,l),
(146,214,l)
);
}
);
width = 631;
},
{
layerId = m005;
width = 600;
}
);
unicode = 52;
}
{
glyphname = five;
kernLeft = five;
kernRight = five;
layers = (
{
layerId = m003;
shapes = (
{
closed = 1;
nodes = (
(438,-10,o),
(543,91,o),
(543,240,cs),
(543,391,o),
(429,473,o),
(308,473,cs),
(291,473,o),
(256,470,o),
(236,460,c),
(230,462,l),
(233,479,o),
(235,487,o),
(236,498,cs),
(241,532,l),
(436,532,ls),
(462,532,o),
(476,546,o),
(476,562,cs),
(476,630,ls),
(476,656,o),
(462,670,o),
(436,670,cs),
(131,670,ls),
(107,670,o),
(92,657,o),
(89,633,cs),
(50,365,ls),
(46,340,o),
(59,324,o),
(83,319,cs),
(172,299,ls),
(192,294,o),
(206,293,o),
(224,305,cs),
(241,316,o),
(260,330,o),
(287,330,cs),
(332,330,o),
(367,293,o),
(367,240,cs),
(367,190,o),
(332,156,o),
(285,156,cs),
(250,156,o),
(223,173,o),
(209,205,cs),
(199,228,o),
(188,240,o),
(165,240,cs),
(70,241,ls),
(43,241,o),
(27,225,o),
(33,198,cs),
(61,73,o),
(155,-10,o),
(284,-10,cs)
);
}
);
width = 593;
},
{
background = {
shapes = (
{
closed = 1;
nodes = (
(114,323,ls),
(133,316,o),
(146,329,o),
(160,344,cs),
(195,381,o),
(242,400,o),
(282,400,cs),
(371,400,o),
(439,335,o),
(439,230,cs),
(439,121,o),
(372,58,o),
(281,58,cs),
(199,58,o),
(141,106,o),
(129,191,cs),
(126,210,o),
(117,220,o),
(98,220,cs),
(70,220,ls),
(51,220,o),
(38,209,o),
(41,189,cs),
(55,72,o),
(147,-10,o),
(280,-10,cs),
(422,-10,o),
(519,91,o),
(519,230,cs),
(519,366,o),
(420,468,o),
(293,468,cs),
(229,468,o),
(175,438,o),
(147,413,c),
(142,415,l),
(151,454,o),
(156,475,o),
(159,500,cs),
(171,602,l),
(442,602,ls),
(461,602,o),
(472,613,o),
(472,632,cs),
(472,640,ls),
(472,659,o),
(461,670,o),
(442,670,cs),
(132,670,ls),
(109,670,o),
(95,654,o),
(94,640,cs),
(65,367,ls),
(63,349,o),
(68,340,o),
(87,333,cs)
);
}
);
};
layerId = m004;
shapes = (
{
closed = 1;
nodes = (
(422,-10,o),
(519,91,o),
(519,230,cs),
(519,366,o),
(420,468,o),
(293,468,cs),
(240,468,o),
(182,442,o),
(144,410,c),
(142,410,l),
(151,449,o),
(156,475,o),
(159,500,cs),
(171,602,l),
(442,602,ls),
(461,602,o),
(472,613,o),
(472,632,cs),
(472,640,ls),
(472,659,o),
(461,670,o),
(442,670,cs),
(141,670,ls),
(118,670,o),
(105,654,o),
(103,640,cs),
(65,367,ls),
(63,349,o),
(68,340,o),
(87,333,cs),
(114,323,ls),
(133,316,o),
(146,329,o),
(160,344,cs),
(195,381,o),
(242,400,o),
(282,400,cs),
(371,400,o),
(439,335,o),
(439,230,cs),
(439,121,o),
(372,58,o),
(281,58,cs),
(199,58,o),
(141,106,o),
(129,191,cs),
(126,210,o),
(117,220,o),
(98,220,cs),
(70,220,ls),
(51,220,o),
(38,209,o),
(41,189,cs),
(55,72,o),
(147,-10,o),
(280,-10,cs)
);
}
);
width = 577;
},
{
background = {
shapes = (
{
closed = 1;
nodes = (
(110,323,ls),
(129,316,o),
(142,329,o),
(156,344,cs),
(191,381,o),
(238,400,o),
(278,400,cs),
(367,400,o),
(435,335,o),
(435,230,cs),
(435,121,o),
(368,58,o),
(277,58,cs),
(195,58,o),
(137,106,o),
(125,191,cs),
(122,210,o),
(113,220,o),
(94,220,cs),
(66,220,ls),
(47,220,o),
(34,209,o),
(37,189,cs),
(51,72,o),
(143,-10,o),
(276,-10,cs),
(418,-10,o),
(515,91,o),
(515,230,cs),
(515,366,o),
(416,468,o),
(289,468,cs),
(225,468,o),
(171,438,o),
(143,413,c),
(138,415,l),
(147,454,o),
(152,475,o),
(155,500,cs),
(167,602,l),
(438,602,ls),
(457,602,o),
(468,613,o),
(468,632,cs),
(468,640,ls),
(468,659,o),
(457,670,o),
(438,670,cs),
(128,670,ls),
(105,670,o),
(91,654,o),
(90,640,cs),
(61,367,ls),
(59,349,o),
(64,340,o),
(83,333,cs)
);
}
);
};
layerId = m005;
shapes = (
{
closed = 1;
nodes = (
(410,-7,o),
(502,79,o),
(502,220,cs),
(502,359,o),
(408,445,o),
(288,445,cs),
(225,445,o),
(157,415,o),
(114,369,c),
(112,370,l),
(121,432,o),
(122,447,o),
(126,482,cs),
(144,636,l),
(432,636,ls),
(436,636,o),
(438,638,o),
(438,642,cs),
(438,650,ls),
(438,654,o),
(435,656,o),
(432,656,cs),
(131,656,ls),
(128,656,o),
(124,653,o),
(124,650,cs),
(90,351,ls),
(90,347,o),
(91,345,o),
(95,345,cs),
(111,344,ls),
(114,344,o),
(116,345,o),
(118,347,cs),
(170,403,o),
(229,425,o),
(288,425,cs),
(397,425,o),
(480,347,o),
(480,220,cs),
(480,89,o),
(393,13,o),
(276,13,cs),
(173,13,o),
(101,68,o),
(83,167,cs),
(82,171,o),
(79,173,o),
(76,173,cs),
(66,173,ls),
(62,173,o),
(60,171,o),
(61,167,cs),
(76,64,o),
(158,-7,o),
(276,-7,cs)
);
}
);
width = 576;
}
);
unicode = 53;
}
{
export = 0;
glyphname = six;
layers = (
{
layerId = m003;
shapes = (
{
closed = 1;
nodes = (
(302,439,o),
(287,435,o),
(277,431,c),
(274,434,l),
(292,454,o),
(312,477,o),
(327,498,cs),
(420,631,ls),
(441,661,o),
(433,680,o),
(395,680,cs),
(288,680,ls),
(267,680,o),
(252,672,o),
(240,654,cs),
(89,427,ls),
(28,335,o),
(19,254,o),
(20,220,cs),
(20,87,o),
(122,-10,o),
(273,-10,cs),
(421,-10,o),
(522,87,o),
(522,220,cs),
(522,345,o),
(434,439,o),
(322,439,cs)
);
},
{
closed = 1;
nodes = (
(317,308,o),
(350,273,o),
(350,219,cs),
(350,163,o),
(317,130,o),
(272,130,cs),
(226,130,o),
(192,163,o),
(192,219,cs),
(192,273,o),
(226,308,o),
(272,308,cs)
);
}
);
width = 572;
},
{
background = {
shapes = (
{
closed = 1;
nodes = (
(267,448,o),
(238,435,o),
(219,419,c),
(216,422,l),
(233,443,o),
(255,466,o),
(270,488,cs),
(373,640,ls),
(386,659,o),
(378,670,o),
(356,670,cs),
(334,670,ls),
(315,670,o),
(298,659,o),
(286,640,cs),
(107,367,ls),
(59,294,o),
(57,247,o),
(58,220,cs),
(58,87,o),
(156,-10,o),
(301,-10,cs),
(443,-10,o),
(540,87,o),
(540,220,cs),
(540,350,o),
(437,448,o),
(305,448,cs)
);
},
{
closed = 1;
nodes = (
(393,380,o),
(460,319,o),
(460,220,cs),
(460,117,o),
(393,58,o),
(302,58,cs),
(206,58,o),
(138,117,o),
(138,220,cs),
(138,319,o),
(206,380,o),
(302,380,cs)
);
}
);
};
layerId = m004;
shapes = (
{
closed = 1;
nodes = (
(267,448,o),
(228,433,o),
(209,417,c),
(234,443,o),
(255,466,o),
(270,488,cs),
(373,640,ls),
(386,659,o),
(378,670,o),
(356,670,cs),
(334,670,ls),
(315,670,o),
(298,659,o),
(286,640,cs),
(107,367,ls),
(59,294,o),
(57,247,o),
(58,220,cs),
(58,87,o),
(156,-10,o),
(301,-10,cs),
(443,-10,o),
(540,87,o),
(540,220,cs),
(540,350,o),
(437,448,o),
(305,448,cs)
);
},
{
closed = 1;
nodes = (
(393,380,o),
(460,319,o),
(460,220,cs),
(460,117,o),
(393,58,o),
(302,58,cs),
(206,58,o),
(138,117,o),
(138,220,cs),
(138,319,o),
(206,380,o),
(302,380,cs)
);
}
);
width = 598;
},
{
background = {
shapes = (
{
closed = 1;
nodes = (
(267,448,o),
(238,435,o),
(219,419,c),
(216,422,l),
(233,443,o),
(255,466,o),
(270,488,cs),
(373,640,ls),
(386,659,o),
(378,670,o),
(356,670,cs),
(334,670,ls),
(315,670,o),
(298,659,o),
(286,640,cs),
(107,367,ls),
(59,294,o),
(57,247,o),
(58,220,cs),
(58,87,o),
(156,-10,o),
(301,-10,cs),
(443,-10,o),
(540,87,o),
(540,220,cs),
(540,350,o),
(437,448,o),
(305,448,cs)
);
},
{
closed = 1;
nodes = (
(393,380,o),
(460,319,o),
(460,220,cs),
(460,117,o),
(393,58,o),
(302,58,cs),
(206,58,o),
(138,117,o),
(138,220,cs),
(138,319,o),
(206,380,o),
(302,380,cs)
);
}
);
};
layerId = m005;
shapes = (
{
closed = 1;
nodes = (
(267,448,o),
(228,433,o),
(209,417,c),
(234,443,o),
(255,466,o),
(270,488,cs),
(373,640,ls),
(386,659,o),
(378,670,o),
(356,670,cs),
(334,670,ls),
(315,670,o),
(298,659,o),
(286,640,cs),
(107,367,ls),
(59,294,o),
(57,247,o),
(58,220,cs),
(58,87,o),
(156,-10,o),
(301,-10,cs),
(443,-10,o),
(540,87,o),
(540,220,cs),
(540,350,o),
(437,448,o),
(305,448,cs)
);
},
{
closed = 1;
nodes = (
(393,380,o),
(460,319,o),
(460,220,cs),
(460,117,o),
(393,58,o),
(302,58,cs),
(206,58,o),
(138,117,o),
(138,220,cs),
(138,319,o),
(206,380,o),
(302,380,cs)
);
}
);
width = 598;
}
);
unicode = 54;
}
{
export = 0;
glyphname = seven;
layers = (
{
layerId = m003;
width = 600;
},
{
layerId = m004;
shapes = (
{
closed = 1;
nodes = (
(461,634,ls),
(471,658,o),
(462,670,o),
(440,670,cs),
(51,670,ls),
(32,670,o),
(21,659,o),
(21,640,cs),
(21,632,ls),
(21,613,o),
(32,602,o),
(51,602,cs),
(360,602,l),
(123,37,ls),
(113,13,o),
(131,0,o),
(150,0,cs),
(172,0,ls),
(191,0,o),
(202,13,o),
(209,30,cs)
);
}
);
width = 526;
},
{
layerId = m005;
width = 600;
}
);
unicode = 55;
}
{
glyphname = eight;
kernLeft = eight;
kernRight = eight;
layers = (
{
layerId = m003;
shapes = (
{
closed = 1;
nodes = (
(470,-16,o),
(591,74,o),
(591,202,cs),
(591,271,o),
(551,332,o),
(472,366,c),
(472,368,l),
(524,396,o),
(553,447,o),
(553,504,cs),
(553,611,o),
(462,690,o),
(326,690,cs),
(183,690,o),
(91,611,o),
(91,504,cs),
(91,447,o),
(121,396,o),
(174,368,c),
(174,366,l),
(94,332,o),
(53,271,o),
(53,202,cs),
(53,74,o),
(167,-16,o),
(319,-16,cs)
);
},
{
closed = 1;
nodes = (
(276,133,o),
(243,165,o),
(243,209,cs),
(243,253,o),
(276,286,o),
(322,286,cs),
(368,286,o),
(401,253,o),
(401,209,cs),
(401,165,o),
(368,133,o),
(322,133,cs)
);
},
{
closed = 1;
nodes = (
(290,431,o),
(257,455,o),
(257,493,cs),
(257,531,o),
(290,558,o),
(322,558,cs),
(354,558,o),
(387,531,o),
(387,493,cs),
(387,455,o),
(354,431,o),
(322,431,cs)
);
}
);
width = 644;
},
{
background = {
shapes = (
{
closed = 1;
nodes = (
(413,-10,o),
(509,72,o),
(509,188,cs),
(509,264,o),
(458,330,o),
(378,361,c),
(378,365,l),
(438,385,o),
(480,445,o),
(480,505,cs),
(480,606,o),
(398,680,o),
(286,680,cs),
(168,680,o),
(89,605,o),
(89,504,cs),
(89,444,o),
(129,383,o),
(193,365,c),
(193,361,l),
(115,338,o),
(61,262,o),
(61,188,cs),
(61,72,o),
(158,-10,o),
(286,-10,cs)
);
},
{
closed = 1;
nodes = (
(207,56,o),
(141,108,o),
(141,191,cs),
(141,277,o),
(211,327,o),
(286,327,cs),
(361,327,o),
(429,277,o),
(429,191,cs),
(429,108,o),
(365,56,o),
(286,56,cs)
);
},
{
closed = 1;
nodes = (
(218,393,o),
(167,435,o),
(167,505,cs),
(167,574,o),
(218,614,o),
(286,614,cs),
(354,614,o),
(402,574,o),
(402,505,cs),
(402,435,o),
(350,393,o),
(286,393,cs)
);
}
);
};
layerId = m004;
shapes = (
{
closed = 1;
nodes = (
(414,-10,o),
(511,72,o),
(511,188,cs),
(511,261,o),
(465,336,o),
(373,361,c),
(373,363,l),
(441,383,o),
(483,445,o),
(483,504,cs),
(483,605,o),
(404,680,o),
(286,680,cs),
(168,680,o),
(89,605,o),
(89,504,cs),
(89,445,o),
(131,383,o),
(199,363,c),
(199,361,l),
(107,336,o),
(61,261,o),
(61,188,cs),
(61,72,o),
(158,-10,o),
(286,-10,cs)
);
},
{
closed = 1;
nodes = (
(208,56,o),
(143,108,o),
(143,191,cs),
(143,278,o),
(212,328,o),
(286,328,cs),
(360,328,o),
(429,278,o),
(429,191,cs),
(429,108,o),
(364,56,o),
(286,56,cs)
);
},
{
closed = 1;
nodes = (
(220,392,o),
(170,434,o),
(170,505,cs),
(170,574,o),
(220,614,o),
(286,614,cs),
(352,614,o),
(402,574,o),
(402,505,cs),
(402,434,o),
(352,392,o),
(286,392,cs)
);
}
);
width = 572;
},
{
background = {
shapes = (
{
closed = 1;
nodes = (
(408,-10,o),
(502,70,o),
(502,184,cs),
(502,263,o),
(478,314,o),
(370,354,c),
(429,373,o),
(474,435,o),
(474,494,cs),
(474,593,o),
(394,665,o),
(284,665,cs),
(169,665,o),
(91,592,o),
(91,493,cs),
(91,434,o),
(131,371,o),
(193,354,c),
(117,330,o),
(64,256,o),
(64,184,cs),
(64,70,o),
(159,-10,o),
(284,-10,cs)
);
},
{
closed = 1;
nodes = (
(178,4,o),
(88,73,o),
(88,187,cs),
(88,303,o),
(183,371,o),
(284,371,cs),
(386,371,o),
(478,303,o),
(478,187,cs),
(478,73,o),
(391,4,o),
(284,4,cs)
);
},
{
closed = 1;
nodes = (
(190,338,o),
(119,396,o),
(119,495,cs),
(119,590,o),
(190,646,o),
(284,646,cs),
(380,646,o),
(447,590,o),
(447,495,cs),
(447,396,o),
(374,338,o),
(284,338,cs)
);
}
);
};
layerId = m005;
shapes = (
{
closed = 1;
nodes = (
(401,-10,o),
(489,67,o),
(489,176,cs),
(489,253,o),
(437,328,o),
(347,352,c),
(347,354,l),
(414,374,o),
(464,433,o),
(464,507,cs),
(464,609,o),
(388,671,o),
(284,671,cs),
(180,671,o),
(104,609,o),
(104,507,cs),
(104,433,o),
(154,374,o),
(221,354,c),
(221,352,l),
(132,328,o),
(79,253,o),
(79,176,cs),
(79,67,o),
(167,-10,o),
(284,-10,cs)
);
},
{
closed = 1;
nodes = (
(186,10,o),
(101,73,o),
(101,176,cs),
(101,281,o),
(189,342,o),
(284,342,cs),
(379,342,o),
(467,281,o),
(467,176,cs),
(467,73,o),
(382,10,o),
(284,10,cs)
);
},
{
closed = 1;
nodes = (
(194,362,o),
(126,423,o),
(126,507,cs),
(126,601,o),
(195,651,o),
(284,651,cs),
(373,651,o),
(442,601,o),
(442,507,cs),
(442,423,o),
(374,362,o),
(284,362,cs)
);
}
);
width = 569;
}
);
unicode = 56;
userData = {
KernOnName = eight;
};
}
{
glyphname = nine;
kernLeft = nine;
kernRight = nine;
layers = (
{
layerId = m003;
shapes = (
{
closed = 1;
nodes = (
(274,0,ls),
(295,0,o),
(310,8,o),
(322,26,cs),
(473,253,ls),
(534,345,o),
(543,426,o),
(542,460,cs),
(542,593,o),
(440,690,o),
(289,690,cs),
(141,690,o),
(40,593,o),
(40,460,cs),
(40,335,o),
(128,241,o),
(240,241,cs),
(260,241,o),
(275,245,o),
(285,249,c),
(288,246,l),
(270,226,o),
(250,203,o),
(235,182,cs),
(142,49,ls),
(121,19,o),
(129,0,o),
(167,0,cs)
);
},
{
closed = 1;
nodes = (
(245,372,o),
(212,407,o),
(212,461,cs),
(212,517,o),
(245,550,o),
(290,550,cs),
(336,550,o),
(370,517,o),
(370,461,cs),
(370,407,o),
(336,372,o),
(290,372,cs)
);
}
);
width = 586;
},
{
background = {
shapes = (
{
closed = 1;
nodes = (
(320,222,o),
(349,235,o),
(368,251,c),
(371,248,l),
(354,227,o),
(332,204,o),
(317,182,cs),
(214,30,ls),
(201,11,o),
(209,0,o),
(231,0,cs),
(253,0,ls),
(272,0,o),
(289,11,o),
(301,30,cs),
(480,303,ls),
(528,376,o),
(530,423,o),
(529,450,cs),
(529,583,o),
(431,680,o),
(286,680,cs),
(144,680,o),
(47,583,o),
(47,450,cs),
(47,320,o),
(150,222,o),
(282,222,cs)
);
},
{
closed = 1;
nodes = (
(194,290,o),
(127,352,o),
(127,450,cs),
(127,553,o),
(194,612,o),
(285,612,cs),
(381,612,o),
(449,553,o),
(449,450,cs),
(449,352,o),
(381,290,o),
(285,290,cs)
);
}
);
};
layerId = m004;
shapes = (
{
closed = 1;
nodes = (
(253,0,ls),
(272,0,o),
(289,11,o),
(301,30,cs),
(480,303,ls),
(528,376,o),
(530,423,o),
(529,450,cs),
(529,583,o),
(431,680,o),
(286,680,cs),
(144,680,o),
(47,583,o),
(47,450,cs),
(47,320,o),
(150,222,o),
(282,222,cs),
(313,222,o),
(343,234,o),
(368,251,c),
(370,249,l),
(348,225,o),
(331,202,o),
(317,182,cs),
(214,30,ls),
(201,11,o),
(209,0,o),
(231,0,cs)
);
},
{
closed = 1;
nodes = (
(194,290,o),
(127,352,o),
(127,450,cs),
(127,553,o),
(194,612,o),
(285,612,cs),
(381,612,o),
(449,553,o),
(449,450,cs),
(449,352,o),
(381,290,o),
(285,290,cs)
);
}
);
width = 580;
},
{
background = {
shapes = (
{
closed = 1;
nodes = (
(354,222,o),
(383,235,o),
(402,251,c),
(405,248,l),
(388,227,o),
(366,204,o),
(351,182,cs),
(248,30,ls),
(235,11,o),
(243,0,o),
(265,0,cs),
(287,0,ls),
(306,0,o),
(323,11,o),
(335,30,cs),
(514,303,ls),
(562,376,o),
(564,423,o),
(563,450,cs),
(563,583,o),
(465,680,o),
(320,680,cs),
(178,680,o),
(81,583,o),
(81,450,cs),
(81,320,o),
(184,222,o),
(316,222,cs)
);
},
{
closed = 1;
nodes = (
(228,290,o),
(161,352,o),
(161,450,cs),
(161,553,o),
(228,612,o),
(319,612,cs),
(415,612,o),
(483,553,o),
(483,450,cs),
(483,352,o),
(415,290,o),
(319,290,cs)
);
}
);
};
layerId = m005;
shapes = (
{
closed = 1;
nodes = (
(261,0,ls),
(264,0,o),
(267,2,o),
(269,4,cs),
(475,312,ls),
(520,380,o),
(522,424,o),
(521,450,cs),
(521,575,o),
(429,666,o),
(292,666,cs),
(159,666,o),
(67,575,o),
(67,450,cs),
(67,328,o),
(164,235,o),
(288,235,cs),
(339,235,o),
(390,252,o),
(419,270,c),
(421,269,l),
(401,243,o),
(387,221,o),
(372,198,cs),
(245,6,ls),
(242,2,o),
(244,0,o),
(249,0,cs)
);
},
{
closed = 1;
nodes = (
(175,256,o),
(89,330,o),
(89,450,cs),
(89,574,o),
(175,646,o),
(290,646,cs),
(412,646,o),
(499,574,o),
(499,450,cs),
(499,330,o),
(410,254,o),
(290,255,cs)
);
}
);
width = 590;
}
);
unicode = 57;
}
{
glyphname = colon;
kernLeft = colon;
kernRight = colon;
layers = (
{
layerId = m005;
shapes = (
{
closed = 1;
nodes = (
(136,465,o),
(145,474,o),
(145,487,cs),
(145,503,o),
(136,510,o),
(122,510,cs),
(109,510,o),
(100,503,o),
(100,487,cs),
(100,474,o),
(109,465,o),
(122,465,cs)
);
},
{
closed = 1;
nodes = (
(136,-10,o),
(145,-1,o),
(145,12,cs),
(145,28,o),
(136,35,o),
(122,35,cs),
(109,35,o),
(100,28,o),
(100,12,cs),
(100,-1,o),
(109,-10,o),
(122,-10,cs)
);
}
);
width = 245;
},
{
layerId = m004;
shapes = (
{
closed = 1;
nodes = (
(165,401,o),
(187,422,o),
(187,454,cs),
(187,493,o),
(165,510,o),
(131,510,cs),
(99,510,o),
(78,493,o),
(78,454,cs),
(78,422,o),
(99,401,o),
(131,401,cs)
);
},
{
closed = 1;
nodes = (
(165,-10,o),
(187,11,o),
(187,43,cs),
(187,82,o),
(165,99,o),
(131,99,cs),
(99,99,o),
(78,82,o),
(78,43,cs),
(78,11,o),
(99,-10,o),
(131,-10,cs)
);
}
);
width = 265;
},
{
layerId = m003;
shapes = (
{
closed = 1;
nodes = (
(226,324,o),
(264,360,o),
(264,417,cs),
(264,487,o),
(226,516,o),
(165,516,cs),
(108,516,o),
(72,487,o),
(72,417,cs),
(72,360,o),
(108,324,o),
(165,324,cs)
);
},
{
closed = 1;
nodes = (
(226,-16,o),
(264,20,o),
(264,77,cs),
(264,147,o),
(226,176,o),
(165,176,cs),
(108,176,o),
(72,147,o),
(72,77,cs),
(72,20,o),
(108,-16,o),
(165,-16,cs)
);
}
);
width = 336;
}
);
metricRight = "=|";
unicode = 58;
userData = {
KernOnSpecialSpacing = {
L = "spaced-off";
R = "spaced-off";
};
};
}
{
glyphname = semicolon;
layers = (
{
layerId = m005;
shapes = (
{
closed = 0;
nodes = (
(10,101,l),
(10,15,o),
(10,-53,o),
(10,-103,cs)
);
},
{
closed = 0;
nodes = (
(10,495,l),
(10,400,l)
);
}
);
width = 230;
},
{
layerId = m004;
width = 600;
},
{
layerId = m003;
width = 600;
}
);
unicode = 59;
}
{
glyphname = less;
kernLeft = plus;
kernRight = plus;
layers = (
{
layerId = m005;
shapes = (
{
closed = 1;
nodes = (
(411,178,o),
(414,181,o),
(414,185,cs),
(414,195,ls),
(414,199,o),
(413,201,o),
(410,202,cs),
(123,367,l),
(410,531,ls),
(413,532,o),
(414,534,o),
(414,538,cs),
(414,549,ls),
(414,553,o),
(411,556,o),
(407,553,cs),
(100,377,ls),
(97,376,o),
(96,374,o),
(96,370,cs),
(96,364,ls),
(96,360,o),
(97,358,o),
(100,357,cs),
(407,181,ls)
);
}
);
width = 510;
},
{
layerId = m004;
shapes = (
{
closed = 1;
nodes = (
(364,166,o),
(377,174,o),
(377,194,cs),
(377,222,ls),
(377,236,o),
(372,245,o),
(360,252,cs),
(156,369,l),
(359,481,ls),
(371,488,o),
(377,497,o),
(377,511,cs),
(377,539,ls),
(377,558,o),
(364,566,o),
(347,556,cs),
(84,407,ls),
(72,400,o),
(67,391,o),
(67,377,cs),
(67,357,ls),
(67,343,o),
(72,334,o),
(84,327,cs),
(347,176,ls)
);
}
);
width = 470;
},
{
layerId = m003;
shapes = (
{
closed = 1;
nodes = (
(351,120,o),
(372,130,o),
(372,162,cs),
(372,205,ls),
(372,227,o),
(364,243,o),
(344,252,cs),
(179,329,l),
(344,406,ls),
(364,415,o),
(372,431,o),
(372,453,cs),
(372,495,ls),
(372,527,o),
(352,537,o),
(324,523,cs),
(85,402,ls),
(66,392,o),
(57,378,o),
(57,354,cs),
(57,309,ls),
(57,286,o),
(66,271,o),
(85,261,cs),
(324,134,ls)
);
}
);
width = 462;
}
);
unicode = 60;
userData = {
KernOnSpecialSpacing = {
L = math;
R = math;
};
};
}
{
glyphname = equal;
kernLeft = plus;
kernRight = plus;
layers = (
{
background = {
shapes = (
{
closed = 0;
nodes = (
(126,466,l),
(467,466,l)
);
},
{
closed = 0;
nodes = (
(126,266,l),
(467,266,l)
);
}
);
};
layerId = m005;
shapes = (
{
closed = 1;
nodes = (
(461,425,ls),
(465,425,o),
(467,427,o),
(467,431,cs),
(467,439,ls),
(467,443,o),
(465,445,o),
(461,445,cs),
(132,445,ls),
(128,445,o),
(126,443,o),
(126,439,cs),
(126,431,ls),
(126,427,o),
(129,425,o),
(132,425,cs)
);
},
{
closed = 1;
nodes = (
(461,286,ls),
(465,286,o),
(467,288,o),
(467,292,cs),
(467,300,ls),
(467,304,o),
(465,306,o),
(461,306,cs),
(132,306,ls),
(128,306,o),
(126,304,o),
(126,300,cs),
(126,292,ls),
(126,288,o),
(129,286,o),
(132,286,cs)
);
}
);
width = 593;
},
{
layerId = m004;
shapes = (
{
closed = 1;
nodes = (
(423,396,ls),
(439,396,o),
(448,405,o),
(448,421,cs),
(448,437,ls),
(448,453,o),
(439,462,o),
(423,462,cs),
(144,462,ls),
(128,462,o),
(119,453,o),
(119,437,cs),
(119,421,ls),
(119,405,o),
(128,396,o),
(144,396,cs)
);
},
{
closed = 1;
nodes = (
(423,276,ls),
(439,276,o),
(448,285,o),
(448,301,cs),
(448,317,ls),
(448,333,o),
(439,342,o),
(423,342,cs),
(144,342,ls),
(128,342,o),
(119,333,o),
(119,317,cs),
(119,301,ls),
(119,285,o),
(128,276,o),
(144,276,cs)
);
}
);
width = 567;
},
{
layerId = m003;
shapes = (
{
closed = 1;
nodes = (
(422,386,ls),
(448,386,o),
(462,400,o),
(462,426,cs),
(462,452,ls),
(462,478,o),
(448,492,o),
(422,492,cs),
(153,492,ls),
(127,492,o),
(113,478,o),
(113,452,cs),
(113,426,ls),
(113,400,o),
(127,386,o),
(153,386,cs)
);
},
{
closed = 1;
nodes = (
(422,206,ls),
(448,206,o),
(462,220,o),
(462,246,cs),
(462,272,ls),
(462,298,o),
(448,312,o),
(422,312,cs),
(153,312,ls),
(127,312,o),
(113,298,o),
(113,272,cs),
(113,246,ls),
(113,220,o),
(127,206,o),
(153,206,cs)
);
}
);
width = 575;
}
);
metricRight = "=|";
unicode = 61;
userData = {
KernOnSpecialSpacing = {
L = math;
R = math;
};
};
}
{
glyphname = greater;
kernLeft = plus;
kernRight = plus;
layers = (
{
layerId = m005;
shapes = (
{
closed = 1;
nodes = (
(410,357,ls),
(413,358,o),
(414,360,o),
(414,364,cs),
(414,370,ls),
(414,374,o),
(413,376,o),
(410,377,cs),
(103,553,ls),
(99,556,o),
(96,553,o),
(96,549,cs),
(96,538,ls),
(96,534,o),
(97,532,o),
(100,531,cs),
(387,367,l),
(100,202,ls),
(97,201,o),
(96,199,o),
(96,195,cs),
(96,185,ls),
(96,181,o),
(99,178,o),
(103,181,cs)
);
}
);
width = 510;
},
{
layerId = m004;
shapes = (
{
closed = 1;
nodes = (
(386,327,ls),
(398,334,o),
(403,343,o),
(403,357,cs),
(403,377,ls),
(403,391,o),
(398,400,o),
(386,407,cs),
(123,556,ls),
(106,566,o),
(93,558,o),
(93,539,cs),
(93,511,ls),
(93,497,o),
(99,488,o),
(111,481,cs),
(314,369,l),
(110,252,ls),
(98,245,o),
(93,236,o),
(93,222,cs),
(93,194,ls),
(93,174,o),
(106,166,o),
(123,176,cs)
);
}
);
width = 496;
},
{
layerId = m003;
shapes = (
{
closed = 1;
nodes = (
(377,261,ls),
(396,271,o),
(405,286,o),
(405,309,cs),
(405,354,ls),
(405,378,o),
(396,392,o),
(377,402,cs),
(138,523,ls),
(110,537,o),
(90,527,o),
(90,495,cs),
(90,453,ls),
(90,431,o),
(98,415,o),
(118,406,cs),
(283,329,l),
(118,252,ls),
(98,243,o),
(90,227,o),
(90,205,cs),
(90,162,ls),
(90,130,o),
(111,120,o),
(138,134,cs)
);
}
);
width = 495;
}
);
metricRight = "=|";
unicode = 62;
userData = {
KernOnSpecialSpacing = {
L = math;
R = math;
};
};
}
{
glyphname = question;
kernLeft = question;
kernRight = question;
layers = (
{
layerId = m005;
shapes = (
{
closed = 1;
nodes = (
(230,160,ls),
(233,160,o),
(235,163,o),
(235,166,cs),
(235,227,ls),
(235,262,o),
(247,289,o),
(274,316,cs),
(352,392,ls),
(399,438,o),
(437,471,o),
(437,543,cs),
(437,642,o),
(363,710,o),
(257,710,cs),
(152,710,o),
(83,644,o),
(70,547,cs),
(69,543,o),
(71,541,o),
(75,541,cs),
(85,541,ls),
(88,541,o),
(91,543,o),
(92,547,cs),
(106,638,o),
(171,688,o),
(258,688,cs),
(347,688,o),
(415,637,o),
(415,543,cs),
(415,477,o),
(378,451,o),
(328,401,cs),
(256,330,ls),
(228,302,o),
(213,272,o),
(213,227,cs),
(213,166,ls),
(213,162,o),
(215,160,o),
(219,160,cs)
);
},
{
closed = 1;
nodes = (
(241,-10,o),
(250,-1,o),
(250,12,cs),
(250,28,o),
(241,35,o),
(227,35,cs),
(214,35,o),
(205,28,o),
(205,12,cs),
(205,-1,o),
(214,-10,o),
(227,-10,cs)
);
}
);
width = 520;
},
{
layerId = m004;
shapes = (
{
closed = 1;
nodes = (
(234,166,ls),
(250,166,o),
(259,175,o),
(259,191,cs),
(259,207,ls),
(259,247,o),
(279,272,o),
(308,300,cs),
(384,373,ls),
(436,423,o),
(478,466,o),
(478,540,cs),
(478,641,o),
(394,710,o),
(269,710,cs),
(161,710,o),
(73,647,o),
(48,552,cs),
(44,535,o),
(54,525,o),
(71,525,cs),
(102,525,ls),
(117,525,o),
(125,532,o),
(129,547,cs),
(149,610,o),
(205,644,o),
(270,644,cs),
(339,644,o),
(391,608,o),
(391,543,cs),
(391,489,o),
(355,456,o),
(311,414,cs),
(244,350,ls),
(205,313,o),
(185,274,o),
(185,207,cs),
(185,191,ls),
(185,175,o),
(194,166,o),
(210,166,cs)
);
},
{
closed = 1;
nodes = (
(260,-10,o),
(282,11,o),
(282,43,cs),
(282,82,o),
(260,99,o),
(226,99,cs),
(194,99,o),
(173,82,o),
(173,43,cs),
(173,11,o),
(194,-10,o),
(226,-10,cs)
);
}
);
width = 538;
},
{
background = {
shapes = (
{
closed = 1;
nodes = (
(229,166,ls),
(245,166,o),
(254,175,o),
(254,191,cs),
(254,207,ls),
(254,247,o),
(274,272,o),
(303,300,cs),
(379,373,ls),
(431,423,o),
(473,466,o),
(473,540,cs),
(473,641,o),
(389,710,o),
(264,710,cs),
(156,710,o),
(68,647,o),
(43,552,cs),
(39,535,o),
(49,525,o),
(66,525,cs),
(97,525,ls),
(112,525,o),
(120,532,o),
(124,547,cs),
(144,610,o),
(200,644,o),
(265,644,cs),
(334,644,o),
(386,608,o),
(386,543,cs),
(386,489,o),
(350,456,o),
(306,414,cs),
(239,350,ls),
(200,313,o),
(180,274,o),
(180,207,cs),
(180,191,ls),
(180,175,o),
(189,166,o),
(205,166,cs)
);
}
);
};
layerId = m003;
shapes = (
{
closed = 1;
nodes = (
(261,209,ls),
(286,209,o),
(302,224,o),
(302,249,cs),
(302,263,ls),
(302,303,o),
(326,319,o),
(360,346,cs),
(425,399,ls),
(474,439,o),
(509,479,o),
(509,545,cs),
(509,656,o),
(409,739,o),
(272,739,cs),
(137,739,o),
(55,651,o),
(38,553,cs),
(33,527,o),
(50,512,o),
(76,512,cs),
(152,512,ls),
(176,512,o),
(181,525,o),
(188,546,cs),
(202,591,o),
(239,609,o),
(272,609,cs),
(318,609,o),
(348,587,o),
(348,544,cs),
(348,526,o),
(339,510,o),
(308,479,cs),
(241,412,ls),
(200,371,o),
(161,339,o),
(161,279,cs),
(161,249,ls),
(161,223,o),
(175,209,o),
(201,209,cs)
);
},
{
closed = 1;
nodes = (
(285,-16,o),
(320,17,o),
(320,71,cs),
(320,137,o),
(285,164,o),
(227,164,cs),
(173,164,o),
(140,137,o),
(140,71,cs),
(140,17,o),
(173,-16,o),
(227,-16,cs)
);
}
);
width = 560;
}
);
unicode = 63;
userData = {
KernOnSpecialSpacing = {
L = "spaced-off";
};
};
}
{
glyphname = bracketleft;
layers = (
{
layerId = m005;
shapes = (
{
closed = 0;
nodes = (
(239,748,l),
(120,748,l),
(120,-126,l),
(239,-126,l)
);
}
);
width = 339;
},
{
layerId = m004;
width = 600;
},
{
layerId = m003;
width = 600;
}
);
unicode = 91;
}
{
glyphname = backslash;
kernLeft = backslash;
kernRight = backslash;
layers = (
{
layerId = m005;
shapes = (
{
closed = 1;
nodes = (
(446,-57,ls),
(450,-57,o),
(453,-54,o),
(451,-50,cs),
(56,741,ls),
(54,746,o),
(52,746,o),
(48,746,cs),
(38,746,ls),
(34,746,o),
(31,743,o),
(33,738,cs),
(428,-53,ls),
(430,-57,o),
(432,-57,o),
(435,-57,cs)
);
}
);
width = 484;
},
{
layerId = m004;
shapes = (
{
closed = 1;
nodes = (
(457,-59,ls),
(476,-59,o),
(484,-46,o),
(475,-29,cs),
(96,738,ls),
(90,750,o),
(81,756,o),
(67,756,cs),
(35,756,ls),
(16,756,o),
(9,743,o),
(17,726,cs),
(396,-41,ls),
(402,-53,o),
(411,-59,o),
(425,-59,cs)
);
}
);
width = 493;
},
{
layerId = m003;
shapes = (
{
closed = 1;
nodes = (
(499,-78,ls),
(530,-78,o),
(541,-58,o),
(528,-31,cs),
(147,741,ls),
(137,761,o),
(122,770,o),
(100,770,cs),
(42,770,ls),
(11,770,o),
(-1,750,o),
(12,723,cs),
(393,-49,ls),
(403,-69,o),
(418,-78,o),
(440,-78,cs)
);
}
);
width = 540;
}
);
metricRight = "=|";
unicode = 92;
userData = {
KernOnName = backslash;
KernOnSpecialSpacing = {
L = "spaced-off";
R = "spaced-off";
};
};
}
{
export = 0;
glyphname = asciicircum;
layers = (
{
layerId = m005;
shapes = (
{
closed = 0;
nodes = (
(90,409,l),
(260,700,l),
(431,409,l)
);
}
);
width = 521;
},
{
layerId = m004;
width = 600;
},
{
layerId = m003;
width = 600;
}
);
metricRight = "=|";
unicode = 94;
}
{
glyphname = underscore;
layers = (
{
layerId = m005;
shapes = (
{
closed = 0;
nodes = (
(10,-30,l),
(10,-30,l)
);
}
);
width = 20;
},
{
layerId = m004;
width = 600;
},
{
layerId = m003;
width = 600;
}
);
metricRight = "=|";
unicode = 95;
}
{
glyphname = braceleft;
layers = (
{
layerId = m005;
shapes = (
{
closed = 0;
nodes = (
(241,748,l),
(-43,624,o),
(366,374,o),
(100,311,c)
);
},
{
closed = 0;
nodes = (
(100,311,l),
(366,248,o),
(-43,-2,o),
(241,-126,c)
);
}
);
width = 321;
},
{
layerId = m004;
width = 600;
},
{
layerId = m003;
width = 600;
}
);
unicode = 123;
}
{
glyphname = asciitilde;
kernLeft = plus;
kernRight = plus;
layers = (
{
layerId = m005;
shapes = (
{
closed = 1;
nodes = (
(442,308,o),
(466,331,o),
(482,391,cs),
(483,395,o),
(482,397,o),
(478,398,cs),
(468,400,ls),
(465,401,o),
(462,399,o),
(460,395,cs),
(447,344,o),
(430,328,o),
(401,328,cs),
(348,328,o),
(278,413,o),
(210,413,cs),
(168,413,o),
(138,390,o),
(122,327,cs),
(121,323,o),
(122,321,o),
(126,320,cs),
(136,318,ls),
(139,317,o),
(142,319,o),
(143,323,cs),
(158,377,o),
(179,393,o),
(210,393,cs),
(268,393,o),
(335,308,o),
(401,308,cs)
);
}
);
width = 604;
},
{
layerId = m004;
shapes = (
{
closed = 1;
nodes = (
(432,300,o),
(468,329,o),
(489,388,cs),
(495,406,o),
(491,414,o),
(467,419,cs),
(447,423,ls),
(433,426,o),
(419,420,o),
(415,406,cs),
(409,384,o),
(393,368,o),
(376,368,cs),
(328,368,o),
(285,423,o),
(205,423,cs),
(160,423,o),
(117,389,o),
(99,327,cs),
(94,310,o),
(99,303,o),
(116,300,cs),
(142,295,ls),
(156,292,o),
(163,300,o),
(168,314,cs),
(177,339,o),
(195,355,o),
(215,355,cs),
(267,355,o),
(309,300,o),
(386,300,cs)
);
}
);
width = 588;
},
{
layerId = m003;
shapes = (
{
closed = 1;
nodes = (
(473,260,o),
(527,303,o),
(537,388,cs),
(539,406,o),
(539,417,o),
(515,419,cs),
(455,423,ls),
(441,424,o),
(427,420,o),
(423,406,cs),
(419,390,o),
(407,378,o),
(394,378,cs),
(346,378,o),
(303,423,o),
(223,423,cs),
(165,423,o),
(102,374,o),
(87,287,cs),
(84,270,o),
(87,262,o),
(104,260,cs),
(170,255,ls),
(184,254,o),
(191,260,o),
(196,274,cs),
(203,293,o),
(217,305,o),
(233,305,cs),
(285,305,o),
(337,260,o),
(414,260,cs)
);
}
);
width = 624;
}
);
metricRight = "=|";
unicode = 126;
userData = {
KernOnSpecialSpacing = {
L = math;
R = math;
};
};
}
{
glyphname = guillemetleft;
layers = (
{
layerId = m005;
shapes = (
{
closed = 0;
nodes = (
(368,464,l),
(240,307,l),
(368,150,l)
);
},
{
closed = 0;
nodes = (
(228,464,l),
(100,307,l),
(228,150,l)
);
}
);
width = 488;
},
{
layerId = m004;
width = 600;
},
{
layerId = m003;
width = 600;
}
);
metricLeft = guilsinglleft;
metricRight = guilsinglleft;
unicode = 171;
}
{
glyphname = logicalnot;
layers = (
{
layerId = m005;
shapes = (
{
closed = 0;
nodes = (
(90,396,l),
(431,396,l),
(431,207,l)
);
}
);
width = 571;
},
{
layerId = m004;
width = 600;
},
{
layerId = m003;
width = 600;
}
);
unicode = 172;
}
{
glyphname = plusminus;
layers = (
{
layerId = m005;
shapes = (
{
closed = 0;
nodes = (
(260,553,l),
(260,238,l)
);
},
{
closed = 0;
nodes = (
(90,396,l),
(431,396,l)
);
},
{
closed = 0;
nodes = (
(90,136,l),
(431,136,l)
);
}
);
width = 571;
},
{
layerId = m004;
width = 600;
},
{
layerId = m003;
width = 600;
}
);
unicode = 177;
}
{
export = 0;
glyphname = micro;
layers = (
{
layerId = m005;
shapes = (
{
closed = 0;
nodes = (
(120,500,l),
(120,-200,l)
);
},
{
closed = 0;
nodes = (
(434,500,l),
(434,234,ls),
(434,50,o),
(377,0,o),
(285,0,cs),
(225,0,o),
(170,22,o),
(120,68,cs)
);
}
);
width = 534;
},
{
layerId = m004;
width = 600;
},
{
layerId = m003;
width = 600;
}
);
metricLeft = "=120";
metricRight = "=100";
unicode = 181;
}
{
glyphname = multiply;
layers = (
{
layerId = m005;
shapes = (
{
closed = 0;
nodes = (
(401,513,l),
(130,218,l)
);
},
{
closed = 0;
nodes = (
(132,511,l),
(400,220,l)
);
}
);
width = 531;
},
{
layerId = m004;
width = 600;
},
{
layerId = m003;
width = 600;
}
);
metricRight = "=|";
unicode = 215;
}
{
glyphname = divide;
kernLeft = plus;
kernRight = plus;
layers = (
{
layerId = m005;
shapes = (
{
closed = 1;
nodes = (
(422,356,ls),
(426,356,o),
(428,358,o),
(428,362,cs),
(428,370,ls),
(428,374,o),
(426,376,o),
(422,376,cs),
(93,376,ls),
(89,376,o),
(87,374,o),
(87,370,cs),
(87,362,ls),
(87,358,o),
(90,356,o),
(93,356,cs)
);
},
{
closed = 1;
nodes = (
(271,189,o),
(280,198,o),
(280,211,cs),
(280,227,o),
(271,234,o),
(257,234,cs),
(244,234,o),
(235,227,o),
(235,211,cs),
(235,198,o),
(244,189,o),
(257,189,cs)
);
},
{
closed = 1;
nodes = (
(271,498,o),
(280,507,o),
(280,520,cs),
(280,536,o),
(271,543,o),
(257,543,cs),
(244,543,o),
(235,536,o),
(235,520,cs),
(235,507,o),
(244,498,o),
(257,498,cs)
);
}
);
width = 515;
},
{
layerId = m004;
shapes = (
{
closed = 1;
nodes = (
(374,336,ls),
(390,336,o),
(399,345,o),
(399,361,cs),
(399,377,ls),
(399,393,o),
(390,402,o),
(374,402,cs),
(95,402,ls),
(79,402,o),
(70,393,o),
(70,377,cs),
(70,361,ls),
(70,345,o),
(79,336,o),
(95,336,cs)
);
},
{
closed = 1;
nodes = (
(266,178,o),
(288,199,o),
(288,231,cs),
(288,270,o),
(266,287,o),
(232,287,cs),
(200,287,o),
(179,270,o),
(179,231,cs),
(179,199,o),
(200,178,o),
(232,178,cs)
);
},
{
closed = 1;
nodes = (
(266,451,o),
(288,472,o),
(288,504,cs),
(288,543,o),
(266,560,o),
(232,560,cs),
(200,560,o),
(179,543,o),
(179,504,cs),
(179,472,o),
(200,451,o),
(232,451,cs)
);
}
);
width = 469;
},
{
layerId = m003;
shapes = (
{
closed = 1;
nodes = (
(370,296,ls),
(396,296,o),
(410,310,o),
(410,336,cs),
(410,362,ls),
(410,388,o),
(396,402,o),
(370,402,cs),
(101,402,ls),
(75,402,o),
(61,388,o),
(61,362,cs),
(61,336,ls),
(61,310,o),
(75,296,o),
(101,296,cs)
);
},
{
closed = 1;
nodes = (
(282,446,o),
(311,474,o),
(311,519,cs),
(311,574,o),
(282,596,o),
(234,596,cs),
(189,596,o),
(161,574,o),
(161,519,cs),
(161,474,o),
(189,446,o),
(234,446,cs)
);
},
{
closed = 1;
nodes = (
(282,102,o),
(311,130,o),
(311,175,cs),
(311,230,o),
(282,252,o),
(234,252,cs),
(189,252,o),
(161,230,o),
(161,175,cs),
(161,130,o),
(189,102,o),
(234,102,cs)
);
}
);
width = 471;
}
);
metricRight = "=|";
unicode = 247;
userData = {
KernOnSpecialSpacing = {
L = math;
R = math;
};
};
}
{
glyphname = endash;
kernLeft = hyphen;
kernRight = hyphen;
layers = (
{
layerId = m005;
shapes = (
{
closed = 1;
nodes = (
(463,340,ls),
(467,340,o),
(469,342,o),
(469,346,cs),
(469,354,ls),
(469,358,o),
(467,360,o),
(463,360,cs),
(105,360,ls),
(101,360,o),
(99,358,o),
(99,354,cs),
(99,346,ls),
(99,342,o),
(101,340,o),
(105,340,cs)
);
}
);
width = 568;
},
{
layerId = m004;
shapes = (
{
closed = 1;
nodes = (
(565,316,ls),
(584,316,o),
(595,327,o),
(595,346,cs),
(595,354,ls),
(595,373,o),
(584,384,o),
(565,384,cs),
(115,384,ls),
(96,384,o),
(85,373,o),
(85,354,cs),
(85,346,ls),
(85,327,o),
(96,316,o),
(115,316,cs)
);
}
);
width = 680;
},
{
layerId = m003;
shapes = (
{
closed = 1;
nodes = (
(606,294,ls),
(632,294,o),
(646,308,o),
(646,334,cs),
(646,380,ls),
(646,406,o),
(632,420,o),
(606,420,cs),
(118,420,ls),
(92,420,o),
(78,406,o),
(78,380,cs),
(78,334,ls),
(78,308,o),
(92,294,o),
(118,294,cs)
);
}
);
width = 724;
}
);
metricRight = "=|";
unicode = 8211;
userData = {
KernOnSpecialSpacing = {
L = dashes;
R = dashes;
};
};
}
{
glyphname = emdash;
kernLeft = hyphen;
kernRight = hyphen;
layers = (
{
layerId = m005;
shapes = (
{
closed = 1;
nodes = (
(663,340,ls),
(667,340,o),
(669,342,o),
(669,346,cs),
(669,354,ls),
(669,358,o),
(667,360,o),
(663,360,cs),
(105,360,ls),
(101,360,o),
(99,358,o),
(99,354,cs),
(99,346,ls),
(99,342,o),
(101,340,o),
(105,340,cs)
);
}
);
width = 768;
},
{
layerId = m004;
shapes = (
{
closed = 1;
nodes = (
(865,316,ls),
(884,316,o),
(895,327,o),
(895,346,cs),
(895,354,ls),
(895,373,o),
(884,384,o),
(865,384,cs),
(115,384,ls),
(96,384,o),
(85,373,o),
(85,354,cs),
(85,346,ls),
(85,327,o),
(96,316,o),
(115,316,cs)
);
}
);
width = 980;
},
{
layerId = m003;
shapes = (
{
closed = 1;
nodes = (
(806,294,ls),
(832,294,o),
(846,308,o),
(846,334,cs),
(846,380,ls),
(846,406,o),
(832,420,o),
(806,420,cs),
(118,420,ls),
(92,420,o),
(78,406,o),
(78,380,cs),
(78,334,ls),
(78,308,o),
(92,294,o),
(118,294,cs)
);
}
);
width = 924;
}
);
metricRight = "=|";
unicode = 8212;
userData = {
KernOnSpecialSpacing = {
L = dashes;
R = dashes;
};
};
}
{
glyphname = quoteleft;
kernLeft = quoteleft;
kernRight = quoteleft;
layers = (
{
anchors = (
{
name = "#entry";
pos = (61,0);
},
{
name = "#exit";
pos = (61,0);
}
);
layerId = m005;
shapes = (
{
closed = 1;
nodes = (
(123,568,ls),
(126,568,o),
(129,569,o),
(130,573,cs),
(159,703,ls),
(160,708,o),
(158,710,o),
(154,710,cs),
(151,710,ls),
(148,710,o),
(145,709,o),
(144,705,cs),
(109,575,ls),
(108,571,o),
(110,568,o),
(114,568,cs)
);
}
);
width = 257;
},
{
anchors = (
{
name = "#entry";
pos = (34,0);
},
{
name = "#exit";
pos = (34,0);
}
);
layerId = m004;
shapes = (
{
closed = 1;
nodes = (
(147,510,ls),
(166,510,o),
(183,521,o),
(186,540,cs),
(210,684,ls),
(212,697,o),
(211,710,o),
(192,710,cs),
(179,710,ls),
(160,710,o),
(151,698,o),
(143,680,cs),
(85,540,ls),
(77,522,o),
(87,510,o),
(106,510,cs)
);
}
);
width = 289;
},
{
anchors = (
{
name = "#entry";
pos = (20,0);
},
{
name = "#exit";
pos = (240,0);
}
);
layerId = m003;
shapes = (
{
closed = 1;
nodes = (
(202,482,ls),
(225,482,o),
(244,493,o),
(246,516,cs),
(265,691,ls),
(268,716,o),
(259,736,o),
(231,736,cs),
(180,736,ls),
(158,736,o),
(139,725,o),
(133,706,cs),
(74,529,ls),
(65,503,o),
(74,482,o),
(104,482,cs)
);
}
);
width = 334;
}
);
metricLeft = "=|quotesinglbase";
metricRight = "=|quotesinglbase";
unicode = 8216;
userData = {
KernOnSpecialSpacing = {
L = quotes;
R = quotes;
};
};
}
{
glyphname = quoteright;
kernLeft = quoteright;
kernRight = quoteright;
layers = (
{
anchors = (
{
name = "#entry";
pos = (56,0);
},
{
name = "#exit";
pos = (56,0);
}
);
layerId = m005;
shapes = (
{
closed = 1;
nodes = (
(106,568,ls),
(109,568,o),
(112,569,o),
(113,573,cs),
(148,703,ls),
(149,707,o),
(147,710,o),
(143,710,cs),
(134,710,ls),
(131,710,o),
(128,709,o),
(127,705,cs),
(98,575,ls),
(97,570,o),
(99,568,o),
(103,568,cs)
);
}
);
width = 257;
},
{
anchors = (
{
name = "#entry";
pos = (4,0);
},
{
name = "#exit";
pos = (4,0);
}
);
layerId = m004;
shapes = (
{
closed = 1;
nodes = (
(110,510,ls),
(129,510,o),
(138,522,o),
(146,540,cs),
(204,680,ls),
(212,698,o),
(202,710,o),
(183,710,cs),
(142,710,ls),
(123,710,o),
(106,699,o),
(103,680,cs),
(79,536,ls),
(77,523,o),
(78,510,o),
(97,510,cs)
);
}
);
width = 289;
},
{
anchors = (
{
name = "#entry";
pos = (-13,0);
},
{
name = "#exit";
pos = (207,0);
}
);
layerId = m003;
shapes = (
{
closed = 1;
nodes = (
(154,482,ls),
(176,482,o),
(195,493,o),
(201,512,cs),
(260,689,ls),
(269,715,o),
(260,736,o),
(230,736,cs),
(132,736,ls),
(109,736,o),
(90,725,o),
(88,702,cs),
(69,527,ls),
(66,502,o),
(75,482,o),
(103,482,cs)
);
}
);
width = 334;
}
);
metricLeft = "=quotesinglbase";
metricRight = "=quotesinglbase";
unicode = 8217;
userData = {
KernOnSpecialSpacing = {
L = quotes;
R = quotes;
};
};
}
{
glyphname = quotesinglbase;
layers = (
{
anchors = (
{
name = "#entry";
},
{
name = "#exit";
pos = (87,0);
}
);
layerId = m005;
shapes = (
{
closed = 0;
nodes = (
(81,101,l),
(97,54,o),
(97,-17,o),
(70,-64,cs)
);
}
);
width = 172;
},
{
layerId = m004;
width = 600;
},
{
layerId = m003;
width = 600;
}
);
unicode = 8218;
}
{
glyphname = ellipsis;
kernLeft = period;
kernRight = period;
layers = (
{
background = {
anchors = (
{
name = "#entry";
pos = (-286,0);
},
{
name = "#exit";
pos = (87,0);
}
);
shapes = (
{
closed = 1;
nodes = (
(-206,-10,o),
(-197,-1,o),
(-197,12,cs),
(-197,28,o),
(-206,35,o),
(-220,35,cs),
(-233,35,o),
(-242,28,o),
(-242,12,cs),
(-242,-1,o),
(-233,-10,o),
(-220,-10,cs)
);
},
{
closed = 1;
nodes = (
(-73,-10,o),
(-64,-1,o),
(-64,12,cs),
(-64,28,o),
(-73,35,o),
(-87,35,cs),
(-100,35,o),
(-109,28,o),
(-109,12,cs),
(-109,-1,o),
(-100,-10,o),
(-87,-10,cs)
);
},
{
closed = 1;
nodes = (
(60,-10,o),
(69,-1,o),
(69,12,cs),
(69,28,o),
(60,35,o),
(46,35,cs),
(33,35,o),
(24,28,o),
(24,12,cs),
(24,-1,o),
(33,-10,o),
(46,-10,cs)
);
}
);
};
layerId = m005;
shapes = (
{
alignment = 1;
pos = (20,0);
ref = period;
},
{
alignment = 1;
pos = (127,0);
ref = period;
},
{
alignment = 1;
pos = (234,0);
ref = period;
}
);
width = 565;
},
{
layerId = m004;
shapes = (
{
alignment = 1;
pos = (20,0);
ref = period;
},
{
alignment = 1;
pos = (191,0);
ref = period;
},
{
alignment = 1;
pos = (362,0);
ref = period;
}
);
width = 699;
},
{
layerId = m003;
shapes = (
{
alignment = 1;
pos = (20,0);
ref = period;
},
{
alignment = 1;
pos = (274,0);
ref = period;
},
{
alignment = 1;
pos = (528,0);
ref = period;
}
);
width = 924;
}
);
metricLeft = "=+20";
metricRight = "=+20";
unicode = 8230;
}
{
export = 0;
glyphname = perthousand;
layers = (
{
layerId = m005;
shapes = (
{
closed = 0;
nodes = (
(207,376,l),
(279,376,o),
(324,438,o),
(324,538,cs),
(324,638,o),
(279,700,o),
(207,700,cs),
(135,700,o),
(90,638,o),
(90,538,cs),
(90,438,o),
(135,376,o),
(207,376,c)
);
},
{
closed = 0;
nodes = (
(158,0,l),
(587,700,l)
);
},
{
closed = 0;
nodes = (
(537,0,l),
(609,0,o),
(654,62,o),
(654,162,cs),
(654,262,o),
(609,324,o),
(537,324,cs),
(465,324,o),
(420,262,o),
(420,162,cs),
(420,62,o),
(465,0,o),
(537,0,c)
);
},
{
closed = 0;
nodes = (
(858,0,l),
(930,0,o),
(975,62,o),
(975,162,cs),
(975,262,o),
(930,324,o),
(858,324,cs),
(785,324,o),
(741,262,o),
(741,162,cs),
(741,62,o),
(785,0,o),
(858,0,c)
);
}
);
width = 1065;
},
{
layerId = m004;
width = 600;
},
{
layerId = m003;
width = 600;
}
);
metricRight = "=|";
unicode = 8240;
}
{
glyphname = guilsinglleft;
layers = (
{
layerId = m005;
shapes = (
{
closed = 0;
nodes = (
(228,464,l),
(100,307,l),
(228,150,l)
);
}
);
width = 348;
},
{
layerId = m004;
width = 600;
},
{
layerId = m003;
width = 600;
}
);
unicode = 8249;
}
{
glyphname = guilsinglright;
kernLeft = guillemetright;
kernRight = guillemetright;
layers = (
{
layerId = m005;
shapes = (
{
closed = 1;
nodes = (
(80,147,ls),
(83,147,o),
(87,149,o),
(89,152,cs),
(215,303,ls),
(217,306,o),
(217,308,o),
(215,311,cs),
(89,462,ls),
(87,465,o),
(83,467,o),
(80,467,cs),
(72,467,ls),
(68,467,o),
(67,464,o),
(69,461,cs),
(192,307,l),
(69,153,ls),
(67,150,o),
(68,147,o),
(72,147,cs)
);
}
);
width = 284;
},
{
layerId = m004;
shapes = (
{
closed = 1;
nodes = (
(119,153,ls),
(132,153,o),
(142,157,o),
(150,167,cs),
(252,288,ls),
(262,299,o),
(261,312,o),
(252,324,cs),
(151,448,ls),
(143,458,o),
(133,462,o),
(120,462,cs),
(88,462,ls),
(67,462,o),
(60,447,o),
(73,431,cs),
(171,307,l),
(73,184,ls),
(60,168,o),
(67,153,o),
(88,153,cs)
);
}
);
width = 307;
},
{
layerId = m003;
shapes = (
{
closed = 1;
nodes = (
(134,162,ls),
(155,162,o),
(170,170,o),
(183,186,cs),
(255,277,ls),
(270,296,o),
(270,314,o),
(255,333,cs),
(183,424,ls),
(170,440,o),
(155,448,o),
(134,448,cs),
(95,448,ls),
(62,448,o),
(50,425,o),
(71,399,cs),
(144,305,l),
(71,211,ls),
(50,185,o),
(62,162,o),
(95,162,cs)
);
}
);
width = 305;
}
);
unicode = 8250;
userData = {
KernOnSpecialSpacing = {
L = quotes;
R = quotes;
};
};
}
{
glyphname = minus;
kernLeft = plus;
kernRight = plus;
layers = (
{
layerId = m005;
shapes = (
{
closed = 1;
nodes = (
(485,356,ls),
(489,356,o),
(491,358,o),
(491,362,cs),
(491,370,ls),
(491,374,o),
(489,376,o),
(485,376,cs),
(156,376,ls),
(152,376,o),
(150,374,o),
(150,370,cs),
(150,362,ls),
(150,358,o),
(153,356,o),
(156,356,cs)
);
}
);
width = 641;
},
{
layerId = m004;
shapes = (
{
closed = 1;
nodes = (
(432,336,ls),
(448,336,o),
(457,345,o),
(457,361,cs),
(457,377,ls),
(457,393,o),
(448,402,o),
(432,402,cs),
(153,402,ls),
(137,402,o),
(128,393,o),
(128,377,cs),
(128,361,ls),
(128,345,o),
(137,336,o),
(153,336,cs)
);
}
);
width = 585;
},
{
layerId = m003;
shapes = (
{
closed = 1;
nodes = (
(427,296,ls),
(453,296,o),
(467,310,o),
(467,336,cs),
(467,362,ls),
(467,388,o),
(453,402,o),
(427,402,cs),
(158,402,ls),
(132,402,o),
(118,388,o),
(118,362,cs),
(118,336,ls),
(118,310,o),
(132,296,o),
(158,296,cs)
);
}
);
width = 585;
}
);
metricRight = "=|";
unicode = 8722;
userData = {
KernOnSpecialSpacing = {
L = math;
R = math;
};
};
}
{
color = 4;
glyphname = "ya-tifi";
kernLeft = "ya-tifi";
kernRight = "ya-tifi";
layers = (
{
layerId = m003;
shapes = (
{
closed = 1;
nodes = (
(315,-16,o),
(383,49,o),
(383,134,cs),
(383,222,o),
(315,285,o),
(214,285,cs),
(114,285,o),
(46,222,o),
(46,134,cs),
(46,49,o),
(114,-16,o),
(214,-16,cs)
);
},
{
closed = 1;
nodes = (
(195,96,o),
(180,111,o),
(180,134,cs),
(180,159,o),
(195,175,o),
(214,175,cs),
(234,175,o),
(249,159,o),
(249,134,cs),
(249,111,o),
(234,96,o),
(214,96,cs)
);
}
);
width = 429;
},
{
layerId = m004;
shapes = (
{
closed = 1;
nodes = (
(297,-6,o),
(356,54,o),
(356,133,cs),
(356,214,o),
(297,273,o),
(208,273,cs),
(120,273,o),
(61,214,o),
(61,133,cs),
(61,54,o),
(120,-6,o),
(208,-6,cs)
);
},
{
closed = 1;
nodes = (
(168,60,o),
(139,88,o),
(139,133,cs),
(139,180,o),
(168,207,o),
(208,207,cs),
(249,207,o),
(278,180,o),
(278,133,cs),
(278,88,o),
(249,60,o),
(208,60,cs)
);
}
);
width = 417;
},
{
layerId = m005;
shapes = (
{
closed = 1;
nodes = (
(291,-6,o),
(346,54,o),
(346,133,cs),
(346,214,o),
(291,273,o),
(208,273,cs),
(126,273,o),
(71,214,o),
(71,133,cs),
(71,54,o),
(126,-6,o),
(208,-6,cs)
);
},
{
closed = 1;
nodes = (
(142,16,o),
(95,61,o),
(95,133,cs),
(95,208,o),
(143,251,o),
(208,251,cs),
(274,251,o),
(322,208,o),
(322,133,cs),
(322,61,o),
(275,16,o),
(208,16,cs)
);
}
);
width = 417;
}
);
unicode = 11568;
}
{
color = 4;
glyphname = "yab-tifi";
kernLeft = "yar-tifi";
kernRight = "yar-tifi";
layers = (
{
layerId = m003;
shapes = (
{
closed = 1;
nodes = (
(715,293,l),
(715,423,l),
(94,423,l),
(94,293,l)
);
},
{
ref = "yar-tifi";
}
);
width = 845;
},
{
layerId = m004;
shapes = (
{
closed = 1;
nodes = (
(718,318,l),
(718,382,l),
(97,382,l),
(97,318,l)
);
},
{
ref = "yar-tifi";
}
);
width = 841;
},
{
layerId = m005;
shapes = (
{
closed = 1;
nodes = (
(738,340,l),
(738,360,l),
(88,360,l),
(88,340,l)
);
},
{
ref = "yar-tifi";
}
);
width = 825;
}
);
metricLeft = "yar-tifi";
metricRight = "yar-tifi";
unicode = 11569;
}
{
color = 4;
glyphname = "yag-tifi";
kernLeft = "yag-tifi";
kernRight = "yag-tifi";
layers = (
{
background = {
shapes = (
{
closed = 1;
nodes = (
(459,588,l),
(460,584,l),
(451,576,o),
(444,565,o),
(441,560,cs),
(397,499,ls),
(394,494,o),
(389,484,o),
(384,471,c),
(377,471,l),
(373,484,o),
(367,493,o),
(363,499,cs),
(312,563,ls),
(308,569,o),
(303,577,o),
(293,584,c),
(295,588,l)
);
},
{
closed = 1;
nodes = (
(335,131,ls),
(343,143,o),
(372,202,o),
(378,214,c),
(383,214,l),
(388,202,o),
(417,139,o),
(424,128,cs),
(486,27,ls),
(497,8,o),
(511,0,o),
(533,0,cs),
(653,0,ls),
(686,0,o),
(697,21,o),
(678,49,cs),
(487,339,l),
(656,555,ls),
(671,577,o),
(679,602,o),
(667,625,cs),
(631,693,ls),
(618,717,o),
(602,720,o),
(579,720,cs),
(176,720,ls),
(153,720,o),
(135,716,o),
(124,693,cs),
(93,625,ls),
(82,601,o),
(89,574,o),
(105,553,cs),
(263,343,l),
(75,48,ls),
(58,22,o),
(69,0,o),
(101,0,cs),
(220,0,ls),
(241,0,o),
(256,7,o),
(268,26,cs)
);
}
);
};
layerId = m003;
shapes = (
{
closed = 1;
nodes = (
(193,0,ls),
(209,0,o),
(221,5,o),
(230,18,cs),
(319,147,ls),
(338,173,o),
(356,207,o),
(372,234,c),
(374,234,l),
(390,207,o),
(409,173,o),
(427,147,cs),
(516,18,ls),
(525,5,o),
(537,0,o),
(553,0,cs),
(682,0,ls),
(707,0,o),
(715,16,o),
(700,37,cs),
(488,345,l),
(673,592,ls),
(684,606,o),
(695,617,o),
(690,634,cs),
(669,703,ls),
(665,717,o),
(649,720,o),
(634,720,cs),
(112,720,ls),
(97,720,o),
(81,717,o),
(77,703,cs),
(56,634,ls),
(51,617,o),
(62,606,o),
(73,592,cs),
(258,345,l),
(46,37,ls),
(31,16,o),
(39,0,o),
(64,0,cs)
);
},
{
closed = 1;
nodes = (
(278,567,ls),
(273,573,o),
(263,581,o),
(256,586,c),
(256,588,l),
(490,588,l),
(490,586,l),
(484,580,o),
(473,573,o),
(468,567,cs),
(373,447,l)
);
}
);
width = 746;
},
{
background = {
shapes = (
{
closed = 1;
nodes = (
(291,339,l),
(78,37,ls),
(63,16,o),
(71,0,o),
(96,0,cs),
(125,0,ls),
(141,0,o),
(153,5,o),
(162,18,cs),
(297,214,ls),
(313,237,o),
(324,256,o),
(338,280,c),
(344,280,l),
(356,256,o),
(367,237,o),
(381,214,cs),
(505,18,ls),
(513,5,o),
(526,0,o),
(542,0,cs),
(574,0,ls),
(599,0,o),
(606,16,o),
(592,37,cs),
(394,334,l),
(604,612,ls),
(615,627,o),
(630,638,o),
(622,655,cs),
(609,683,ls),
(603,697,o),
(588,700,o),
(573,700,cs),
(104,700,ls),
(89,700,o),
(74,698,o),
(69,684,cs),
(58,654,ls),
(52,637,o),
(64,626,o),
(75,612,cs)
);
},
{
closed = 1;
nodes = (
(524,634,l),
(526,626,l),
(505,607,o),
(488,588,o),
(479,574,cs),
(381,440,ls),
(369,423,o),
(360,406,o),
(348,389,c),
(342,389,l),
(332,406,o),
(322,424,o),
(310,440,cs),
(207,574,ls),
(196,589,o),
(181,609,o),
(157,627,c),
(161,634,l)
);
}
);
};
layerId = m004;
shapes = (
{
closed = 1;
nodes = (
(115,0,ls),
(131,0,o),
(143,5,o),
(152,18,cs),
(291,207,ls),
(309,232,o),
(327,257,o),
(342,285,c),
(344,285,l),
(359,257,o),
(377,232,o),
(395,207,cs),
(534,18,ls),
(543,5,o),
(555,0,o),
(571,0,cs),
(600,0,ls),
(625,0,o),
(633,16,o),
(618,37,cs),
(395,342,l),
(611,612,ls),
(622,626,o),
(635,637,o),
(628,654,cs),
(617,683,ls),
(612,697,o),
(597,700,o),
(582,700,cs),
(104,700,ls),
(89,700,o),
(74,697,o),
(69,683,cs),
(58,654,ls),
(51,637,o),
(64,626,o),
(75,612,cs),
(291,342,l),
(68,37,ls),
(53,16,o),
(61,0,o),
(86,0,cs)
);
},
{
closed = 1;
nodes = (
(187,600,ls),
(178,612,o),
(164,625,o),
(150,634,c),
(150,636,l),
(536,636,l),
(536,634,l),
(521,625,o),
(509,612,o),
(499,600,cs),
(343,399,l)
);
}
);
width = 686;
},
{
background = {
shapes = (
{
closed = 1;
nodes = (
(297,339,l),
(84,37,ls),
(69,16,o),
(77,0,o),
(102,0,cs),
(131,0,ls),
(147,0,o),
(159,5,o),
(168,18,cs),
(303,214,ls),
(319,237,o),
(330,256,o),
(344,280,c),
(350,280,l),
(362,256,o),
(373,237,o),
(387,214,cs),
(511,18,ls),
(519,5,o),
(532,0,o),
(548,0,cs),
(580,0,ls),
(605,0,o),
(612,16,o),
(598,37,cs),
(400,334,l),
(610,612,ls),
(621,627,o),
(636,638,o),
(628,655,cs),
(615,683,ls),
(609,697,o),
(594,700,o),
(579,700,cs),
(110,700,ls),
(95,700,o),
(80,698,o),
(75,684,cs),
(64,654,ls),
(58,637,o),
(70,626,o),
(81,612,cs)
);
},
{
closed = 1;
nodes = (
(530,634,l),
(532,626,l),
(511,607,o),
(494,588,o),
(485,574,cs),
(387,440,ls),
(375,423,o),
(366,406,o),
(354,389,c),
(348,389,l),
(338,406,o),
(328,424,o),
(316,440,cs),
(213,574,ls),
(202,589,o),
(187,609,o),
(163,627,c),
(167,634,l)
);
}
);
};
layerId = m005;
shapes = (
{
closed = 1;
nodes = (
(106,0,ls),
(109,0,o),
(112,2,o),
(114,4,cs),
(268,217,ls),
(287,242,o),
(320,287,o),
(338,318,c),
(340,318,l),
(358,287,o),
(391,242,o),
(410,217,cs),
(564,4,ls),
(566,2,o),
(569,0,o),
(572,0,cs),
(584,0,ls),
(589,0,o),
(591,3,o),
(588,7,cs),
(351,336,l),
(608,678,ls),
(610,680,o),
(611,683,o),
(610,686,cs),
(607,695,ls),
(606,699,o),
(604,700,o),
(601,700,cs),
(77,700,ls),
(74,700,o),
(72,699,o),
(71,695,cs),
(68,686,ls),
(67,683,o),
(68,680,o),
(70,678,cs),
(327,336,l),
(90,7,ls),
(87,3,o),
(89,0,o),
(94,0,cs)
);
},
{
closed = 1;
nodes = (
(131,633,ls),
(120,648,o),
(106,663,o),
(91,678,c),
(91,680,l),
(587,680,l),
(587,678,l),
(572,663,o),
(558,648,o),
(547,633,cs),
(339,354,l)
);
}
);
width = 678;
}
);
metricRight = "=|";
unicode = 11571;
}
{
color = 4;
glyphname = "yad-tifi";
kernLeft = "yad-tifi";
kernRight = "yad-tifi";
layers = (
{
background = {
shapes = (
{
closed = 1;
nodes = (
(392,534,l),
(387,519,o),
(383,493,o),
(376,468,cs),
(251,33,ls),
(245,11,o),
(229,0,o),
(206,0,cs),
(83,0,ls),
(54,0,o),
(41,19,o),
(50,46,cs),
(258,687,ls),
(265,709,o),
(280,720,o),
(303,720,cs),
(487,720,ls),
(510,720,o),
(525,709,o),
(532,687,cs),
(740,46,ls),
(749,19,o),
(736,0,o),
(707,0,cs),
(585,0,ls),
(562,0,o),
(546,11,o),
(540,33,cs),
(415,468,ls),
(408,493,o),
(403,519,o),
(399,534,c)
);
}
);
};
layerId = m003;
shapes = (
{
closed = 1;
nodes = (
(174,0,ls),
(191,0,o),
(204,8,o),
(209,25,cs),
(361,525,ls),
(368,544,o),
(376,579,o),
(380,607,c),
(382,607,l),
(387,580,o),
(394,544,o),
(400,525,cs),
(549,25,ls),
(554,8,o),
(566,0,o),
(584,0,cs),
(701,0,ls),
(723,0,o),
(732,13,o),
(725,35,cs),
(502,696,ls),
(496,713,o),
(483,720,o),
(466,720,cs),
(292,720,ls),
(274,720,o),
(262,713,o),
(256,696,cs),
(32,35,ls),
(25,13,o),
(34,0,o),
(57,0,cs)
);
}
);
width = 757;
},
{
background = {
shapes = (
{
closed = 1;
nodes = (
(340,643,l),
(335,628,o),
(332,602,o),
(324,577,cs),
(137,24,ls),
(132,8,o),
(120,0,o),
(103,0,cs),
(71,0,ls),
(49,0,o),
(40,13,o),
(47,34,cs),
(270,676,ls),
(276,693,o),
(288,700,o),
(305,700,cs),
(377,700,ls),
(394,700,o),
(406,693,o),
(412,676,cs),
(635,34,ls),
(642,13,o),
(633,0,o),
(611,0,cs),
(579,0,ls),
(562,0,o),
(550,8,o),
(545,24,cs),
(362,577,ls),
(354,603,o),
(352,628,o),
(347,643,c)
);
}
);
};
layerId = m004;
shapes = (
{
closed = 1;
nodes = (
(103,0,ls),
(120,0,o),
(132,8,o),
(137,24,cs),
(324,568,ls),
(331,590,o),
(336,611,o),
(342,642,c),
(344,642,l),
(350,610,o),
(355,590,o),
(362,568,cs),
(545,24,ls),
(550,8,o),
(562,0,o),
(579,0,cs),
(611,0,ls),
(633,0,o),
(642,13,o),
(635,34,cs),
(412,676,ls),
(406,693,o),
(394,700,o),
(377,700,cs),
(305,700,ls),
(288,700,o),
(276,693,o),
(270,676,cs),
(47,34,ls),
(40,13,o),
(49,0,o),
(71,0,cs)
);
}
);
width = 682;
},
{
background = {
shapes = (
{
closed = 1;
nodes = (
(324,643,l),
(319,628,o),
(316,602,o),
(308,577,cs),
(121,24,ls),
(116,8,o),
(104,0,o),
(87,0,cs),
(55,0,ls),
(33,0,o),
(24,13,o),
(31,34,cs),
(254,676,ls),
(260,693,o),
(272,700,o),
(289,700,cs),
(361,700,ls),
(378,700,o),
(390,693,o),
(396,676,cs),
(619,34,ls),
(626,13,o),
(617,0,o),
(595,0,cs),
(563,0,ls),
(546,0,o),
(534,8,o),
(529,24,cs),
(346,577,ls),
(338,603,o),
(336,628,o),
(331,643,c)
);
}
);
};
layerId = m005;
shapes = (
{
closed = 1;
nodes = (
(70,0,ls),
(73,0,o),
(76,1,o),
(77,5,cs),
(295,602,ls),
(303,624,o),
(313,647,o),
(321,676,c),
(323,676,l),
(331,647,o),
(341,623,o),
(349,602,cs),
(567,5,ls),
(568,1,o),
(571,0,o),
(574,0,cs),
(585,0,ls),
(589,0,o),
(590,3,o),
(589,7,cs),
(335,695,ls),
(334,699,o),
(331,700,o),
(328,700,cs),
(316,700,ls),
(313,700,o),
(310,699,o),
(309,695,cs),
(55,7,ls),
(54,3,o),
(55,0,o),
(59,0,cs)
);
}
);
width = 644;
}
);
metricRight = "=|";
unicode = 11575;
}
{
color = 4;
glyphname = "yadd-tifi";
kernLeft = "yaw-tifi";
kernRight = "yadd-tifi";
layers = (
{
background = {
shapes = (
{
closed = 1;
nodes = (
(74,632,l),
(510,632,l),
(510,700,l),
(74,700,l)
);
},
{
closed = 1;
nodes = (
(74,0,l),
(520,0,l),
(520,68,l),
(74,68,l)
);
},
{
closed = 1;
nodes = (
(74,18,l),
(156,18,l),
(156,700,l),
(74,700,l)
);
},
{
closed = 1;
nodes = (
(74,324,l),
(480,324,l),
(480,392,l),
(74,392,l)
);
}
);
};
layerId = m003;
shapes = (
{
closed = 1;
nodes = (
(504,284,ls),
(530,284,o),
(544,298,o),
(544,324,cs),
(544,390,ls),
(544,416,o),
(530,430,o),
(504,430,cs),
(146,430,l),
(146,284,l)
);
},
{
pos = (13,0);
ref = "yam-tifi";
}
);
width = 634;
},
{
background = {
shapes = (
{
closed = 1;
nodes = (
(96,632,l),
(532,632,l),
(532,700,l),
(96,700,l)
);
},
{
closed = 1;
nodes = (
(96,0,l),
(542,0,l),
(542,68,l),
(96,68,l)
);
},
{
closed = 1;
nodes = (
(96,18,l),
(178,18,l),
(178,700,l),
(96,700,l)
);
},
{
closed = 1;
nodes = (
(96,324,l),
(502,324,l),
(502,392,l),
(96,392,l)
);
}
);
};
layerId = m004;
shapes = (
{
closed = 1;
nodes = (
(472,316,ls),
(491,316,o),
(502,327,o),
(502,346,cs),
(502,354,ls),
(502,373,o),
(491,384,o),
(472,384,cs),
(148,384,l),
(148,316,l)
);
},
{
pos = (16,0);
ref = "yam-tifi";
}
);
width = 610;
},
{
background = {
shapes = (
{
closed = 1;
nodes = (
(98,632,l),
(534,632,l),
(534,700,l),
(98,700,l)
);
},
{
closed = 1;
nodes = (
(98,0,l),
(544,0,l),
(544,68,l),
(98,68,l)
);
},
{
closed = 1;
nodes = (
(98,18,l),
(180,18,l),
(180,700,l),
(98,700,l)
);
},
{
closed = 1;
nodes = (
(98,324,l),
(504,324,l),
(504,392,l),
(98,392,l)
);
}
);
};
layerId = m005;
shapes = (
{
closed = 1;
nodes = (
(478,340,ls),
(482,340,o),
(484,342,o),
(484,346,cs),
(484,354,ls),
(484,358,o),
(481,360,o),
(478,360,cs),
(117,360,l),
(117,340,l)
);
},
{
pos = (18,0);
ref = "yam-tifi";
}
);
width = 596;
}
);
metricLeft = "yaw-tifi";
unicode = 11577;
}
{
color = 4;
glyphname = "yey-tifi";
kernLeft = "yey-tifi";
kernRight = "yey-tifi";
layers = (
{
layerId = m003;
shapes = (
{
closed = 1;
nodes = (
(357,445,o),
(425,510,o),
(425,595,cs),
(425,683,o),
(357,746,o),
(256,746,cs),
(156,746,o),
(88,683,o),
(88,595,cs),
(88,510,o),
(156,445,o),
(256,445,cs)
);
},
{
closed = 1;
nodes = (
(237,554,o),
(222,570,o),
(222,595,cs),
(222,621,o),
(237,637,o),
(256,637,cs),
(276,637,o),
(291,621,o),
(291,595,cs),
(291,570,o),
(276,554,o),
(256,554,cs)
);
},
{
closed = 1;
nodes = (
(357,-26,o),
(425,39,o),
(425,124,cs),
(425,212,o),
(357,275,o),
(256,275,cs),
(156,275,o),
(88,212,o),
(88,124,cs),
(88,39,o),
(156,-26,o),
(256,-26,cs)
);
},
{
closed = 1;
nodes = (
(237,83,o),
(222,99,o),
(222,124,cs),
(222,150,o),
(237,166,o),
(256,166,cs),
(276,166,o),
(291,150,o),
(291,124,cs),
(291,99,o),
(276,83,o),
(256,83,cs)
);
},
{
closed = 1;
nodes = (
(434,294,ls),
(460,294,o),
(474,308,o),
(474,334,cs),
(474,385,ls),
(474,411,o),
(460,425,o),
(434,425,cs),
(76,425,ls),
(50,425,o),
(36,411,o),
(36,385,cs),
(36,334,ls),
(36,308,o),
(50,294,o),
(76,294,cs)
);
}
);
width = 510;
},
{
layerId = m004;
shapes = (
{
closed = 1;
nodes = (
(352,435,o),
(411,495,o),
(411,574,cs),
(411,653,o),
(352,710,o),
(264,710,cs),
(177,710,o),
(118,653,o),
(118,574,cs),
(118,495,o),
(177,435,o),
(264,435,cs)
);
},
{
closed = 1;
nodes = (
(224,501,o),
(195,529,o),
(195,574,cs),
(195,618,o),
(224,644,o),
(264,644,cs),
(305,644,o),
(334,618,o),
(334,574,cs),
(334,529,o),
(305,501,o),
(264,501,cs)
);
},
{
closed = 1;
nodes = (
(353,-6,o),
(412,56,o),
(412,133,cs),
(412,214,o),
(353,273,o),
(264,273,cs),
(176,273,o),
(117,214,o),
(117,133,cs),
(117,56,o),
(176,-6,o),
(264,-6,cs)
);
},
{
closed = 1;
nodes = (
(224,60,o),
(195,88,o),
(195,133,cs),
(195,180,o),
(224,207,o),
(264,207,cs),
(305,207,o),
(334,180,o),
(334,133,cs),
(334,88,o),
(305,60,o),
(264,60,cs)
);
},
{
closed = 1;
nodes = (
(444,316,ls),
(463,316,o),
(474,327,o),
(474,346,cs),
(474,354,ls),
(474,373,o),
(463,384,o),
(444,384,cs),
(84,384,ls),
(65,384,o),
(54,373,o),
(54,354,cs),
(54,346,ls),
(54,327,o),
(65,316,o),
(84,316,cs)
);
}
);
width = 528;
},
{
layerId = m005;
shapes = (
{
closed = 1;
nodes = (
(326,431,o),
(381,491,o),
(381,570,cs),
(381,651,o),
(326,710,o),
(243,710,cs),
(161,710,o),
(106,651,o),
(106,570,cs),
(106,491,o),
(161,431,o),
(243,431,cs)
);
},
{
closed = 1;
nodes = (
(177,453,o),
(130,498,o),
(130,570,cs),
(130,645,o),
(178,688,o),
(243,688,cs),
(309,688,o),
(357,645,o),
(357,570,cs),
(357,498,o),
(310,453,o),
(243,453,cs)
);
},
{
closed = 1;
nodes = (
(326,-6,o),
(381,54,o),
(381,133,cs),
(381,214,o),
(326,273,o),
(243,273,cs),
(161,273,o),
(106,214,o),
(106,133,cs),
(106,54,o),
(161,-6,o),
(243,-6,cs)
);
},
{
closed = 1;
nodes = (
(177,16,o),
(130,61,o),
(130,133,cs),
(130,208,o),
(178,251,o),
(243,251,cs),
(309,251,o),
(357,208,o),
(357,133,cs),
(357,61,o),
(310,16,o),
(243,16,cs)
);
},
{
closed = 1;
nodes = (
(414,344,ls),
(418,344,o),
(420,346,o),
(420,350,cs),
(420,358,ls),
(420,362,o),
(417,364,o),
(414,364,cs),
(72,364,ls),
(68,364,o),
(66,362,o),
(66,358,cs),
(66,350,ls),
(66,346,o),
(69,344,o),
(72,344,cs)
);
}
);
width = 486;
}
);
metricRight = "=|";
unicode = 11579;
}
{
color = 0;
glyphname = "yaf-tifi";
kernLeft = "yaf-tifi";
kernRight = "yaf-tifi";
layers = (
{
layerId = m003;
shapes = (
{
closed = 1;
nodes = (
(734,0,ls),
(760,0,o),
(774,14,o),
(774,40,cs),
(774,106,ls),
(774,132,o),
(760,146,o),
(734,146,cs),
(640,146,l),
(640,574,l),
(724,574,ls),
(750,574,o),
(764,588,o),
(764,614,cs),
(764,680,ls),
(764,706,o),
(750,720,o),
(724,720,cs),
(500,720,ls),
(474,720,o),
(460,706,o),
(460,680,cs),
(460,40,ls),
(460,14,o),
(474,0,o),
(500,0,cs)
);
},
{
closed = 1;
nodes = (
(614,296,l),
(614,440,l),
(214,440,l),
(214,296,l)
);
},
{
closed = 1;
nodes = (
(312,0,ls),
(338,0,o),
(352,14,o),
(352,40,cs),
(352,680,ls),
(352,706,o),
(338,720,o),
(312,720,cs),
(88,720,ls),
(62,720,o),
(48,706,o),
(48,680,cs),
(48,614,ls),
(48,588,o),
(62,574,o),
(88,574,cs),
(172,574,l),
(172,146,l),
(78,146,ls),
(52,146,o),
(38,132,o),
(38,106,cs),
(38,40,ls),
(38,14,o),
(52,0,o),
(78,0,cs)
);
}
);
width = 812;
},
{
layerId = m004;
shapes = (
{
closed = 1;
nodes = (
(696,0,ls),
(715,0,o),
(726,11,o),
(726,30,cs),
(726,38,ls),
(726,57,o),
(715,68,o),
(696,68,cs),
(562,68,l),
(562,632,l),
(686,632,ls),
(705,632,o),
(716,643,o),
(716,662,cs),
(716,670,ls),
(716,689,o),
(705,700,o),
(686,700,cs),
(510,700,ls),
(491,700,o),
(480,689,o),
(480,670,cs),
(480,30,ls),
(480,11,o),
(491,0,o),
(510,0,cs)
);
},
{
closed = 1;
nodes = (
(506,324,l),
(506,392,l),
(282,392,l),
(282,324,l)
);
},
{
closed = 1;
nodes = (
(272,0,ls),
(291,0,o),
(302,11,o),
(302,30,cs),
(302,670,ls),
(302,689,o),
(291,700,o),
(272,700,cs),
(96,700,ls),
(77,700,o),
(66,689,o),
(66,670,cs),
(66,662,ls),
(66,643,o),
(77,632,o),
(96,632,cs),
(220,632,l),
(220,68,l),
(86,68,ls),
(67,68,o),
(56,57,o),
(56,38,cs),
(56,30,ls),
(56,11,o),
(67,0,o),
(86,0,cs)
);
}
);
width = 782;
},
{
layerId = m005;
shapes = (
{
closed = 1;
nodes = (
(592,0,ls),
(596,0,o),
(598,2,o),
(598,6,cs),
(598,14,ls),
(598,18,o),
(596,20,o),
(592,20,cs),
(464,20,l),
(464,680,l),
(582,680,ls),
(586,680,o),
(588,682,o),
(588,686,cs),
(588,694,ls),
(588,698,o),
(586,700,o),
(582,700,cs),
(448,700,ls),
(444,700,o),
(442,698,o),
(442,694,cs),
(442,6,ls),
(442,2,o),
(444,0,o),
(448,0,cs)
);
},
{
closed = 1;
nodes = (
(448,348,l),
(448,368,l),
(214,368,l),
(214,348,l)
);
},
{
closed = 1;
nodes = (
(218,0,ls),
(222,0,o),
(224,2,o),
(224,6,cs),
(224,694,ls),
(224,698,o),
(222,700,o),
(218,700,cs),
(84,700,ls),
(80,700,o),
(78,698,o),
(78,694,cs),
(78,686,ls),
(78,682,o),
(81,680,o),
(84,680,cs),
(202,680,l),
(202,20,l),
(74,20,ls),
(70,20,o),
(68,18,o),
(68,14,cs),
(68,6,ls),
(68,2,o),
(70,0,o),
(74,0,cs)
);
}
);
width = 666;
}
);
metricRight = "=|";
unicode = 11580;
}
{
color = 4;
glyphname = "yak-tifi";
kernLeft = "yaw-tifi";
kernRight = "yag-tifi";
layers = (
{
background = {
shapes = (
{
closed = 1;
nodes = (
(65,720,ls),
(50,720,o),
(34,717,o),
(30,703,cs),
(9,634,ls),
(4,617,o),
(15,606,o),
(26,592,cs),
(267,270,l),
(215,352,l),
(-1,37,ls),
(-16,16,o),
(-8,0,o),
(17,0,cs),
(146,0,ls),
(162,0,o),
(174,5,o),
(183,18,cs),
(272,147,ls),
(291,174,o),
(310,208,o),
(326,236,c),
(342,208,o),
(362,174,o),
(380,147,cs),
(469,18,ls),
(478,5,o),
(490,0,o),
(506,0,cs),
(635,0,ls),
(660,0,o),
(668,16,o),
(653,37,cs),
(437,352,l),
(385,270,l),
(626,592,ls),
(637,606,o),
(648,617,o),
(643,634,cs),
(622,703,ls),
(618,717,o),
(602,720,o),
(587,720,cs)
);
}
);
};
layerId = m003;
shapes = (
{
closed = 1;
nodes = (
(163,0,ls),
(187,0,o),
(198,6,o),
(209,22,cs),
(618,583,ls),
(627,596,o),
(630,608,o),
(630,622,cs),
(630,690,ls),
(630,709,o),
(619,720,o),
(599,720,cs),
(96,720,ls),
(76,720,o),
(65,709,o),
(65,690,cs),
(65,31,ls),
(65,11,o),
(76,0,o),
(96,0,cs)
);
},
{
closed = 1;
nodes = (
(633,0,ls),
(660,0,o),
(668,16,o),
(653,38,cs),
(413,387,l),
(303,260,l),
(470,18,ls),
(479,5,o),
(491,0,o),
(508,0,cs)
);
},
{
closed = 1;
nodes = (
(239,576,l),
(418,576,l),
(418,574,l),
(402,561,o),
(396,552,o),
(388,540,cs),
(263,367,ls),
(251,350,o),
(247,343,o),
(241,330,c),
(239,330,l)
);
}
);
width = 692;
},
{
background = {
shapes = (
{
closed = 1;
nodes = (
(80,30,ls),
(80,11,o),
(91,0,o),
(110,0,cs),
(125,0,ls),
(154,0,o),
(160,10,o),
(177,33,cs),
(604,615,l),
(613,627,o),
(616,639,o),
(616,653,cs),
(616,670,ls),
(616,689,o),
(605,700,o),
(586,700,cs),
(110,700,ls),
(91,700,o),
(80,689,o),
(80,670,cs)
);
},
{
closed = 1;
nodes = (
(159,167,o),
(162,198,o),
(162,233,cs),
(162,632,l),
(461,632,ls),
(484,632,o),
(508,634,o),
(530,636,c),
(533,629,l),
(506,603,o),
(482,580,o),
(465,557,cs),
(223,227,ls),
(201,197,o),
(185,165,o),
(167,132,c),
(159,132,l)
);
},
{
closed = 1;
nodes = (
(296,315,l),
(514,18,ls),
(523,5,o),
(535,0,o),
(551,0,cs),
(581,0,ls),
(606,0,o),
(614,16,o),
(599,37,cs),
(357,366,l)
);
}
);
};
layerId = m004;
shapes = (
{
closed = 1;
nodes = (
(125,0,ls),
(148,0,o),
(158,7,o),
(169,22,cs),
(604,615,l),
(613,627,o),
(616,639,o),
(616,653,cs),
(616,670,ls),
(616,689,o),
(605,700,o),
(586,700,cs),
(110,700,ls),
(91,700,o),
(80,689,o),
(80,670,cs),
(80,30,ls),
(80,11,o),
(91,0,o),
(110,0,cs)
);
},
{
closed = 1;
nodes = (
(581,0,ls),
(606,0,o),
(614,16,o),
(599,37,cs),
(357,366,l),
(296,315,l),
(514,18,ls),
(523,5,o),
(535,0,o),
(551,0,cs)
);
},
{
closed = 1;
nodes = (
(162,632,l),
(537,632,l),
(537,630,l),
(519,620,o),
(502,598,o),
(486,577,cs),
(197,185,ls),
(183,165,o),
(176,153,o),
(163,125,c),
(162,125,l)
);
}
);
width = 663;
},
{
background = {
shapes = (
{
closed = 1;
nodes = (
(64,30,ls),
(64,11,o),
(75,0,o),
(94,0,cs),
(109,0,ls),
(138,0,o),
(144,10,o),
(161,33,cs),
(588,615,l),
(597,627,o),
(600,639,o),
(600,653,cs),
(600,670,ls),
(600,689,o),
(589,700,o),
(570,700,cs),
(94,700,ls),
(75,700,o),
(64,689,o),
(64,670,cs)
);
},
{
closed = 1;
nodes = (
(143,167,o),
(146,198,o),
(146,233,cs),
(146,632,l),
(445,632,ls),
(468,632,o),
(492,634,o),
(514,636,c),
(517,629,l),
(490,603,o),
(466,580,o),
(449,557,cs),
(207,227,ls),
(185,197,o),
(169,165,o),
(151,132,c),
(143,132,l)
);
},
{
closed = 1;
nodes = (
(280,315,l),
(498,18,ls),
(507,5,o),
(519,0,o),
(535,0,cs),
(565,0,ls),
(590,0,o),
(598,16,o),
(583,37,cs),
(341,366,l)
);
}
);
};
layerId = m005;
shapes = (
{
closed = 1;
nodes = (
(105,0,ls),
(108,0,o),
(111,2,o),
(113,4,cs),
(590,678,ls),
(591,680,o),
(592,682,o),
(592,685,cs),
(592,694,ls),
(592,698,o),
(589,700,o),
(586,700,cs),
(96,700,ls),
(92,700,o),
(90,697,o),
(90,694,cs),
(90,6,ls),
(90,2,o),
(92,0,o),
(96,0,cs)
);
},
{
closed = 1;
nodes = (
(582,1,ls),
(586,1,o),
(589,4,o),
(586,8,cs),
(342,349,l),
(325,334,l),
(564,4,ls),
(566,2,o),
(569,0,o),
(572,0,cs)
);
},
{
closed = 1;
nodes = (
(112,680,l),
(569,680,l),
(569,678,l),
(551,658,o),
(537,633,o),
(519,608,cs),
(159,108,ls),
(143,85,o),
(131,71,o),
(114,38,c),
(112,38,l)
);
}
);
width = 649;
}
);
metricLeft = "yaw-tifi";
metricRight = "yag-tifi";
unicode = 11581;
}
{
color = 4;
glyphname = "yah-tifi";
kernLeft = "yar-tifi";
kernRight = "yar-tifi";
layers = (
{
layerId = m003;
shapes = (
{
closed = 1;
nodes = (
(477,20,l),
(477,720,l),
(333,720,l),
(333,20,l)
);
},
{
ref = "yar-tifi";
}
);
width = 825;
},
{
layerId = m004;
shapes = (
{
closed = 1;
nodes = (
(448,30,l),
(448,670,l),
(372,670,l),
(372,30,l)
);
},
{
alignment = -1;
ref = "yar-tifi";
}
);
width = 841;
},
{
layerId = m005;
shapes = (
{
closed = 1;
nodes = (
(411,6,l),
(411,694,l),
(389,694,l),
(389,6,l)
);
},
{
alignment = -1;
ref = "yar-tifi";
}
);
width = 825;
}
);
metricLeft = "yar-tifi";
metricRight = "yar-tifi";
unicode = 11584;
}
{
color = 4;
glyphname = "yahh-tifi";
kernLeft = "yahh-tifi";
kernRight = "yag-tifi";
layers = (
{
layerId = m003;
shapes = (
{
closed = 1;
nodes = (
(173,0,ls),
(189,0,o),
(201,5,o),
(210,18,cs),
(299,147,ls),
(318,173,o),
(336,207,o),
(352,234,c),
(354,234,l),
(370,206,o),
(389,174,o),
(407,147,cs),
(496,18,ls),
(505,5,o),
(517,0,o),
(533,0,cs),
(662,0,ls),
(687,0,o),
(695,16,o),
(680,37,cs),
(457,363,l),
(677,683,ls),
(692,704,o),
(684,720,o),
(659,720,cs),
(530,720,ls),
(514,720,o),
(502,715,o),
(493,702,cs),
(26,37,ls),
(11,16,o),
(19,0,o),
(44,0,cs)
);
}
);
width = 726;
},
{
layerId = m004;
shapes = (
{
closed = 1;
nodes = (
(82,0,ls),
(98,0,o),
(110,5,o),
(119,18,cs),
(253,207,ls),
(270,231,o),
(288,257,o),
(304,284,c),
(306,284,l),
(322,257,o),
(339,231,o),
(357,207,cs),
(496,18,ls),
(505,5,o),
(517,0,o),
(533,0,cs),
(562,0,ls),
(587,0,o),
(595,16,o),
(580,37,cs),
(354,353,l),
(565,664,ls),
(579,685,o),
(570,700,o),
(546,700,cs),
(515,700,ls),
(499,700,o),
(489,695,o),
(479,681,cs),
(36,37,ls),
(21,16,o),
(29,0,o),
(54,0,cs)
);
}
);
width = 644;
},
{
layerId = m005;
shapes = (
{
closed = 1;
nodes = (
(51,0,ls),
(54,0,o),
(57,2,o),
(59,4,cs),
(209,217,ls),
(227,243,o),
(251,277,o),
(279,318,c),
(281,318,l),
(316,270,o),
(336,243,o),
(355,217,cs),
(509,4,ls),
(511,2,o),
(514,0,o),
(517,0,cs),
(529,0,ls),
(534,0,o),
(536,3,o),
(533,7,cs),
(295,334,l),
(541,693,ls),
(544,697,o),
(542,700,o),
(537,700,cs),
(527,700,ls),
(524,700,o),
(521,698,o),
(519,696,cs),
(35,7,ls),
(32,3,o),
(34,0,o),
(39,0,cs)
);
}
);
width = 610;
}
);
metricRight = "yag-tifi";
unicode = 11587;
userData = {
KernOnName = "yahh-tifi";
};
}
{
color = 4;
glyphname = "yaa-tifi";
kernLeft = "yaa-tifi";
kernRight = "yaa-tifi";
layers = (
{
background = {
shapes = (
{
closed = 1;
nodes = (
(85,0,l),
(85,376,l),
(3,376,l),
(3,0,l)
);
},
{
closed = 1;
nodes = (
(509,308,l),
(509,376,l),
(43,376,l),
(43,308,l)
);
},
{
closed = 1;
nodes = (
(312,700,l),
(230,700,l),
(230,330,l),
(312,330,l)
);
},
{
closed = 1;
nodes = (
(539,0,l),
(539,376,l),
(457,376,l),
(457,0,l)
);
}
);
};
layerId = m003;
shapes = (
{
closed = 1;
nodes = (
(187,0,ls),
(213,0,o),
(227,14,o),
(227,40,cs),
(227,287,l),
(473,287,l),
(473,40,ls),
(473,14,o),
(487,0,o),
(513,0,cs),
(613,0,ls),
(639,0,o),
(653,14,o),
(653,40,cs),
(653,393,ls),
(653,419,o),
(639,433,o),
(613,433,cs),
(440,433,l),
(440,680,ls),
(440,706,o),
(426,720,o),
(400,720,cs),
(300,720,ls),
(274,720,o),
(260,706,o),
(260,680,cs),
(260,433,l),
(87,433,ls),
(61,433,o),
(47,419,o),
(47,393,cs),
(47,40,ls),
(47,14,o),
(61,0,o),
(87,0,cs)
);
}
);
width = 700;
},
{
layerId = m004;
shapes = (
{
closed = 1;
nodes = (
(114,0,ls),
(133,0,o),
(144,11,o),
(144,30,cs),
(144,308,l),
(496,308,l),
(496,30,ls),
(496,11,o),
(507,0,o),
(526,0,cs),
(548,0,ls),
(567,0,o),
(578,11,o),
(578,30,cs),
(578,346,ls),
(578,365,o),
(567,376,o),
(548,376,cs),
(361,376,l),
(361,670,ls),
(361,689,o),
(350,700,o),
(331,700,cs),
(309,700,ls),
(290,700,o),
(279,689,o),
(279,670,cs),
(279,376,l),
(92,376,ls),
(73,376,o),
(62,365,o),
(62,346,cs),
(62,30,ls),
(62,11,o),
(73,0,o),
(92,0,cs)
);
}
);
width = 640;
},
{
layerId = m005;
shapes = (
{
closed = 1;
nodes = (
(88,0,ls),
(92,0,o),
(94,3,o),
(94,6,cs),
(94,332,l),
(506,332,l),
(506,6,ls),
(506,2,o),
(508,0,o),
(512,0,cs),
(522,0,ls),
(526,0,o),
(528,2,o),
(528,6,cs),
(528,346,ls),
(528,350,o),
(526,352,o),
(522,352,cs),
(311,352,l),
(311,694,ls),
(311,698,o),
(309,700,o),
(305,700,cs),
(295,700,ls),
(291,700,o),
(289,697,o),
(289,694,cs),
(289,352,l),
(78,352,ls),
(74,352,o),
(72,349,o),
(72,346,cs),
(72,6,ls),
(72,2,o),
(74,0,o),
(78,0,cs)
);
}
);
width = 600;
}
);
metricRight = "=|";
unicode = 11588;
}
{
color = 4;
glyphname = "yakh-tifi";
kernLeft = "yag-tifi";
kernRight = "yag-tifi";
layers = (
{
background = {
shapes = (
{
closed = 1;
nodes = (
(679,664,ls),
(694,683,o),
(684,700,o),
(660,700,cs),
(629,700,ls),
(613,700,o),
(604,695,o),
(593,681,cs),
(450,498,ls),
(439,484,o),
(423,456,o),
(410,434,c),
(414,453,o),
(416,482,o),
(416,501,cs),
(416,670,ls),
(416,689,o),
(405,700,o),
(386,700,cs),
(364,700,ls),
(345,700,o),
(334,689,o),
(334,670,cs),
(334,501,ls),
(334,482,o),
(337,454,o),
(341,435,c),
(331,456,o),
(314,478,o),
(299,498,cs),
(157,681,ls),
(147,694,o),
(137,700,o),
(121,700,cs),
(90,700,ls),
(66,700,o),
(55,684,o),
(71,664,cs),
(330,347,l),
(102,37,ls),
(87,16,o),
(95,0,o),
(120,0,cs),
(149,0,ls),
(165,0,o),
(177,5,o),
(186,18,cs),
(325,207,ls),
(343,232,o),
(361,258,o),
(377,286,c),
(393,258,o),
(411,232,o),
(429,207,cs),
(568,18,ls),
(577,5,o),
(589,0,o),
(605,0,cs),
(634,0,ls),
(659,0,o),
(667,16,o),
(652,37,cs),
(425,347,l)
);
}
);
};
layerId = m003;
shapes = (
{
closed = 1;
nodes = (
(193,0,ls),
(209,0,o),
(221,5,o),
(230,18,cs),
(319,147,ls),
(336,173,o),
(356,205,o),
(372,232,c),
(374,232,l),
(390,205,o),
(410,173,o),
(427,147,cs),
(516,18,ls),
(525,5,o),
(537,0,o),
(553,0,cs),
(682,0,ls),
(707,0,o),
(715,16,o),
(700,37,cs),
(476,362,l),
(700,682,ls),
(715,703,o),
(707,719,o),
(682,719,cs),
(573,719,ls),
(557,719,o),
(545,714,o),
(536,701,cs),
(468,598,ls),
(456,580,o),
(449,563,o),
(442,539,c),
(440,539,l),
(440,680,ls),
(440,706,o),
(426,720,o),
(400,720,cs),
(340,720,ls),
(314,720,o),
(300,706,o),
(300,680,cs),
(300,535,l),
(298,535,l),
(292,563,o),
(281,593,o),
(267,614,cs),
(210,701,ls),
(201,715,o),
(189,719,o),
(173,719,cs),
(64,719,ls),
(39,719,o),
(31,703,o),
(46,682,cs),
(270,362,l),
(46,37,ls),
(31,16,o),
(39,0,o),
(64,0,cs)
);
}
);
width = 746;
},
{
background = {
shapes = (
{
closed = 1;
nodes = (
(672,664,ls),
(687,683,o),
(677,700,o),
(653,700,cs),
(622,700,ls),
(606,700,o),
(597,695,o),
(586,681,cs),
(443,498,ls),
(432,484,o),
(416,456,o),
(403,434,c),
(407,453,o),
(409,482,o),
(409,501,cs),
(409,670,ls),
(409,689,o),
(398,700,o),
(379,700,cs),
(357,700,ls),
(338,700,o),
(327,689,o),
(327,670,cs),
(327,501,ls),
(327,482,o),
(330,454,o),
(334,435,c),
(324,456,o),
(307,478,o),
(292,498,cs),
(150,681,ls),
(140,694,o),
(130,700,o),
(114,700,cs),
(83,700,ls),
(59,700,o),
(48,684,o),
(64,664,cs),
(323,347,l),
(95,37,ls),
(80,16,o),
(88,0,o),
(113,0,cs),
(142,0,ls),
(158,0,o),
(170,5,o),
(179,18,cs),
(318,207,ls),
(336,232,o),
(354,258,o),
(370,286,c),
(386,258,o),
(404,232,o),
(422,207,cs),
(561,18,ls),
(570,5,o),
(582,0,o),
(598,0,cs),
(627,0,ls),
(652,0,o),
(660,16,o),
(645,37,cs),
(418,347,l)
);
}
);
};
layerId = m004;
shapes = (
{
closed = 1;
nodes = (
(142,0,ls),
(158,0,o),
(170,5,o),
(179,18,cs),
(318,207,ls),
(336,231,o),
(353,257,o),
(369,284,c),
(371,284,l),
(387,257,o),
(404,231,o),
(422,207,cs),
(561,18,ls),
(570,5,o),
(582,0,o),
(598,0,cs),
(627,0,ls),
(652,0,o),
(660,16,o),
(645,37,cs),
(418,347,l),
(672,664,ls),
(687,683,o),
(677,700,o),
(653,700,cs),
(622,700,ls),
(606,700,o),
(597,695,o),
(586,681,cs),
(453,508,ls),
(441,492,o),
(425,465,o),
(411,439,c),
(409,439,l),
(409,670,ls),
(409,689,o),
(398,700,o),
(379,700,cs),
(357,700,ls),
(338,700,o),
(327,689,o),
(327,670,cs),
(327,440,l),
(325,440,l),
(312,465,o),
(299,486,o),
(282,508,cs),
(150,681,ls),
(140,694,o),
(130,700,o),
(114,700,cs),
(83,700,ls),
(59,700,o),
(48,684,o),
(64,664,cs),
(323,347,l),
(95,37,ls),
(80,16,o),
(88,0,o),
(113,0,cs)
);
}
);
width = 735;
},
{
background = {
shapes = (
{
closed = 1;
nodes = (
(657,664,ls),
(672,683,o),
(662,700,o),
(638,700,cs),
(607,700,ls),
(591,700,o),
(582,695,o),
(571,681,cs),
(428,498,ls),
(417,484,o),
(401,456,o),
(388,434,c),
(392,453,o),
(394,482,o),
(394,501,cs),
(394,670,ls),
(394,689,o),
(383,700,o),
(364,700,cs),
(342,700,ls),
(323,700,o),
(312,689,o),
(312,670,cs),
(312,501,ls),
(312,482,o),
(315,454,o),
(319,435,c),
(309,456,o),
(292,478,o),
(277,498,cs),
(135,681,ls),
(125,694,o),
(115,700,o),
(99,700,cs),
(68,700,ls),
(44,700,o),
(33,684,o),
(49,664,cs),
(308,347,l),
(80,37,ls),
(65,16,o),
(73,0,o),
(98,0,cs),
(127,0,ls),
(143,0,o),
(155,5,o),
(164,18,cs),
(303,207,ls),
(321,232,o),
(339,258,o),
(355,286,c),
(371,258,o),
(389,232,o),
(407,207,cs),
(546,18,ls),
(555,5,o),
(567,0,o),
(583,0,cs),
(612,0,ls),
(637,0,o),
(645,16,o),
(630,37,cs),
(403,347,l)
);
}
);
};
layerId = m005;
shapes = (
{
closed = 1;
nodes = (
(85,0,ls),
(89,0,o),
(91,2,o),
(93,4,c),
(265,252,ls),
(279,271,o),
(301,305,o),
(317,328,c),
(319,328,l),
(334,307,o),
(355,277,o),
(368,258,cs),
(542,4,l),
(544,2,o),
(546,0,o),
(550,0,cs),
(563,0,ls),
(568,0,o),
(570,3,o),
(567,7,cs),
(330,350,l),
(567,693,ls),
(570,697,o),
(568,700,o),
(563,700,cs),
(551,700,ls),
(548,700,o),
(545,698,o),
(543,696,c),
(389,473,ls),
(372,451,o),
(350,416,o),
(331,383,c),
(329,383,l),
(329,694,ls),
(329,698,o),
(327,700,o),
(323,700,cs),
(313,700,ls),
(309,700,o),
(307,697,o),
(307,694,cs),
(307,383,l),
(305,383,l),
(286,416,o),
(264,451,o),
(247,473,cs),
(93,696,l),
(91,698,o),
(88,700,o),
(85,700,cs),
(73,700,ls),
(68,700,o),
(66,697,o),
(69,693,cs),
(306,350,l),
(69,7,ls),
(66,3,o),
(68,0,o),
(73,0,cs)
);
}
);
width = 636;
}
);
metricLeft = "yag-tifi";
metricRight = "yag-tifi";
unicode = 11589;
}
{
color = 4;
glyphname = "yaq-tifi";
kernLeft = "yaw-tifi";
kernRight = "yaq-tifi";
layers = (
{
background = {
shapes = (
{
closed = 1;
nodes = (
(39,40,ls),
(39,14,o),
(53,0,o),
(79,0,cs),
(564,0,ls),
(590,0,o),
(604,14,o),
(604,40,cs),
(604,117,ls),
(604,143,o),
(590,157,o),
(564,157,cs),
(318,157,l),
(582,502,ls),
(595,519,o),
(605,533,o),
(605,556,cs),
(607,691,ls),
(607,713,o),
(582,720,o),
(560,720,cs),
(79,720,ls),
(53,720,o),
(39,706,o),
(39,680,cs)
);
},
{
closed = 1;
nodes = (
(210,284,o),
(218,312,o),
(218,336,cs),
(218,562,l),
(387,562,ls),
(403,562,o),
(423,564,o),
(438,570,c),
(440,566,l),
(421,548,o),
(401,536,o),
(390,519,cs),
(253,332,ls),
(238,311,o),
(224,283,o),
(215,268,c),
(210,268,l)
);
}
);
};
layerId = m003;
shapes = (
{
closed = 1;
nodes = (
(590,0,ls),
(616,0,o),
(630,14,o),
(630,40,cs),
(630,117,ls),
(630,143,o),
(616,157,o),
(590,157,cs),
(313,157,l),
(624,583,ls),
(633,596,o),
(636,608,o),
(636,622,cs),
(636,690,ls),
(636,709,o),
(625,720,o),
(605,720,cs),
(96,720,ls),
(76,720,o),
(65,709,o),
(65,690,cs),
(65,40,ls),
(65,14,o),
(79,0,o),
(105,0,cs)
);
},
{
closed = 1;
nodes = (
(245,556,l),
(404,556,l),
(404,554,l),
(388,541,o),
(383,532,o),
(374,520,cs),
(269,367,ls),
(257,350,o),
(253,343,o),
(247,330,c),
(245,330,l)
);
}
);
width = 671;
},
{
background = {
shapes = (
{
closed = 1;
nodes = (
(80,30,ls),
(80,11,o),
(91,0,o),
(110,0,cs),
(586,0,ls),
(605,0,o),
(616,11,o),
(616,30,cs),
(616,38,ls),
(616,57,o),
(605,68,o),
(586,68,c),
(169,68,l),
(169,74,l),
(604,615,l),
(613,627,o),
(616,639,o),
(616,653,cs),
(616,670,ls),
(616,689,o),
(605,700,o),
(586,700,cs),
(110,700,ls),
(91,700,o),
(80,689,o),
(80,670,cs)
);
},
{
closed = 1;
nodes = (
(159,211,o),
(162,244,o),
(162,273,cs),
(162,632,l),
(461,632,ls),
(484,632,o),
(508,634,o),
(530,636,c),
(533,629,l),
(506,603,o),
(484,579,o),
(465,557,cs),
(223,267,ls),
(202,242,o),
(185,209,o),
(167,182,c),
(159,182,l)
);
}
);
};
layerId = m004;
shapes = (
{
closed = 1;
nodes = (
(586,0,ls),
(605,0,o),
(616,11,o),
(616,30,cs),
(616,38,ls),
(616,57,o),
(605,68,o),
(586,68,cs),
(164,68,l),
(604,615,l),
(613,627,o),
(616,639,o),
(616,653,cs),
(616,670,ls),
(616,689,o),
(605,700,o),
(586,700,cs),
(110,700,ls),
(91,700,o),
(80,689,o),
(80,670,cs),
(80,30,ls),
(80,11,o),
(91,0,o),
(110,0,cs)
);
},
{
closed = 1;
nodes = (
(162,632,l),
(538,632,l),
(538,630,l),
(522,618,o),
(511,610,o),
(499,596,cs),
(196,226,ls),
(182,209,o),
(174,198,o),
(164,175,c),
(162,175,l)
);
}
);
width = 666;
},
{
background = {
shapes = (
{
closed = 1;
nodes = (
(64,30,ls),
(64,11,o),
(75,0,o),
(94,0,cs),
(570,0,ls),
(589,0,o),
(600,11,o),
(600,30,cs),
(600,38,ls),
(600,57,o),
(589,68,o),
(570,68,cs),
(148,68,l),
(588,615,l),
(597,627,o),
(600,639,o),
(600,653,cs),
(600,670,ls),
(600,689,o),
(589,700,o),
(570,700,cs),
(94,700,ls),
(75,700,o),
(64,689,o),
(64,670,cs)
);
},
{
closed = 1;
nodes = (
(146,632,l),
(522,632,l),
(505,619,o),
(495,610,o),
(483,596,cs),
(180,226,ls),
(165,208,o),
(157,197,o),
(146,170,c)
);
}
);
};
layerId = m005;
shapes = (
{
closed = 1;
nodes = (
(529,0,ls),
(533,0,o),
(535,2,o),
(535,6,cs),
(535,14,ls),
(535,18,o),
(533,20,o),
(529,20,cs),
(124,20,l),
(590,678,ls),
(591,680,o),
(592,682,o),
(592,685,cs),
(592,694,ls),
(592,698,o),
(589,700,o),
(586,700,cs),
(96,700,ls),
(92,700,o),
(90,697,o),
(90,694,cs),
(90,6,ls),
(90,2,o),
(92,0,o),
(96,0,cs)
);
},
{
closed = 1;
nodes = (
(112,680,l),
(569,680,l),
(569,678,l),
(551,658,o),
(537,633,o),
(519,608,cs),
(159,108,ls),
(143,85,o),
(131,71,o),
(114,38,c),
(112,38,l)
);
}
);
width = 652;
}
);
metricLeft = "yaw-tifi";
unicode = 11591;
}
{
color = 4;
glyphname = "yi-tifi";
kernLeft = "yi-tifi";
kernRight = "yi-tifi";
layers = (
{
background = {
shapes = (
{
closed = 1;
nodes = (
(40,40,ls),
(40,14,o),
(54,0,o),
(80,0,cs),
(514,0,ls),
(540,0,o),
(554,14,o),
(554,40,cs),
(554,126,ls),
(554,152,o),
(540,166,o),
(514,166,cs),
(220,166,l),
(220,554,l),
(514,554,ls),
(540,554,o),
(554,568,o),
(554,594,cs),
(554,680,ls),
(554,706,o),
(540,720,o),
(514,720,cs),
(80,720,ls),
(54,720,o),
(40,706,o),
(40,680,cs)
);
}
);
};
layerId = m003;
shapes = (
{
closed = 1;
nodes = (
(522,0,ls),
(541,0,o),
(552,11,o),
(552,30,cs),
(552,116,ls),
(552,135,o),
(541,146,o),
(522,146,cs),
(265,146,l),
(265,148,l),
(282,163,o),
(305,190,o),
(326,217,cs),
(389,294,ls),
(401,310,o),
(408,323,o),
(408,343,cs),
(408,382,ls),
(408,402,o),
(402,416,o),
(389,432,cs),
(326,503,ls),
(302,531,o),
(288,552,o),
(265,572,c),
(265,574,l),
(522,574,ls),
(541,574,o),
(552,585,o),
(552,604,cs),
(552,690,ls),
(552,709,o),
(541,720,o),
(522,720,cs),
(70,720,ls),
(51,720,o),
(40,709,o),
(40,690,cs),
(40,601,ls),
(40,574,o),
(57,555,o),
(69,542,cs),
(229,360,l),
(69,158,ls),
(58,144,o),
(40,126,o),
(40,99,cs),
(40,30,ls),
(40,11,o),
(51,0,o),
(70,0,cs)
);
}
);
width = 592;
},
{
background = {
shapes = (
{
closed = 1;
nodes = (
(310,341,o),
(291,326,o),
(279,312,cs),
(97,102,ls),
(85,88,o),
(74,71,o),
(74,55,cs),
(74,30,ls),
(74,12,o),
(85,0,o),
(104,0,cs),
(510,0,ls),
(529,0,o),
(540,11,o),
(540,30,cs),
(540,38,ls),
(540,57,o),
(529,68,o),
(510,68,cs),
(162,68,l),
(162,72,l),
(185,90,o),
(193,98,o),
(220,128,cs),
(375,303,ls),
(383,313,o),
(391,322,o),
(391,341,cs),
(391,359,ls),
(391,378,o),
(383,387,o),
(375,397,cs),
(220,572,ls),
(193,602,o),
(184,615,o),
(161,628,c),
(161,632,l),
(510,632,ls),
(529,632,o),
(540,643,o),
(540,662,cs),
(540,670,ls),
(540,689,o),
(529,700,o),
(510,700,cs),
(88,700,ls),
(69,700,o),
(58,689,o),
(58,670,cs),
(58,651,ls),
(58,634,o),
(76,615,o),
(87,602,cs),
(279,388,ls),
(291,374,o),
(310,359,o),
(318,352,c),
(318,348,l)
);
}
);
};
layerId = m004;
shapes = (
{
closed = 1;
nodes = (
(510,0,ls),
(529,0,o),
(540,11,o),
(540,30,cs),
(540,38,ls),
(540,57,o),
(529,68,o),
(510,68,cs),
(153,68,l),
(153,70,l),
(174,84,o),
(191,97,o),
(205,113,cs),
(375,307,ls),
(384,317,o),
(391,326,o),
(391,345,cs),
(391,355,ls),
(391,374,o),
(384,383,o),
(375,393,cs),
(203,595,ls),
(191,609,o),
(171,623,o),
(155,630,c),
(155,632,l),
(510,632,ls),
(529,632,o),
(540,643,o),
(540,662,cs),
(540,670,ls),
(540,689,o),
(529,700,o),
(510,700,cs),
(88,700,ls),
(69,700,o),
(58,689,o),
(58,670,cs),
(58,651,ls),
(58,634,o),
(75,615,o),
(87,602,cs),
(310,352,l),
(97,102,ls),
(85,88,o),
(74,71,o),
(74,55,cs),
(74,30,ls),
(74,12,o),
(85,0,o),
(104,0,cs)
);
}
);
width = 598;
},
{
background = {
shapes = (
{
closed = 1;
nodes = (
(313,341,o),
(294,326,o),
(282,312,cs),
(100,102,ls),
(88,88,o),
(77,71,o),
(77,55,cs),
(77,30,ls),
(77,12,o),
(88,0,o),
(107,0,cs),
(513,0,ls),
(532,0,o),
(543,11,o),
(543,30,cs),
(543,38,ls),
(543,57,o),
(532,68,o),
(513,68,cs),
(165,68,l),
(165,72,l),
(188,90,o),
(196,98,o),
(223,128,cs),
(378,303,ls),
(386,313,o),
(394,322,o),
(394,341,cs),
(394,359,ls),
(394,378,o),
(386,387,o),
(378,397,cs),
(223,572,ls),
(196,602,o),
(187,615,o),
(164,628,c),
(164,632,l),
(513,632,ls),
(532,632,o),
(543,643,o),
(543,662,cs),
(543,670,ls),
(543,689,o),
(532,700,o),
(513,700,cs),
(91,700,ls),
(72,700,o),
(61,689,o),
(61,670,cs),
(61,651,ls),
(61,634,o),
(79,615,o),
(90,602,cs),
(282,388,ls),
(294,374,o),
(313,359,o),
(321,352,c),
(321,348,l)
);
}
);
};
layerId = m005;
shapes = (
{
closed = 1;
nodes = (
(507,0,ls),
(511,0,o),
(513,2,o),
(513,6,cs),
(513,14,ls),
(513,18,o),
(511,20,o),
(507,20,cs),
(91,20,l),
(91,22,l),
(105,34,o),
(119,52,o),
(131,68,cs),
(343,351,ls),
(345,354,o),
(346,355,o),
(346,358,cs),
(346,366,ls),
(346,369,o),
(345,370,o),
(343,373,cs),
(122,643,ls),
(112,655,o),
(100,670,o),
(89,678,c),
(89,680,l),
(507,680,ls),
(511,680,o),
(513,682,o),
(513,686,cs),
(513,694,ls),
(513,698,o),
(511,700,o),
(507,700,cs),
(76,700,ls),
(72,700,o),
(70,698,o),
(70,694,cs),
(70,678,ls),
(70,675,o),
(71,674,o),
(73,671,cs),
(324,361,l),
(73,29,ls),
(71,26,o),
(70,25,o),
(70,22,cs),
(70,6,ls),
(70,2,o),
(72,0,o),
(76,0,cs)
);
}
);
width = 583;
}
);
unicode = 11593;
}
{
color = 4;
glyphname = "yazh-tifi";
kernLeft = "yaf-tifi";
kernRight = "yaf-tifi";
layers = (
{
layerId = m003;
shapes = (
{
closed = 1;
nodes = (
(450,0,ls),
(476,0,o),
(490,14,o),
(490,40,cs),
(490,106,ls),
(490,132,o),
(476,146,o),
(450,146,cs),
(72,146,ls),
(46,146,o),
(32,132,o),
(32,106,cs),
(32,40,ls),
(32,14,o),
(46,0,o),
(72,0,cs)
);
},
{
closed = 1;
nodes = (
(450,574,ls),
(476,574,o),
(490,588,o),
(490,614,cs),
(490,680,ls),
(490,706,o),
(476,720,o),
(450,720,cs),
(72,720,ls),
(46,720,o),
(32,706,o),
(32,680,cs),
(32,614,ls),
(32,588,o),
(46,574,o),
(72,574,cs)
);
},
{
closed = 1;
nodes = (
(352,40,l),
(352,680,l),
(172,680,l),
(172,40,l)
);
}
);
width = 522;
},
{
layerId = m004;
shapes = (
{
closed = 1;
nodes = (
(437,0,ls),
(456,0,o),
(467,11,o),
(467,30,cs),
(467,38,ls),
(467,57,o),
(456,68,o),
(437,68,cs),
(77,68,ls),
(58,68,o),
(47,57,o),
(47,38,cs),
(47,30,ls),
(47,11,o),
(58,0,o),
(77,0,cs)
);
},
{
closed = 1;
nodes = (
(437,632,ls),
(456,632,o),
(467,643,o),
(467,662,cs),
(467,670,ls),
(467,689,o),
(456,700,o),
(437,700,cs),
(77,700,ls),
(58,700,o),
(47,689,o),
(47,670,cs),
(47,662,ls),
(47,643,o),
(58,632,o),
(77,632,cs)
);
},
{
closed = 1;
nodes = (
(299,40,l),
(299,660,l),
(217,660,l),
(217,40,l)
);
}
);
width = 514;
},
{
layerId = m005;
shapes = (
{
closed = 1;
nodes = (
(391,0,ls),
(395,0,o),
(397,2,o),
(397,6,cs),
(397,14,ls),
(397,18,o),
(395,20,o),
(391,20,cs),
(63,20,ls),
(59,20,o),
(57,18,o),
(57,14,cs),
(57,6,ls),
(57,2,o),
(59,0,o),
(63,0,cs)
);
},
{
closed = 1;
nodes = (
(391,680,ls),
(395,680,o),
(397,682,o),
(397,686,cs),
(397,694,ls),
(397,698,o),
(395,700,o),
(391,700,cs),
(63,700,ls),
(59,700,o),
(57,698,o),
(57,694,cs),
(57,686,ls),
(57,682,o),
(59,680,o),
(63,680,cs)
);
},
{
closed = 1;
nodes = (
(239,10,l),
(239,690,l),
(217,690,l),
(217,10,l)
);
}
);
width = 454;
}
);
metricLeft = "yaf-tifi";
metricRight = "=|";
unicode = 11594;
}
{
color = 4;
glyphname = "yal-tifi";
kernLeft = "yaw-tifi";
kernRight = "yaw-tifi";
layers = (
{
layerId = m003;
shapes = (
{
closed = 1;
nodes = (
(203,0,ls),
(229,0,o),
(243,14,o),
(243,40,cs),
(243,154,l),
(363,298,ls),
(381,320,o),
(391,338,o),
(409,366,c),
(411,366,l),
(411,40,ls),
(411,14,o),
(425,0,o),
(451,0,cs),
(549,0,ls),
(575,0,o),
(589,14,o),
(589,40,cs),
(589,680,ls),
(589,706,o),
(575,720,o),
(549,720,cs),
(451,720,ls),
(425,720,o),
(411,706,o),
(411,680,cs),
(411,566,l),
(294,432,ls),
(265,398,o),
(253,380,o),
(245,362,c),
(243,362,l),
(243,680,ls),
(243,706,o),
(229,720,o),
(203,720,cs),
(105,720,ls),
(79,720,o),
(65,706,o),
(65,680,cs),
(65,40,ls),
(65,14,o),
(79,0,o),
(105,0,cs)
);
}
);
width = 654;
},
{
background = {
shapes = (
{
closed = 1;
nodes = (
(472,670,ls),
(472,689,o),
(461,700,o),
(442,700,cs),
(420,700,ls),
(401,700,o),
(390,689,o),
(390,670,cs),
(390,566,l),
(199,316,ls),
(190,305,o),
(178,282,o),
(166,265,c),
(162,265,l),
(162,670,ls),
(162,689,o),
(151,700,o),
(132,700,cs),
(110,700,ls),
(91,700,o),
(80,689,o),
(80,670,cs),
(80,30,ls),
(80,11,o),
(91,0,o),
(110,0,cs),
(132,0,ls),
(151,0,o),
(162,11,o),
(162,30,cs),
(162,145,l),
(352,398,ls),
(363,412,o),
(372,434,o),
(386,452,c),
(390,452,l),
(390,30,ls),
(390,11,o),
(401,0,o),
(420,0,cs),
(442,0,ls),
(461,0,o),
(472,11,o),
(472,30,cs)
);
}
);
};
layerId = m004;
shapes = (
{
closed = 1;
nodes = (
(132,0,ls),
(151,0,o),
(162,11,o),
(162,30,cs),
(162,145,l),
(361,408,ls),
(372,423,o),
(381,440,o),
(388,456,c),
(390,456,l),
(390,30,ls),
(390,11,o),
(401,0,o),
(420,0,cs),
(442,0,ls),
(461,0,o),
(472,11,o),
(472,30,cs),
(472,670,ls),
(472,689,o),
(461,700,o),
(442,700,cs),
(420,700,ls),
(401,700,o),
(390,689,o),
(390,670,cs),
(390,566,l),
(190,305,ls),
(180,291,o),
(172,277,o),
(164,260,c),
(162,260,l),
(162,670,ls),
(162,689,o),
(151,700,o),
(132,700,cs),
(110,700,ls),
(91,700,o),
(80,689,o),
(80,670,cs),
(80,30,ls),
(80,11,o),
(91,0,o),
(110,0,cs)
);
}
);
width = 552;
},
{
background = {
shapes = (
{
closed = 1;
nodes = (
(432,670,ls),
(432,689,o),
(421,700,o),
(402,700,cs),
(380,700,ls),
(361,700,o),
(350,689,o),
(350,670,cs),
(350,566,l),
(159,316,ls),
(150,305,o),
(138,282,o),
(126,265,c),
(122,265,l),
(122,670,ls),
(122,689,o),
(111,700,o),
(92,700,cs),
(70,700,ls),
(51,700,o),
(40,689,o),
(40,670,cs),
(40,30,ls),
(40,11,o),
(51,0,o),
(70,0,cs),
(92,0,ls),
(111,0,o),
(122,11,o),
(122,30,cs),
(122,145,l),
(312,398,ls),
(323,412,o),
(332,434,o),
(346,452,c),
(350,452,l),
(350,30,ls),
(350,11,o),
(361,0,o),
(380,0,cs),
(402,0,ls),
(421,0,o),
(432,11,o),
(432,30,cs)
);
}
);
};
layerId = m005;
shapes = (
{
closed = 1;
nodes = (
(106,0,ls),
(110,0,o),
(112,2,o),
(112,6,cs),
(112,159,l),
(359,488,ls),
(370,502,o),
(380,514,o),
(388,527,c),
(390,527,l),
(390,6,ls),
(390,2,o),
(392,0,o),
(396,0,cs),
(406,0,ls),
(410,0,o),
(412,2,o),
(412,6,cs),
(412,694,ls),
(412,698,o),
(410,700,o),
(406,700,cs),
(396,700,ls),
(392,700,o),
(390,697,o),
(390,694,cs),
(390,563,l),
(143,235,ls),
(134,223,o),
(123,209,o),
(114,193,c),
(112,193,l),
(112,694,ls),
(112,698,o),
(110,700,o),
(106,700,cs),
(96,700,ls),
(92,700,o),
(90,698,o),
(90,694,cs),
(90,6,ls),
(90,2,o),
(92,0,o),
(96,0,cs)
);
}
);
width = 502;
}
);
metricLeft = "yaw-tifi";
metricRight = "yaw-tifi";
unicode = 11597;
}
{
color = 4;
glyphname = "yam-tifi";
kernLeft = "yaw-tifi";
kernRight = "yam-tifi";
layers = (
{
layerId = m003;
shapes = (
{
closed = 1;
nodes = (
(529,0,ls),
(555,0,o),
(569,14,o),
(569,40,cs),
(569,106,ls),
(569,132,o),
(555,146,o),
(529,146,cs),
(245,146,l),
(245,574,l),
(529,574,ls),
(555,574,o),
(569,588,o),
(569,614,cs),
(569,680,ls),
(569,706,o),
(555,720,o),
(529,720,cs),
(105,720,ls),
(79,720,o),
(65,706,o),
(65,680,cs),
(65,40,ls),
(65,14,o),
(79,0,o),
(105,0,cs)
);
}
);
width = 602;
},
{
background = {
shapes = (
{
closed = 1;
nodes = (
(80,0,l),
(162,0,l),
(162,700,l),
(80,700,l)
);
},
{
closed = 1;
nodes = (
(120,0,l),
(536,0,l),
(536,68,l),
(120,68,l)
);
},
{
closed = 1;
nodes = (
(120,632,l),
(536,632,l),
(536,700,l),
(120,700,l)
);
}
);
};
layerId = m004;
shapes = (
{
closed = 1;
nodes = (
(506,0,ls),
(525,0,o),
(536,11,o),
(536,30,cs),
(536,38,ls),
(536,57,o),
(525,68,o),
(506,68,cs),
(162,68,l),
(162,632,l),
(506,632,ls),
(525,632,o),
(536,643,o),
(536,662,cs),
(536,670,ls),
(536,689,o),
(525,700,o),
(506,700,cs),
(110,700,ls),
(91,700,o),
(80,689,o),
(80,670,cs),
(80,30,ls),
(80,11,o),
(91,0,o),
(110,0,cs)
);
}
);
width = 584;
},
{
background = {
shapes = (
{
closed = 1;
nodes = (
(70,0,l),
(152,0,l),
(152,700,l),
(70,700,l)
);
},
{
closed = 1;
nodes = (
(110,0,l),
(526,0,l),
(526,68,l),
(110,68,l)
);
},
{
closed = 1;
nodes = (
(110,632,l),
(526,632,l),
(526,700,l),
(110,700,l)
);
}
);
};
layerId = m005;
shapes = (
{
closed = 1;
nodes = (
(490,0,ls),
(494,0,o),
(496,2,o),
(496,6,cs),
(496,14,ls),
(496,18,o),
(494,20,o),
(490,20,cs),
(112,20,l),
(112,680,l),
(490,680,ls),
(494,680,o),
(496,682,o),
(496,686,cs),
(496,694,ls),
(496,698,o),
(494,700,o),
(490,700,cs),
(96,700,ls),
(92,700,o),
(90,697,o),
(90,694,cs),
(90,6,ls),
(90,2,o),
(93,0,o),
(96,0,cs)
);
}
);
width = 554;
}
);
metricLeft = "yaw-tifi";
unicode = 11598;
}
{
color = 4;
glyphname = "yan-tifi";
kernLeft = "yaw-tifi";
kernRight = "yaw-tifi";
layers = (
{
layerId = m003;
shapes = (
{
closed = 1;
nodes = (
(228,0,ls),
(254,0,o),
(268,14,o),
(268,40,cs),
(268,680,ls),
(268,706,o),
(254,720,o),
(228,720,cs),
(128,720,ls),
(102,720,o),
(88,706,o),
(88,680,cs),
(88,40,ls),
(88,14,o),
(102,0,o),
(128,0,cs)
);
}
);
width = 356;
},
{
layerId = m004;
shapes = (
{
closed = 1;
nodes = (
(158,0,ls),
(177,0,o),
(188,11,o),
(188,30,cs),
(188,670,ls),
(188,689,o),
(177,700,o),
(158,700,cs),
(136,700,ls),
(117,700,o),
(106,689,o),
(106,670,cs),
(106,30,ls),
(106,11,o),
(117,0,o),
(136,0,cs)
);
}
);
width = 294;
},
{
layerId = m005;
shapes = (
{
closed = 1;
nodes = (
(134,0,ls),
(138,0,o),
(140,3,o),
(140,6,cs),
(140,694,ls),
(140,698,o),
(138,700,o),
(134,700,cs),
(124,700,ls),
(120,700,o),
(118,698,o),
(118,694,cs),
(118,6,ls),
(118,2,o),
(120,0,o),
(124,0,cs)
);
}
);
width = 258;
}
);
metricLeft = "=yaw-tifi+10";
metricRight = "=yaw-tifi+10";
unicode = 11599;
}
{
color = 4;
glyphname = "yu-tifi";
kernLeft = "yu-tifi";
kernRight = "yu-tifi";
layers = (
{
layerId = m003;
shapes = (
{
closed = 1;
nodes = (
(317,435,o),
(385,500,o),
(385,585,cs),
(385,673,o),
(317,736,o),
(216,736,cs),
(116,736,o),
(48,673,o),
(48,585,cs),
(48,500,o),
(116,435,o),
(216,435,cs)
);
},
{
closed = 1;
nodes = (
(317,-16,o),
(385,49,o),
(385,134,cs),
(385,222,o),
(317,285,o),
(216,285,cs),
(116,285,o),
(48,222,o),
(48,134,cs),
(48,49,o),
(116,-16,o),
(216,-16,cs)
);
},
{
closed = 1;
nodes = (
(197,93,o),
(182,109,o),
(182,134,cs),
(182,160,o),
(197,176,o),
(216,176,cs),
(236,176,o),
(251,160,o),
(251,134,cs),
(251,109,o),
(236,93,o),
(216,93,cs)
);
},
{
closed = 1;
nodes = (
(197,544,o),
(182,560,o),
(182,585,cs),
(182,611,o),
(197,627,o),
(216,627,cs),
(236,627,o),
(251,611,o),
(251,585,cs),
(251,560,o),
(236,544,o),
(216,544,cs)
);
}
);
width = 433;
},
{
background = {
shapes = (
{
closed = 1;
nodes = (
(298,-6,o),
(355,48,o),
(355,119,cs),
(355,192,o),
(298,245,o),
(212,245,cs),
(127,245,o),
(70,192,o),
(70,119,cs),
(70,48,o),
(127,-6,o),
(212,-6,cs)
);
},
{
closed = 1;
nodes = (
(173,46,o),
(144,74,o),
(144,119,cs),
(144,166,o),
(173,193,o),
(213,193,cs),
(254,193,o),
(283,166,o),
(283,119,cs),
(283,74,o),
(254,46,o),
(213,46,cs)
);
}
);
};
layerId = m004;
shapes = (
{
closed = 1;
nodes = (
(304,-6,o),
(363,56,o),
(363,133,cs),
(363,214,o),
(304,273,o),
(215,273,cs),
(127,273,o),
(68,214,o),
(68,133,cs),
(68,56,o),
(127,-6,o),
(215,-6,cs)
);
},
{
closed = 1;
nodes = (
(175,60,o),
(146,88,o),
(146,133,cs),
(146,180,o),
(175,207,o),
(215,207,cs),
(256,207,o),
(285,180,o),
(285,133,cs),
(285,88,o),
(256,60,o),
(215,60,cs)
);
},
{
closed = 1;
nodes = (
(300,435,o),
(359,495,o),
(359,574,cs),
(359,653,o),
(300,710,o),
(212,710,cs),
(125,710,o),
(66,653,o),
(66,574,cs),
(66,495,o),
(125,435,o),
(212,435,cs)
);
},
{
closed = 1;
nodes = (
(173,501,o),
(144,529,o),
(144,574,cs),
(144,618,o),
(173,644,o),
(213,644,cs),
(254,644,o),
(283,618,o),
(283,574,cs),
(283,529,o),
(254,501,o),
(213,501,cs)
);
}
);
width = 429;
},
{
background = {
shapes = (
{
closed = 1;
nodes = (
(294,-6,o),
(351,48,o),
(351,119,cs),
(351,192,o),
(294,245,o),
(208,245,cs),
(123,245,o),
(66,192,o),
(66,119,cs),
(66,48,o),
(123,-6,o),
(208,-6,cs)
);
},
{
closed = 1;
nodes = (
(169,46,o),
(140,74,o),
(140,119,cs),
(140,166,o),
(169,193,o),
(209,193,cs),
(250,193,o),
(279,166,o),
(279,119,cs),
(279,74,o),
(250,46,o),
(209,46,cs)
);
}
);
};
layerId = m005;
shapes = (
{
closed = 1;
nodes = (
(298,431,o),
(353,491,o),
(353,570,cs),
(353,651,o),
(298,710,o),
(215,710,cs),
(133,710,o),
(78,651,o),
(78,570,cs),
(78,491,o),
(133,431,o),
(215,431,cs)
);
},
{
closed = 1;
nodes = (
(298,-6,o),
(353,54,o),
(353,133,cs),
(353,214,o),
(298,273,o),
(215,273,cs),
(133,273,o),
(78,214,o),
(78,133,cs),
(78,54,o),
(133,-6,o),
(215,-6,cs)
);
},
{
closed = 1;
nodes = (
(149,16,o),
(102,61,o),
(102,133,cs),
(102,208,o),
(150,251,o),
(215,251,cs),
(281,251,o),
(329,208,o),
(329,133,cs),
(329,61,o),
(282,16,o),
(215,16,cs)
);
},
{
closed = 1;
nodes = (
(149,453,o),
(102,498,o),
(102,570,cs),
(102,645,o),
(150,688,o),
(215,688,cs),
(281,688,o),
(329,645,o),
(329,570,cs),
(329,498,o),
(282,453,o),
(215,453,cs)
);
}
);
width = 431;
}
);
metricRight = "=|";
unicode = 11603;
}
{
color = 4;
glyphname = "yar-tifi";
kernLeft = "yar-tifi";
kernRight = "yar-tifi";
layers = (
{
layerId = m003;
shapes = (
{
closed = 1;
nodes = (
(626,-16,o),
(778,140,o),
(778,362,cs),
(778,581,o),
(626,736,o),
(411,736,cs),
(198,736,o),
(47,581,o),
(47,362,cs),
(47,140,o),
(198,-16,o),
(411,-16,cs)
);
},
{
closed = 1;
nodes = (
(304,134,o),
(229,228,o),
(229,361,cs),
(229,494,o),
(304,586,o),
(411,586,cs),
(520,586,o),
(596,494,o),
(596,361,cs),
(596,228,o),
(520,134,o),
(411,134,cs)
);
}
);
width = 825;
},
{
layerId = m004;
shapes = (
{
closed = 1;
nodes = (
(629,-11,o),
(776,138,o),
(776,350,cs),
(776,561,o),
(629,710,o),
(420,710,cs),
(211,710,o),
(65,561,o),
(65,350,cs),
(65,138,o),
(211,-11,o),
(420,-11,cs)
);
},
{
closed = 1;
nodes = (
(265,59,o),
(157,180,o),
(157,350,cs),
(157,520,o),
(265,640,o),
(420,640,cs),
(575,640,o),
(684,520,o),
(684,350,cs),
(684,180,o),
(575,59,o),
(420,59,cs)
);
}
);
width = 841;
},
{
layerId = m005;
shapes = (
{
closed = 1;
nodes = (
(609,-11,o),
(748,142,o),
(748,350,cs),
(748,558,o),
(609,710,o),
(412,710,cs),
(215,710,o),
(77,558,o),
(77,350,cs),
(77,142,o),
(215,-11,o),
(412,-11,cs)
);
},
{
closed = 1;
nodes = (
(229,11,o),
(101,155,o),
(101,350,cs),
(101,545,o),
(229,688,o),
(412,688,cs),
(595,688,o),
(724,545,o),
(724,350,cs),
(724,155,o),
(595,11,o),
(412,11,cs)
);
}
);
width = 825;
}
);
metricRight = "=|";
unicode = 11604;
}
{
color = 4;
glyphname = "yarr-tifi";
kernLeft = "yar-tifi";
kernRight = "yar-tifi";
layers = (
{
layerId = m003;
shapes = (
{
closed = 1;
nodes = (
(696,8,ls),
(718,22,o),
(721,43,o),
(706,64,cs),
(484,366,ls),
(469,386,o),
(449,389,o),
(428,375,cs),
(372,338,ls),
(350,324,o),
(347,303,o),
(362,282,cs),
(585,-20,ls),
(600,-40,o),
(619,-43,o),
(640,-29,cs)
);
},
{
ref = "yar-tifi";
}
);
width = 809;
},
{
layerId = m004;
shapes = (
{
closed = 1;
nodes = (
(681,-19,ls),
(695,-7,o),
(698,9,o),
(687,24,cs),
(453,341,ls),
(441,357,o),
(427,360,o),
(411,347,cs),
(395,334,ls),
(380,322,o),
(378,306,o),
(389,291,cs),
(624,-26,ls),
(636,-42,o),
(651,-44,o),
(666,-31,cs)
);
},
{
ref = "yar-tifi";
}
);
width = 819;
},
{
layerId = m005;
shapes = (
{
closed = 1;
nodes = (
(665,-17,ls),
(668,-14,o),
(669,-11,o),
(667,-8,cs),
(440,299,ls),
(438,302,o),
(434,303,o),
(431,300,cs),
(424,295,ls),
(421,292,o),
(421,289,o),
(423,286,cs),
(650,-21,ls),
(652,-24,o),
(656,-24,o),
(659,-22,cs)
);
},
{
ref = "yar-tifi";
}
);
width = 799;
}
);
metricLeft = "yar-tifi";
metricRight = "yar-tifi";
unicode = 11605;
}
{
color = 4;
glyphname = "yas-tifi";
kernLeft = "yar-tifi";
kernRight = "yar-tifi";
layers = (
{
layerId = m003;
shapes = (
{
closed = 1;
nodes = (
(476,251,o),
(519,295,o),
(519,360,cs),
(519,426,o),
(476,470,o),
(411,470,cs),
(347,470,o),
(304,426,o),
(304,360,cs),
(304,295,o),
(347,251,o),
(411,251,cs)
);
},
{
ref = "yar-tifi";
}
);
width = 825;
},
{
layerId = m004;
shapes = (
{
closed = 1;
nodes = (
(475,255,o),
(514,294,o),
(514,349,cs),
(514,405,o),
(475,444,o),
(420,444,cs),
(364,444,o),
(325,405,o),
(325,349,cs),
(325,294,o),
(364,255,o),
(420,255,cs)
);
},
{
ref = "yar-tifi";
}
);
width = 841;
},
{
layerId = m005;
shapes = (
{
closed = 1;
nodes = (
(433,309,o),
(450,326,o),
(450,349,cs),
(450,373,o),
(433,390,o),
(410,390,cs),
(386,390,o),
(369,373,o),
(369,349,cs),
(369,326,o),
(386,309,o),
(410,309,cs)
);
},
{
ref = "yar-tifi";
}
);
width = 825;
}
);
metricLeft = "yar-tifi";
metricRight = "yar-tifi";
unicode = 11609;
}
{
color = 4;
glyphname = "yash-tifi";
kernLeft = "yar-tifi";
kernRight = "yu-tifi";
layers = (
{
background = {
shapes = (
{
closed = 1;
nodes = (
(467,491,o),
(442,515,o),
(442,554,cs),
(442,595,o),
(467,618,o),
(502,618,cs),
(538,618,o),
(563,595,o),
(563,554,cs),
(563,515,o),
(538,491,o),
(502,491,cs)
);
},
{
closed = 1;
nodes = (
(72,138,o),
(213,-11,o),
(426,-11,cs),
(505,-11,o),
(645,16,o),
(645,146,cs),
(645,223,o),
(588,281,o),
(502,281,cs),
(417,281,o),
(360,223,o),
(360,146,cs),
(360,105,o),
(378,69,o),
(414,43,c),
(413,59,l),
(261,62,o),
(164,182,o),
(164,350,cs),
(164,518,o),
(261,638,o),
(413,641,c),
(414,657,l),
(378,631,o),
(360,595,o),
(360,554,cs),
(360,477,o),
(417,419,o),
(502,419,cs),
(588,419,o),
(645,477,o),
(645,554,cs),
(645,684,o),
(505,711,o),
(426,711,cs),
(213,711,o),
(72,562,o),
(72,350,cs)
);
},
{
closed = 1;
nodes = (
(538,209,o),
(563,185,o),
(563,146,cs),
(563,105,o),
(538,82,o),
(502,82,cs),
(467,82,o),
(442,105,o),
(442,146,cs),
(442,185,o),
(467,209,o),
(502,209,cs)
);
}
);
};
layerId = m003;
shapes = (
{
closed = 1;
nodes = (
(546,-16,o),
(691,33,o),
(691,167,cs),
(691,252,o),
(627,317,o),
(532,317,cs),
(456,317,o),
(396,260,o),
(394,189,cs),
(392,154,o),
(401,127,o),
(422,102,c),
(421,100,l),
(419,100,o),
(417,100,o),
(416,100,cs),
(335,100,o),
(229,198,o),
(229,361,cs),
(229,524,o),
(335,605,o),
(409,605,cs),
(410,605,o),
(411,605,o),
(412,605,c),
(412,603,l),
(399,581,o),
(393,559,o),
(394,531,cs),
(396,460,o),
(456,403,o),
(532,403,cs),
(627,403,o),
(691,468,o),
(691,553,cs),
(691,687,o),
(546,736,o),
(431,736,cs),
(206,736,o),
(47,581,o),
(47,360,cs),
(47,139,o),
(206,-16,o),
(431,-16,cs)
);
},
{
closed = 1;
nodes = (
(513,136,o),
(498,152,o),
(498,177,cs),
(498,201,o),
(513,217,o),
(532,217,cs),
(552,217,o),
(567,201,o),
(567,177,cs),
(567,152,o),
(552,136,o),
(532,136,cs)
);
},
{
closed = 1;
nodes = (
(513,504,o),
(498,519,o),
(498,543,cs),
(498,568,o),
(513,584,o),
(532,584,cs),
(552,584,o),
(567,568,o),
(567,543,cs),
(567,519,o),
(552,504,o),
(532,504,cs)
);
}
);
width = 739;
},
{
layerId = m004;
shapes = (
{
closed = 1;
nodes = (
(499,-11,o),
(640,16,o),
(640,146,cs),
(640,225,o),
(582,284,o),
(495,284,cs),
(409,284,o),
(351,221,o),
(351,153,cs),
(351,106,o),
(376,60,o),
(429,44,c),
(429,42,l),
(428,42,o),
(427,42,o),
(426,42,cs),
(267,47,o),
(157,177,o),
(157,350,cs),
(157,522,o),
(266,652,o),
(426,658,cs),
(427,658,o),
(429,658,o),
(431,658,c),
(431,656,l),
(390,643,o),
(351,603,o),
(351,547,cs),
(351,479,o),
(409,416,o),
(495,416,cs),
(582,416,o),
(640,475,o),
(640,554,cs),
(640,684,o),
(499,711,o),
(419,711,cs),
(206,711,o),
(65,562,o),
(65,350,cs),
(65,138,o),
(206,-11,o),
(419,-11,cs)
);
},
{
closed = 1;
nodes = (
(460,85,o),
(435,108,o),
(435,149,cs),
(435,188,o),
(460,212,o),
(495,212,cs),
(531,212,o),
(556,188,o),
(556,149,cs),
(556,108,o),
(531,85,o),
(495,85,cs)
);
},
{
closed = 1;
nodes = (
(460,488,o),
(435,512,o),
(435,551,cs),
(435,592,o),
(460,615,o),
(495,615,cs),
(531,615,o),
(556,592,o),
(556,551,cs),
(556,512,o),
(531,488,o),
(495,488,cs)
);
}
);
width = 706;
},
{
layerId = m005;
shapes = (
{
closed = 1;
nodes = (
(536,-11,o),
(659,29,o),
(659,151,cs),
(659,230,o),
(604,290,o),
(521,290,cs),
(439,290,o),
(384,230,o),
(384,151,cs),
(384,85,o),
(420,32,o),
(498,17,c),
(498,15,l),
(473,11,o),
(455,11,o),
(431,11,cs),
(224,11,o),
(101,153,o),
(101,350,cs),
(101,547,o),
(224,689,o),
(431,689,cs),
(455,689,o),
(473,689,o),
(498,685,c),
(498,683,l),
(420,668,o),
(384,615,o),
(384,549,cs),
(384,470,o),
(439,410,o),
(521,410,cs),
(604,410,o),
(659,470,o),
(659,549,cs),
(659,671,o),
(536,711,o),
(431,711,cs),
(218,711,o),
(77,562,o),
(77,350,cs),
(77,138,o),
(218,-11,o),
(431,-11,cs)
);
},
{
closed = 1;
nodes = (
(456,34,o),
(408,76,o),
(408,151,cs),
(408,223,o),
(455,268,o),
(521,268,cs),
(588,268,o),
(635,223,o),
(635,151,cs),
(635,76,o),
(587,34,o),
(521,34,cs)
);
},
{
closed = 1;
nodes = (
(455,432,o),
(408,477,o),
(408,549,cs),
(408,624,o),
(456,666,o),
(521,666,cs),
(587,666,o),
(635,624,o),
(635,549,cs),
(635,477,o),
(588,432,o),
(521,432,cs)
);
}
);
width = 737;
}
);
metricLeft = "yar-tifi";
metricRight = "yu-tifi";
unicode = 11611;
}
{
color = 4;
glyphname = "yat-tifi";
kernLeft = "yat-tifi";
kernRight = "yat-tifi";
layers = (
{
layerId = m003;
shapes = (
{
closed = 1;
nodes = (
(540,277,ls),
(566,277,o),
(580,291,o),
(580,317,cs),
(580,403,ls),
(580,429,o),
(566,443,o),
(540,443,cs),
(70,443,ls),
(44,443,o),
(30,429,o),
(30,403,cs),
(30,317,ls),
(30,291,o),
(44,277,o),
(70,277,cs)
);
},
{
pos = (141,0);
ref = "yan-tifi";
}
);
width = 610;
},
{
layerId = m004;
shapes = (
{
closed = 1;
nodes = (
(495,316,ls),
(514,316,o),
(525,327,o),
(525,346,cs),
(525,354,ls),
(525,373,o),
(514,384,o),
(495,384,cs),
(75,384,ls),
(56,384,o),
(45,373,o),
(45,354,cs),
(45,346,ls),
(45,327,o),
(56,316,o),
(75,316,cs)
);
},
{
alignment = -1;
pos = (164,0);
ref = "yan-tifi";
}
);
width = 570;
},
{
layerId = m005;
shapes = (
{
closed = 1;
nodes = (
(429,340,ls),
(433,340,o),
(435,342,o),
(435,346,cs),
(435,354,ls),
(435,358,o),
(433,360,o),
(429,360,cs),
(61,360,ls),
(57,360,o),
(55,358,o),
(55,354,cs),
(55,346,ls),
(55,342,o),
(57,340,o),
(61,340,cs)
);
},
{
alignment = -1;
pos = (114,0);
ref = "yan-tifi";
}
);
width = 490;
}
);
unicode = 11612;
}
{
color = 4;
glyphname = "yatt-tifi";
kernLeft = "yaw-tifi";
kernRight = "yadd-tifi";
layers = (
{
layerId = m003;
shapes = (
{
closed = 1;
nodes = (
(487,295,ls),
(513,295,o),
(527,309,o),
(527,335,cs),
(527,385,ls),
(527,411,o),
(513,425,o),
(487,425,cs),
(224,425,ls),
(198,425,o),
(184,411,o),
(184,385,cs),
(184,335,ls),
(184,309,o),
(198,295,o),
(224,295,cs)
);
},
{
ref = "yam-tifi";
},
{
closed = 1;
nodes = (
(398,214,ls),
(424,214,o),
(438,228,o),
(438,254,cs),
(438,467,ls),
(438,493,o),
(424,507,o),
(398,507,cs),
(348,507,ls),
(322,507,o),
(308,493,o),
(308,467,cs),
(308,254,ls),
(308,228,o),
(322,214,o),
(348,214,cs)
);
}
);
width = 612;
},
{
layerId = m004;
shapes = (
{
closed = 1;
nodes = (
(439,324,ls),
(458,324,o),
(469,335,o),
(469,354,cs),
(469,362,ls),
(469,381,o),
(458,392,o),
(439,392,cs),
(156,392,ls),
(137,392,o),
(126,381,o),
(126,362,cs),
(126,354,ls),
(126,335,o),
(137,324,o),
(156,324,cs)
);
},
{
ref = "yam-tifi";
},
{
closed = 1;
nodes = (
(305,190,ls),
(324,190,o),
(335,201,o),
(335,220,cs),
(335,496,ls),
(335,515,o),
(324,526,o),
(305,526,cs),
(297,526,ls),
(278,526,o),
(267,515,o),
(267,496,cs),
(267,220,ls),
(267,201,o),
(278,190,o),
(297,190,cs)
);
}
);
width = 584;
},
{
layerId = m005;
shapes = (
{
closed = 1;
nodes = (
(280,186,ls),
(284,186,o),
(286,189,o),
(286,192,cs),
(286,520,ls),
(286,524,o),
(284,526,o),
(280,526,cs),
(270,526,ls),
(266,526,o),
(264,524,o),
(264,520,cs),
(264,192,ls),
(264,188,o),
(266,186,o),
(270,186,cs)
);
},
{
ref = "yam-tifi";
},
{
closed = 1;
nodes = (
(419,340,ls),
(423,340,o),
(425,342,o),
(425,346,cs),
(425,354,ls),
(425,358,o),
(423,360,o),
(419,360,cs),
(111,360,ls),
(107,360,o),
(105,358,o),
(105,354,cs),
(105,346,ls),
(105,342,o),
(107,340,o),
(111,340,cs)
);
}
);
width = 564;
}
);
metricLeft = "yaw-tifi";
metricRight = "yadd-tifi";
unicode = 11615;
}
{
color = 4;
glyphname = "yaw-tifi";
kernLeft = "yaw-tifi";
kernRight = "yaw-tifi";
layers = (
{
layerId = m003;
shapes = (
{
closed = 1;
nodes = (
(644,0,ls),
(670,0,o),
(684,14,o),
(684,40,cs),
(684,680,ls),
(684,706,o),
(670,720,o),
(644,720,cs),
(544,720,ls),
(518,720,o),
(504,706,o),
(504,680,cs),
(504,146,l),
(258,146,l),
(258,680,ls),
(258,706,o),
(244,720,o),
(218,720,cs),
(118,720,ls),
(92,720,o),
(78,706,o),
(78,680,cs),
(78,40,ls),
(78,14,o),
(92,0,o),
(118,0,cs)
);
}
);
width = 762;
},
{
layerId = m004;
shapes = (
{
closed = 1;
nodes = (
(592,0,ls),
(611,0,o),
(622,11,o),
(622,30,cs),
(622,670,ls),
(622,689,o),
(611,700,o),
(592,700,cs),
(570,700,ls),
(551,700,o),
(540,689,o),
(540,670,cs),
(540,68,l),
(178,68,l),
(178,670,ls),
(178,689,o),
(167,700,o),
(148,700,cs),
(126,700,ls),
(107,700,o),
(96,689,o),
(96,670,cs),
(96,30,ls),
(96,11,o),
(107,0,o),
(126,0,cs)
);
}
);
width = 718;
},
{
layerId = m005;
shapes = (
{
closed = 1;
nodes = (
(588,0,ls),
(592,0,o),
(594,2,o),
(594,6,cs),
(594,694,ls),
(594,698,o),
(592,700,o),
(588,700,cs),
(578,700,ls),
(574,700,o),
(572,698,o),
(572,694,cs),
(572,20,l),
(130,20,l),
(130,694,ls),
(130,698,o),
(128,700,o),
(124,700,cs),
(114,700,ls),
(110,700,o),
(108,697,o),
(108,694,cs),
(108,6,ls),
(108,2,o),
(110,0,o),
(114,0,cs)
);
}
);
width = 702;
}
);
unicode = 11617;
}
{
color = 4;
glyphname = "yay-tifi";
kernLeft = "yi-tifi";
kernRight = "yay-tifi";
layers = (
{
layerId = m003;
shapes = (
{
closed = 1;
nodes = (
(193,0,ls),
(213,0,o),
(231,2,o),
(243,19,cs),
(421,274,ls),
(431,289,o),
(440,303,o),
(440,323,cs),
(440,382,ls),
(440,402,o),
(416,418,o),
(401,432,cs),
(292,537,ls),
(271,557,o),
(253,565,o),
(236,572,c),
(236,574,l),
(539,574,ls),
(558,574,o),
(569,585,o),
(569,604,cs),
(569,690,ls),
(569,709,o),
(558,720,o),
(539,720,cs),
(87,720,ls),
(68,720,o),
(57,709,o),
(57,690,cs),
(57,581,ls),
(57,554,o),
(74,535,o),
(86,522,cs),
(263,341,l),
(52,49,ls),
(31,20,o),
(38,0,o),
(73,0,cs)
);
}
);
width = 604;
},
{
layerId = m004;
shapes = (
{
closed = 1;
nodes = (
(139,0,ls),
(154,0,o),
(168,5,o),
(176,17,cs),
(374,295,ls),
(382,307,o),
(388,317,o),
(388,332,cs),
(388,359,ls),
(388,378,o),
(381,388,o),
(372,397,cs),
(194,586,ls),
(178,603,o),
(159,618,o),
(139,630,c),
(139,632,l),
(497,632,ls),
(516,632,o),
(527,643,o),
(527,662,cs),
(527,670,ls),
(527,689,o),
(516,700,o),
(497,700,cs),
(89,700,ls),
(70,700,o),
(58,690,o),
(58,671,cs),
(58,651,ls),
(58,635,o),
(72,617,o),
(84,604,cs),
(313,346,l),
(96,37,ls),
(80,15,o),
(86,0,o),
(112,0,cs)
);
}
);
width = 580;
},
{
background = {
shapes = (
{
closed = 1;
nodes = (
(111,37,ls),
(95,15,o),
(101,0,o),
(127,0,cs),
(154,0,ls),
(169,0,o),
(183,5,o),
(191,17,cs),
(389,295,ls),
(397,307,o),
(403,317,o),
(403,332,cs),
(403,359,ls),
(403,378,o),
(396,388,o),
(387,397,cs),
(209,586,ls),
(193,603,o),
(175,620,o),
(154,632,c),
(512,632,ls),
(531,632,o),
(542,643,o),
(542,662,cs),
(542,670,ls),
(542,689,o),
(531,700,o),
(512,700,cs),
(104,700,ls),
(85,700,o),
(73,690,o),
(73,671,cs),
(73,651,ls),
(73,635,o),
(87,617,o),
(99,604,cs),
(328,346,l)
);
}
);
};
layerId = m005;
shapes = (
{
closed = 1;
nodes = (
(87,0,ls),
(90,0,o),
(93,2,o),
(95,4,cs),
(355,351,ls),
(357,354,o),
(358,355,o),
(358,358,cs),
(358,366,ls),
(358,369,o),
(357,370,o),
(355,373,cs),
(134,643,ls),
(124,655,o),
(111,670,o),
(100,678,c),
(100,680,l),
(519,680,ls),
(523,680,o),
(525,682,o),
(525,686,cs),
(525,694,ls),
(525,698,o),
(523,700,o),
(519,700,cs),
(88,700,ls),
(84,700,o),
(82,698,o),
(82,694,cs),
(82,678,ls),
(82,675,o),
(83,674,o),
(85,671,cs),
(336,361,l),
(71,7,ls),
(68,3,o),
(70,0,o),
(75,0,cs)
);
}
);
width = 590;
}
);
metricLeft = "yi-tifi";
unicode = 11618;
userData = {
KernOnName = "yay-tifi";
};
}
{
color = 4;
glyphname = "yaz-tifi";
kernLeft = "yaz-tifi";
kernRight = "yaz-tifi";
layers = (
{
layerId = m003;
shapes = (
{
closed = 1;
nodes = (
(631,398,o),
(742,515,o),
(771,676,cs),
(776,703,o),
(761,720,o),
(734,720,cs),
(620,720,ls),
(595,720,o),
(582,707,o),
(577,683,cs),
(556,578,o),
(517,501,o),
(410,501,cs),
(303,501,o),
(264,573,o),
(243,682,cs),
(238,707,o),
(225,720,o),
(200,720,cs),
(85,720,ls),
(58,720,o),
(43,704,o),
(47,677,cs),
(76,509,o),
(189,398,o),
(410,398,cs)
);
},
{
closed = 1;
nodes = (
(200,0,ls),
(225,0,o),
(238,13,o),
(243,38,cs),
(263,147,o),
(302,219,o),
(410,219,cs),
(518,219,o),
(556,142,o),
(577,37,cs),
(582,13,o),
(595,0,o),
(620,0,cs),
(734,0,ls),
(761,0,o),
(776,17,o),
(771,44,cs),
(742,204,o),
(632,322,o),
(410,322,cs),
(188,322,o),
(76,211,o),
(47,43,cs),
(43,16,o),
(58,0,o),
(85,0,cs)
);
},
{
pos = (232,0);
ref = "yan-tifi";
}
);
width = 818;
},
{
layerId = m004;
shapes = (
{
closed = 1;
nodes = (
(554,408,o),
(655,521,o),
(667,669,cs),
(668,689,o),
(656,700,o),
(637,700,cs),
(608,700,ls),
(589,700,o),
(579,690,o),
(578,671,cs),
(568,563,o),
(503,478,o),
(366,478,cs),
(228,478,o),
(163,556,o),
(153,670,cs),
(152,690,o),
(142,700,o),
(123,700,cs),
(94,700,ls),
(75,700,o),
(63,689,o),
(64,669,cs),
(76,513,o),
(177,408,o),
(366,408,cs)
);
},
{
closed = 1;
nodes = (
(123,0,ls),
(142,0,o),
(152,9,o),
(153,29,cs),
(163,143,o),
(228,221,o),
(366,221,cs),
(503,221,o),
(568,136,o),
(578,28,cs),
(579,9,o),
(589,-1,o),
(608,-1,cs),
(637,-1,ls),
(656,-1,o),
(668,10,o),
(667,30,cs),
(655,178,o),
(554,291,o),
(366,291,cs),
(177,291,o),
(76,187,o),
(64,31,cs),
(63,11,o),
(75,0,o),
(94,0,cs)
);
},
{
pos = (219,0);
ref = "yan-tifi";
}
);
width = 731;
},
{
layerId = m005;
shapes = (
{
closed = 1;
nodes = (
(547,418,o),
(645,538,o),
(658,694,cs),
(659,698,o),
(657,700,o),
(653,700,cs),
(643,700,ls),
(640,700,o),
(637,698,o),
(636,694,cs),
(622,551,o),
(539,438,o),
(368,438,cs),
(196,438,o),
(113,541,o),
(98,694,cs),
(98,698,o),
(95,700,o),
(92,700,cs),
(82,700,ls),
(78,700,o),
(76,698,o),
(76,694,cs),
(90,529,o),
(188,418,o),
(368,418,cs)
);
},
{
closed = 1;
nodes = (
(92,0,ls),
(95,0,o),
(98,2,o),
(98,6,cs),
(112,159,o),
(196,262,o),
(368,262,cs),
(539,262,o),
(623,149,o),
(636,6,cs),
(637,2,o),
(640,0,o),
(643,0,cs),
(653,0,ls),
(657,0,o),
(659,2,o),
(658,6,cs),
(644,161,o),
(548,282,o),
(368,282,cs),
(187,282,o),
(90,171,o),
(76,6,cs),
(76,2,o),
(78,0,o),
(82,0,cs)
);
},
{
pos = (239,0);
ref = "yan-tifi";
}
);
width = 734;
}
);
metricRight = "=|";
unicode = 11619;
}
{
color = 4;
glyphname = "yazz-tifi";
kernLeft = "yazz-tifi";
kernRight = "yazz-tifi";
layers = (
{
layerId = m003;
shapes = (
{
closed = 1;
nodes = (
(622,458,o),
(749,549,o),
(772,676,cs),
(777,703,o),
(762,720,o),
(735,720,cs),
(621,720,ls),
(596,720,o),
(583,707,o),
(578,683,cs),
(562,606,o),
(508,551,o),
(411,551,cs),
(314,551,o),
(260,602,o),
(244,682,cs),
(239,707,o),
(226,720,o),
(201,720,cs),
(86,720,ls),
(59,720,o),
(44,704,o),
(48,677,cs),
(71,544,o),
(200,458,o),
(411,458,cs)
);
},
{
closed = 1;
nodes = (
(201,0,ls),
(226,0,o),
(239,13,o),
(244,38,cs),
(259,117,o),
(313,169,o),
(411,169,cs),
(508,169,o),
(562,114,o),
(578,37,cs),
(583,13,o),
(596,0,o),
(621,0,cs),
(735,0,ls),
(762,0,o),
(777,17,o),
(772,44,cs),
(749,170,o),
(622,262,o),
(411,262,cs),
(199,262,o),
(71,176,o),
(48,43,cs),
(44,16,o),
(59,0,o),
(86,0,cs)
);
},
{
closed = 1;
nodes = (
(461,0,ls),
(487,0,o),
(502,14,o),
(501,40,cs),
(491,363,l),
(501,680,ls),
(502,706,o),
(487,720,o),
(461,720,cs),
(361,720,ls),
(335,720,o),
(320,706,o),
(321,680,cs),
(331,363,l),
(321,40,ls),
(320,14,o),
(335,0,o),
(361,0,cs)
);
},
{
closed = 1;
nodes = (
(411,293,l),
(691,283,ls),
(717,282,o),
(731,297,o),
(731,323,cs),
(731,398,ls),
(731,424,o),
(717,439,o),
(691,438,cs),
(411,428,l),
(131,438,ls),
(105,439,o),
(91,424,o),
(91,398,cs),
(91,323,ls),
(91,297,o),
(105,282,o),
(131,283,cs)
);
}
);
width = 820;
},
{
layerId = m004;
shapes = (
{
closed = 1;
nodes = (
(555,428,o),
(657,532,o),
(668,669,cs),
(669,689,o),
(657,700,o),
(638,700,cs),
(609,700,ls),
(590,700,o),
(580,690,o),
(579,671,cs),
(570,574,o),
(504,498,o),
(367,498,cs),
(229,498,o),
(163,568,o),
(154,670,cs),
(153,690,o),
(143,700,o),
(124,700,cs),
(95,700,ls),
(76,700,o),
(64,689,o),
(65,669,cs),
(76,525,o),
(178,428,o),
(367,428,cs)
);
},
{
closed = 1;
nodes = (
(124,-1,ls),
(143,-1,o),
(153,9,o),
(154,29,cs),
(163,131,o),
(229,201,o),
(367,201,cs),
(504,201,o),
(570,125,o),
(579,28,cs),
(580,9,o),
(590,-1,o),
(609,-1,cs),
(638,-1,ls),
(657,-1,o),
(669,10,o),
(668,30,cs),
(657,167,o),
(555,271,o),
(367,271,cs),
(178,271,o),
(76,174,o),
(65,30,cs),
(64,10,o),
(76,-1,o),
(95,-1,cs)
);
},
{
closed = 1;
nodes = (
(378,0,ls),
(397,0,o),
(408,11,o),
(408,30,cs),
(405,352,l),
(408,670,ls),
(408,689,o),
(397,700,o),
(378,700,cs),
(356,700,ls),
(337,700,o),
(326,689,o),
(326,670,cs),
(329,352,l),
(326,30,ls),
(326,11,o),
(337,0,o),
(356,0,cs)
);
},
{
closed = 1;
nodes = (
(366,319,l),
(617,316,ls),
(636,316,o),
(647,327,o),
(647,346,cs),
(647,354,ls),
(647,373,o),
(636,384,o),
(617,384,cs),
(366,381,l),
(117,384,ls),
(98,384,o),
(87,373,o),
(87,354,cs),
(87,346,ls),
(87,327,o),
(98,316,o),
(117,316,cs)
);
}
);
width = 733;
},
{
layerId = m005;
shapes = (
{
closed = 1;
nodes = (
(547,418,o),
(645,529,o),
(659,694,cs),
(659,698,o),
(657,700,o),
(653,700,cs),
(643,700,ls),
(640,700,o),
(637,698,o),
(637,694,cs),
(622,541,o),
(539,438,o),
(367,438,cs),
(196,438,o),
(113,551,o),
(99,694,cs),
(98,698,o),
(95,700,o),
(92,700,cs),
(82,700,ls),
(78,700,o),
(76,698,o),
(77,694,cs),
(90,538,o),
(188,418,o),
(367,418,cs)
);
},
{
closed = 1;
nodes = (
(92,0,ls),
(95,0,o),
(98,2,o),
(99,6,cs),
(112,149,o),
(196,262,o),
(367,262,cs),
(539,262,o),
(623,159,o),
(637,6,cs),
(637,2,o),
(640,0,o),
(643,0,cs),
(653,0,ls),
(657,0,o),
(659,2,o),
(659,6,cs),
(645,171,o),
(548,282,o),
(367,282,cs),
(187,282,o),
(91,161,o),
(77,6,cs),
(76,2,o),
(78,0,o),
(82,0,cs)
);
},
{
closed = 1;
nodes = (
(373,0,ls),
(377,0,o),
(379,2,o),
(379,6,cs),
(379,350,l),
(379,694,ls),
(379,698,o),
(377,700,o),
(373,700,cs),
(363,700,ls),
(359,700,o),
(357,698,o),
(357,694,cs),
(357,350,l),
(357,6,ls),
(357,3,o),
(359,0,o),
(363,0,cs)
);
},
{
closed = 1;
nodes = (
(368,340,l),
(612,340,ls),
(616,340,o),
(618,342,o),
(618,346,cs),
(618,354,ls),
(618,358,o),
(616,360,o),
(612,360,cs),
(368,360,l),
(124,360,ls),
(120,360,o),
(118,358,o),
(118,354,cs),
(118,346,ls),
(118,342,o),
(120,340,o),
(124,340,cs)
);
}
);
width = 736;
}
);
metricRight = "=|";
unicode = 11621;
}
{
glyphname = "labialization-tifi";
kernLeft = "labialization-tifi";
kernRight = "labialization-tifi";
layers = (
{
layerId = m003;
shapes = (
{
closed = 1;
nodes = (
(70,490,ls),
(70,464,o),
(84,450,o),
(110,450,cs),
(414,450,ls),
(440,450,o),
(454,464,o),
(454,490,cs),
(454,680,ls),
(454,706,o),
(440,720,o),
(414,720,cs),
(342,720,ls),
(316,720,o),
(302,706,o),
(302,680,cs),
(302,575,l),
(222,575,l),
(222,680,ls),
(222,706,o),
(208,720,o),
(182,720,cs),
(110,720,ls),
(84,720,o),
(70,706,o),
(70,680,cs)
);
}
);
width = 524;
},
{
layerId = m004;
shapes = (
{
closed = 1;
nodes = (
(79,515,ls),
(79,496,o),
(90,485,o),
(109,485,cs),
(339,485,ls),
(358,485,o),
(369,496,o),
(369,515,cs),
(369,670,ls),
(369,689,o),
(358,700,o),
(339,700,cs),
(319,700,ls),
(300,700,o),
(289,689,o),
(289,670,cs),
(289,551,l),
(159,551,l),
(159,670,ls),
(159,689,o),
(148,700,o),
(129,700,cs),
(109,700,ls),
(90,700,o),
(79,689,o),
(79,670,cs)
);
}
);
width = 448;
},
{
layerId = m005;
shapes = (
{
closed = 1;
nodes = (
(97,511,ls),
(97,507,o),
(99,505,o),
(103,505,cs),
(325,505,ls),
(329,505,o),
(331,507,o),
(331,511,cs),
(331,694,ls),
(331,698,o),
(329,700,o),
(325,700,cs),
(315,700,ls),
(311,700,o),
(309,697,o),
(309,694,cs),
(309,525,l),
(119,525,l),
(119,694,ls),
(119,698,o),
(117,700,o),
(113,700,cs),
(103,700,ls),
(99,700,o),
(97,698,o),
(97,694,cs)
);
}
);
width = 428;
}
);
metricRight = "=|";
unicode = 11631;
}
{
glyphname = "separator-tifi";
kernLeft = "separator-tifi";
kernRight = "separator-tifi";
layers = (
{
layerId = m003;
shapes = (
{
closed = 1;
nodes = (
(590,665,l),
(590,220,o),
(310,-97,o),
(-84,-97,c),
(-84,-171,l),
(362,-171,o),
(676,173,o),
(676,665,c)
);
}
);
width = 600;
},
{
layerId = m004;
shapes = (
{
closed = 1;
nodes = (
(620,700,ls),
(601,700,o),
(590,690,o),
(590,670,cs),
(577,252,o),
(315,-46,o),
(-54,-61,cs),
(-74,-62,o),
(-84,-73,o),
(-84,-92,cs),
(-84,-106,ls),
(-84,-125,o),
(-73,-136,o),
(-54,-135,cs),
(367,-121,o),
(663,205,o),
(676,669,cs),
(676,689,o),
(665,700,o),
(646,700,cs)
);
}
);
width = 600;
},
{
layerId = m005;
shapes = (
{
closed = 1;
nodes = (
(620,700,ls),
(601,700,o),
(590,690,o),
(590,670,cs),
(577,252,o),
(315,-46,o),
(-54,-61,cs),
(-74,-62,o),
(-84,-73,o),
(-84,-92,cs),
(-84,-106,ls),
(-84,-125,o),
(-73,-136,o),
(-54,-135,cs),
(367,-121,o),
(663,205,o),
(676,669,cs),
(676,689,o),
(665,700,o),
(646,700,cs)
);
}
);
width = 600;
}
);
unicode = 11632;
}
{
category = Symbol;
glyphname = rolandhusedesign;
layers = (
{
layerId = m003;
shapes = (
{
closed = 1;
nodes = (
(629,174,l),
(619,209,l),
(675,181,l),
(616,348,l),
(665,371,l),
(676,278,l),
(725,293,l),
(699,259,l),
(752,235,l),
(769,261,l),
(749,273,l),
(779,314,l),
(798,294,l),
(818,316,l),
(777,364,l),
(752,331,l),
(702,315,l),
(693,419,l),
(613,382,l),
(599,418,l),
(570,408,l),
(593,343,l),
(561,331,l),
(530,343,l),
(551,408,l),
(522,418,l),
(508,382,l),
(428,419,l),
(419,315,l),
(385,326,l),
(357,364,l),
(316,316,l),
(335,294,l),
(355,314,l),
(385,273,l),
(364,261,l),
(381,235,l),
(434,259,l),
(413,288,l),
(446,278,l),
(456,371,l),
(508,348,l),
(449,184,l),
(505,210,l),
(494,169,l),
(561,71,l)
);
},
{
closed = 1;
nodes = (
(233,421,l),
(272,331,l),
(344,431,l),
(274,567,l),
(289,567,l),
(378,407,l),
(413,534,l),
(368,612,l),
(382,610,l),
(384,641,l),
(309,646,l),
(378,529,l),
(368,489,l),
(309,598,l),
(223,601,l),
(307,434,l),
(279,394,l),
(202,570,l),
(202,385,l),
(162,418,l),
(177,621,l),
(75,570,l),
(89,542,l),
(142,569,l),
(130,405,l),
(235,316,l)
);
},
{
closed = 1;
nodes = (
(525,176,l),
(553,265,l),
(501,240,l),
(527,314,l),
(561,299,l),
(595,312,l),
(621,240,l),
(570,265,l),
(596,178,l),
(561,124,l)
);
},
{
closed = 1;
nodes = (
(318,676,l),
(453,650,l),
(459,681,l),
(315,709,l),
(225,666,l),
(208,696,l),
(180,681,l),
(212,626,l)
);
},
{
closed = 1;
nodes = (
(544,527,l),
(514,536,l),
(484,434,l),
(514,425,l)
);
},
{
closed = 1;
nodes = (
(575,418,l),
(575,513,l),
(544,513,l),
(544,418,l)
);
},
{
closed = 1;
nodes = (
(540,587,l),
(512,603,l),
(461,515,l),
(487,498,l)
);
},
{
closed = 1;
nodes = (
(530,626,l),
(506,645,l),
(433,567,l),
(455,546,l)
);
},
{
closed = 1;
nodes = (
(492,631,l),
(480,660,l),
(417,633,l),
(429,604,l)
);
},
{
closed = 1;
nodes = (
(637,434,l),
(606,536,l),
(576,527,l),
(606,425,l)
);
},
{
closed = 1;
nodes = (
(575,532,l),
(575,614,l),
(544,614,l),
(544,532,l)
);
},
{
closed = 1;
nodes = (
(659,515,l),
(608,603,l),
(580,587,l),
(632,498,l)
);
},
{
closed = 1;
nodes = (
(511,777,l),
(483,792,l),
(455,737,l),
(424,747,l),
(430,765,l),
(401,776,l),
(382,728,l),
(471,699,l)
);
},
{
closed = 1;
nodes = (
(585,634,l),
(585,665,l),
(534,665,l),
(534,634,l)
);
},
{
closed = 1;
nodes = (
(687,567,l),
(614,645,l),
(590,626,l),
(665,546,l)
);
},
{
closed = 1;
nodes = (
(588,685,l),
(580,715,l),
(530,702,l),
(538,672,l)
);
},
{
closed = 1;
nodes = (
(703,633,l),
(640,660,l),
(628,631,l),
(691,604,l)
);
},
{
closed = 1;
nodes = (
(990,405,l),
(978,569,l),
(1031,542,l),
(1045,570,l),
(943,621,l),
(958,418,l),
(918,385,l),
(918,570,l),
(841,394,l),
(813,434,l),
(897,601,l),
(811,598,l),
(752,489,l),
(742,529,l),
(811,646,l),
(736,641,l),
(738,610,l),
(752,612,l),
(707,534,l),
(742,407,l),
(831,567,l),
(846,567,l),
(777,431,l),
(849,331,l),
(888,420,l),
(885,316,l)
);
},
{
closed = 1;
nodes = (
(583,721,l),
(582,747,l),
(658,787,l),
(769,779,l),
(691,897,l),
(625,868,l),
(559,908,l),
(449,818,l),
(430,860,l),
(460,884,l),
(466,872,l),
(492,893,l),
(468,929,l),
(392,868,l),
(436,767,l),
(560,870,l),
(622,834,l),
(681,858,l),
(712,813,l),
(650,818,l),
(550,764,l),
(551,719,l)
);
},
{
closed = 1;
nodes = (
(570,847,l),
(556,819,l),
(606,811,l)
);
},
{
closed = 1;
nodes = (
(940,681,l),
(912,696,l),
(895,666,l),
(805,709,l),
(661,681,l),
(667,650,l),
(802,676,l),
(908,626,l)
);
}
);
width = 1120;
},
{
layerId = m004;
shapes = (
{
closed = 1;
nodes = (
(629,174,l),
(619,209,l),
(675,181,l),
(616,348,l),
(665,371,l),
(676,278,l),
(725,293,l),
(699,259,l),
(752,235,l),
(769,261,l),
(749,273,l),
(779,314,l),
(798,294,l),
(818,316,l),
(777,364,l),
(752,331,l),
(702,315,l),
(693,419,l),
(613,382,l),
(599,418,l),
(570,408,l),
(593,343,l),
(561,331,l),
(530,343,l),
(551,408,l),
(522,418,l),
(508,382,l),
(428,419,l),
(419,315,l),
(385,326,l),
(357,364,l),
(316,316,l),
(335,294,l),
(355,314,l),
(385,273,l),
(364,261,l),
(381,235,l),
(434,259,l),
(413,288,l),
(446,278,l),
(456,371,l),
(508,348,l),
(449,184,l),
(505,210,l),
(494,169,l),
(561,71,l)
);
},
{
closed = 1;
nodes = (
(233,421,l),
(272,331,l),
(344,431,l),
(274,567,l),
(289,567,l),
(378,407,l),
(413,534,l),
(368,612,l),
(382,610,l),
(384,641,l),
(309,646,l),
(378,529,l),
(368,489,l),
(309,598,l),
(223,601,l),
(307,434,l),
(279,394,l),
(202,570,l),
(202,385,l),
(162,418,l),
(177,621,l),
(75,570,l),
(89,542,l),
(142,569,l),
(130,405,l),
(235,316,l)
);
},
{
closed = 1;
nodes = (
(525,176,l),
(553,265,l),
(501,240,l),
(527,314,l),
(561,299,l),
(595,312,l),
(621,240,l),
(570,265,l),
(596,178,l),
(561,124,l)
);
},
{
closed = 1;
nodes = (
(318,676,l),
(453,650,l),
(459,681,l),
(315,709,l),
(225,666,l),
(208,696,l),
(180,681,l),
(212,626,l)
);
},
{
closed = 1;
nodes = (
(544,527,l),
(514,536,l),
(484,434,l),
(514,425,l)
);
},
{
closed = 1;
nodes = (
(575,418,l),
(575,513,l),
(544,513,l),
(544,418,l)
);
},
{
closed = 1;
nodes = (
(540,587,l),
(512,603,l),
(461,515,l),
(487,498,l)
);
},
{
closed = 1;
nodes = (
(530,626,l),
(506,645,l),
(433,567,l),
(455,546,l)
);
},
{
closed = 1;
nodes = (
(492,631,l),
(480,660,l),
(417,633,l),
(429,604,l)
);
},
{
closed = 1;
nodes = (
(637,434,l),
(606,536,l),
(576,527,l),
(606,425,l)
);
},
{
closed = 1;
nodes = (
(575,532,l),
(575,614,l),
(544,614,l),
(544,532,l)
);
},
{
closed = 1;
nodes = (
(659,515,l),
(608,603,l),
(580,587,l),
(632,498,l)
);
},
{
closed = 1;
nodes = (
(511,777,l),
(483,792,l),
(455,737,l),
(424,747,l),
(430,765,l),
(401,776,l),
(382,728,l),
(471,699,l)
);
},
{
closed = 1;
nodes = (
(585,634,l),
(585,665,l),
(534,665,l),
(534,634,l)
);
},
{
closed = 1;
nodes = (
(687,567,l),
(614,645,l),
(590,626,l),
(665,546,l)
);
},
{
closed = 1;
nodes = (
(588,685,l),
(580,715,l),
(530,702,l),
(538,672,l)
);
},
{
closed = 1;
nodes = (
(703,633,l),
(640,660,l),
(628,631,l),
(691,604,l)
);
},
{
closed = 1;
nodes = (
(990,405,l),
(978,569,l),
(1031,542,l),
(1045,570,l),
(943,621,l),
(958,418,l),
(918,385,l),
(918,570,l),
(841,394,l),
(813,434,l),
(897,601,l),
(811,598,l),
(752,489,l),
(742,529,l),
(811,646,l),
(736,641,l),
(738,610,l),
(752,612,l),
(707,534,l),
(742,407,l),
(831,567,l),
(846,567,l),
(777,431,l),
(849,331,l),
(888,420,l),
(885,316,l)
);
},
{
closed = 1;
nodes = (
(583,721,l),
(582,747,l),
(658,787,l),
(769,779,l),
(691,897,l),
(625,868,l),
(559,908,l),
(449,818,l),
(430,860,l),
(460,884,l),
(466,872,l),
(492,893,l),
(468,929,l),
(392,868,l),
(436,767,l),
(560,870,l),
(622,834,l),
(681,858,l),
(712,813,l),
(650,818,l),
(550,764,l),
(551,719,l)
);
},
{
closed = 1;
nodes = (
(570,847,l),
(556,819,l),
(606,811,l)
);
},
{
closed = 1;
nodes = (
(940,681,l),
(912,696,l),
(895,666,l),
(805,709,l),
(661,681,l),
(667,650,l),
(802,676,l),
(908,626,l)
);
}
);
width = 1120;
},
{
layerId = m005;
shapes = (
{
closed = 1;
nodes = (
(629,174,l),
(619,209,l),
(675,181,l),
(616,348,l),
(665,371,l),
(676,278,l),
(725,293,l),
(699,259,l),
(752,235,l),
(769,261,l),
(749,273,l),
(779,314,l),
(798,294,l),
(818,316,l),
(777,364,l),
(752,331,l),
(702,315,l),
(693,419,l),
(613,382,l),
(599,418,l),
(570,408,l),
(593,343,l),
(561,331,l),
(530,343,l),
(551,408,l),
(522,418,l),
(508,382,l),
(428,419,l),
(419,315,l),
(385,326,l),
(357,364,l),
(316,316,l),
(335,294,l),
(355,314,l),
(385,273,l),
(364,261,l),
(381,235,l),
(434,259,l),
(413,288,l),
(446,278,l),
(456,371,l),
(508,348,l),
(449,184,l),
(505,210,l),
(494,169,l),
(561,71,l)
);
},
{
closed = 1;
nodes = (
(233,421,l),
(272,331,l),
(344,431,l),
(274,567,l),
(289,567,l),
(378,407,l),
(413,534,l),
(368,612,l),
(382,610,l),
(384,641,l),
(309,646,l),
(378,529,l),
(368,489,l),
(309,598,l),
(223,601,l),
(307,434,l),
(279,394,l),
(202,570,l),
(202,385,l),
(162,418,l),
(177,621,l),
(75,570,l),
(89,542,l),
(142,569,l),
(130,405,l),
(235,316,l)
);
},
{
closed = 1;
nodes = (
(525,176,l),
(553,265,l),
(501,240,l),
(527,314,l),
(561,299,l),
(595,312,l),
(621,240,l),
(570,265,l),
(596,178,l),
(561,124,l)
);
},
{
closed = 1;
nodes = (
(318,676,l),
(453,650,l),
(459,681,l),
(315,709,l),
(225,666,l),
(208,696,l),
(180,681,l),
(212,626,l)
);
},
{
closed = 1;
nodes = (
(544,527,l),
(514,536,l),
(484,434,l),
(514,425,l)
);
},
{
closed = 1;
nodes = (
(575,418,l),
(575,513,l),
(544,513,l),
(544,418,l)
);
},
{
closed = 1;
nodes = (
(540,587,l),
(512,603,l),
(461,515,l),
(487,498,l)
);
},
{
closed = 1;
nodes = (
(530,626,l),
(506,645,l),
(433,567,l),
(455,546,l)
);
},
{
closed = 1;
nodes = (
(492,631,l),
(480,660,l),
(417,633,l),
(429,604,l)
);
},
{
closed = 1;
nodes = (
(637,434,l),
(606,536,l),
(576,527,l),
(606,425,l)
);
},
{
closed = 1;
nodes = (
(575,532,l),
(575,614,l),
(544,614,l),
(544,532,l)
);
},
{
closed = 1;
nodes = (
(659,515,l),
(608,603,l),
(580,587,l),
(632,498,l)
);
},
{
closed = 1;
nodes = (
(511,777,l),
(483,792,l),
(455,737,l),
(424,747,l),
(430,765,l),
(401,776,l),
(382,728,l),
(471,699,l)
);
},
{
closed = 1;
nodes = (
(585,634,l),
(585,665,l),
(534,665,l),
(534,634,l)
);
},
{
closed = 1;
nodes = (
(687,567,l),
(614,645,l),
(590,626,l),
(665,546,l)
);
},
{
closed = 1;
nodes = (
(588,685,l),
(580,715,l),
(530,702,l),
(538,672,l)
);
},
{
closed = 1;
nodes = (
(703,633,l),
(640,660,l),
(628,631,l),
(691,604,l)
);
},
{
closed = 1;
nodes = (
(990,405,l),
(978,569,l),
(1031,542,l),
(1045,570,l),
(943,621,l),
(958,418,l),
(918,385,l),
(918,570,l),
(841,394,l),
(813,434,l),
(897,601,l),
(811,598,l),
(752,489,l),
(742,529,l),
(811,646,l),
(736,641,l),
(738,610,l),
(752,612,l),
(707,534,l),
(742,407,l),
(831,567,l),
(846,567,l),
(777,431,l),
(849,331,l),
(888,420,l),
(885,316,l)
);
},
{
closed = 1;
nodes = (
(583,721,l),
(582,747,l),
(658,787,l),
(769,779,l),
(691,897,l),
(625,868,l),
(559,908,l),
(449,818,l),
(430,860,l),
(460,884,l),
(466,872,l),
(492,893,l),
(468,929,l),
(392,868,l),
(436,767,l),
(560,870,l),
(622,834,l),
(681,858,l),
(712,813,l),
(650,818,l),
(550,764,l),
(551,719,l)
);
},
{
closed = 1;
nodes = (
(570,847,l),
(556,819,l),
(606,811,l)
);
},
{
closed = 1;
nodes = (
(940,681,l),
(912,696,l),
(895,666,l),
(805,709,l),
(661,681,l),
(667,650,l),
(802,676,l),
(908,626,l)
);
}
);
width = 1120;
}
);
metricLeft = "=75";
metricRight = "=|";
production = rolandhusedesign;
script = latin;
unicode = 63743;
}
{
glyphname = .notdef;
layers = (
{
layerId = m005;
shapes = (
{
closed = 1;
nodes = (
(737,-104,o),
(919,77,o),
(919,300,cs),
(919,523,o),
(737,704,o),
(515,704,cs),
(292,704,o),
(110,523,o),
(110,300,cs),
(110,77,o),
(292,-104,o),
(515,-104,cs)
);
},
{
closed = 1;
nodes = (
(480,-27,o),
(471,-18,o),
(471,-5,cs),
(471,11,o),
(480,18,o),
(493,18,cs),
(507,18,o),
(516,11,o),
(516,-5,cs),
(516,-18,o),
(507,-27,o),
(493,-27,cs)
);
},
{
closed = 1;
nodes = (
(481,103,o),
(479,105,o),
(479,109,cs),
(479,170,ls),
(479,215,o),
(495,244,o),
(522,273,cs),
(589,344,ls),
(638,395,o),
(671,420,o),
(671,486,cs),
(671,580,o),
(603,631,o),
(514,631,cs),
(427,631,o),
(362,581,o),
(348,490,cs),
(347,486,o),
(344,484,o),
(341,484,cs),
(331,484,ls),
(327,484,o),
(325,486,o),
(326,490,cs),
(339,587,o),
(408,653,o),
(513,653,cs),
(619,653,o),
(693,585,o),
(693,486,cs),
(693,414,o),
(659,382,o),
(613,335,cs),
(540,259,ls),
(514,232,o),
(501,205,o),
(501,170,cs),
(501,109,ls),
(501,106,o),
(499,103,o),
(496,103,cs),
(485,103,ls)
);
}
);
width = 1029;
},
{
layerId = m004;
shapes = (
{
closed = 1;
nodes = (
(740,-110,o),
(925,74,o),
(925,300,cs),
(925,526,o),
(740,710,o),
(515,710,cs),
(289,710,o),
(104,526,o),
(104,300,cs),
(104,74,o),
(289,-110,o),
(515,-110,cs)
);
},
{
closed = 1;
nodes = (
(467,-40,o),
(446,-19,o),
(446,13,cs),
(446,52,o),
(467,69,o),
(499,69,cs),
(533,69,o),
(555,52,o),
(555,13,cs),
(555,-19,o),
(533,-40,o),
(499,-40,cs)
);
},
{
closed = 1;
nodes = (
(467,126,o),
(458,135,o),
(458,151,cs),
(458,167,ls),
(458,234,o),
(474,260,o),
(512,298,cs),
(579,364,ls),
(622,407,o),
(639,429,o),
(639,483,cs),
(639,548,o),
(587,584,o),
(518,584,cs),
(453,584,o),
(397,550,o),
(377,487,cs),
(373,472,o),
(365,465,o),
(350,465,cs),
(319,465,ls),
(302,465,o),
(292,475,o),
(296,492,cs),
(321,587,o),
(409,650,o),
(517,650,cs),
(642,650,o),
(726,581,o),
(726,480,cs),
(726,416,o),
(703,381,o),
(652,330,cs),
(576,255,ls),
(548,227,o),
(532,207,o),
(532,167,cs),
(532,151,ls),
(532,135,o),
(523,126,o),
(507,126,cs),
(483,126,ls)
);
}
);
width = 1029;
},
{
layerId = m003;
shapes = (
{
closed = 1;
nodes = (
(787,-136,o),
(983,59,o),
(983,300,cs),
(983,541,o),
(787,736,o),
(547,736,cs),
(306,736,o),
(110,541,o),
(110,300,cs),
(110,59,o),
(306,-136,o),
(547,-136,cs)
);
},
{
closed = 1;
nodes = (
(474,-63,o),
(442,-31,o),
(442,17,cs),
(442,78,o),
(474,103,o),
(522,103,cs),
(575,103,o),
(608,78,o),
(608,17,cs),
(608,-31,o),
(575,-63,o),
(522,-63,cs)
);
},
{
closed = 1;
nodes = (
(466,144,o),
(453,158,o),
(453,184,cs),
(453,209,ls),
(453,269,o),
(476,302,o),
(516,342,cs),
(583,409,ls),
(614,440,o),
(623,456,o),
(623,474,cs),
(623,517,o),
(593,539,o),
(547,539,cs),
(514,539,o),
(477,521,o),
(463,476,cs),
(456,455,o),
(451,442,o),
(427,442,cs),
(351,442,ls),
(325,442,o),
(308,457,o),
(313,483,cs),
(330,581,o),
(412,669,o),
(547,669,cs),
(684,669,o),
(784,586,o),
(784,475,cs),
(784,409,o),
(749,369,o),
(700,329,cs),
(635,276,ls),
(600,248,o),
(586,233,o),
(586,193,cs),
(586,184,ls),
(586,159,o),
(572,144,o),
(549,144,cs),
(489,144,ls)
);
}
);
width = 1093;
}
);
metricRight = "=|";
}
{
glyphname = exclamdown.case;
kernLeft = exclamdown.case;
kernRight = exclamdown.case;
layers = (
{
background = {
shapes = (
{
closed = 1;
nodes = (
(64,570,ls),
(60,570,o),
(58,568,o),
(58,564,cs),
(55,6,ls),
(55,2,o),
(57,0,o),
(61,0,cs),
(76,0,ls),
(79,0,o),
(82,3,o),
(82,6,cs),
(79,564,ls),
(79,567,o),
(76,570,o),
(73,570,cs)
);
},
{
closed = 1;
nodes = (
(53,710,o),
(44,701,o),
(44,688,cs),
(44,672,o),
(53,665,o),
(67,665,cs),
(80,665,o),
(89,672,o),
(89,688,cs),
(89,701,o),
(80,710,o),
(67,710,cs)
);
}
);
};
layerId = m005;
shapes = (
{
alignment = 1;
angle = 180;
pos = (311,700);
ref = exclam;
}
);
width = 311;
},
{
layerId = m004;
shapes = (
{
alignment = 1;
angle = 180;
pos = (317,700);
ref = exclam;
}
);
width = 317;
},
{
layerId = m003;
shapes = (
{
alignment = 1;
angle = 180;
pos = (364,720);
ref = exclam;
}
);
width = 364;
}
);
userData = {
KernOnSpecialSpacing = {
R = "spaced-off";
};
};
}
